<svg height="100%" preserveAspectRatio="xMidYMid meet" viewBox="0 0 1000 1000" width="100%" xmlns="http://www.w3.org/2000/svg">
<rect fill="none" height="100" stroke="#000000" stroke-width="1" transform="rotate(0 0 500)" width="100" x="-50" y="450"/>
<rect fill="none" height="100" stroke="#000000" stroke-width="1" transform="rotate(10 10 500)" width="100" x="-40" y="450"/>
<rect fill="none" height="100" stroke="#000000" stroke-width="1" transform="rotate(20 20 500)" width="100" x="-30" y="450"/>
<rect fill="none" height="100" stroke="#000000" stroke-width="1" transform="rotate(30 30 500)" width="100" x="-20" y="450"/>
<rect fill="none" height="100" stroke="#000000" stroke-width="1" transform="rotate(40 40 500)" width="100" x="-10" y="450"/>
<rect fill="none" height="100" stroke="#000000" stroke-width="1" transform="rotate(50 50 500)" width="100" x="0" y="450"/>
<rect fill="none" height="100" stroke="#000000" stroke-width="1" transform="rotate(60 60 500)" width="100" x="10" y="450"/>
<rect fill="none" height="100" stroke="#000000" stroke-width="1" transform="rotate(70 70 500)" width="100" x="20" y="450"/>
<rect fill="none" height="100" stroke="#000000" stroke-width="1" transform="rotate(80 80 500)" width="100" x="30" y="450"/>
<rect fill="none" height="100" stroke="#000000" stroke-width="1" transform="rotate(90 90 500)" width="100" x="40" y="450"/>
<rect fill="none" height="100" stroke="#000000" stroke-width="1" transform="rotate(100 100 500)" width="100" x="50" y="450"/>
<rect fill="none" height="100" stroke="#000000" stroke-width="1" transform="rotate(110 110 500)" width="100" x="60" y="450"/>
<rect fill="none" height="100" stroke="#000000" stroke-width="1" transform="rotate(120 120 500)" width="100" x="70" y="450"/>
<rect fill="none" height="100" stroke="#000000" stroke-width="1" transform="rotate(130 130 500)" width="100" x="80" y="450"/>
<rect fill="none" height="100" stroke="#000000" stroke-width="1" transform="rotate(140 140 500)" width="100" x="90" y="450"/>
<rect fill="none" height="100" stroke="#000000" stroke-width="1" transform="rotate(150 150 500)" width="100" x="100" y="450"/>
<rect fill="none" height="100" stroke="#000000" stroke-width="1" transform="rotate(160 160 500)" width="100" x="110" y="450"/>
<rect fill="none" height="100" stroke="#000000" stroke-width="1" transform="rotate(170 170 500)" width="100" x="120" y="450"/>
<rect fill="none" height="100" stroke="#000000" stroke-width="1" transform="rotate(180 180 500)" width="100" x="130" y="450"/>
<rect fill="none" height="100" stroke="#000000" stroke-width="1" transform="rotate(190 190 500)" width="100" x="140" y="450"/>
<rect fill="none" height="100" stroke="#000000" stroke-width="1" transform="rotate(200 200 500)" width="100" x="150" y="450"/>
<rect fill="none" height="100" stroke="#000000" stroke-width="1" transform="rotate(210 210 500)" width="100" x="160" y="450"/>
<rect fill="none" height="100" stroke="#000000" stroke-width="1" transform="rotate(220 220 500)" width="100" x="170" y="450"/>
<rect fill="none" height="100" stroke="#000000" stroke-width="1" transform="rotate(230 230 500)" width="100" x="180" y="450"/>
<rect fill="none" height="100" stroke="#000000" stroke-width="1" transform="rotate(240 240 500)" width="100" x="190" y="450"/>
<rect fill="none" height="100" stroke="#000000" stroke-width="1" transform="rotate(250 250 500)" width="100" x="200" y="450"/>
<rect fill="none" height="100" stroke="#000000" stroke-width="1" transform="rotate(260 260 500)" width="100" x="210" y="450"/>
<rect fill="none" height="100" stroke="#000000" stroke-width="1" transform="rotate(270 270 500)" width="100" x="220" y="450"/>
<rect fill="none" height="100" stroke="#000000" stroke-width="1" transform="rotate(280 280 500)" width="100" x="230" y="450"/>
<rect fill="none" height="100" stroke="#000000" stroke-width="1" transform="rotate(290 290 500)" width="100" x="240" y="450"/>
<rect fill="none" height="100" stroke="#000000" stroke-width="1" transform="rotate(300 300 500)" width="100" x="250" y="450"/>
<rect fill="none" height="100" stroke="#000000" stroke-width="1" transform="rotate(310 310 500)" width="100" x="260" y="450"/>
<rect fill="none" height="100" stroke="#000000" stroke-width="1" transform="rotate(320 320 500)" width="100" x="270" y="450"/>
<rect fill="none" height="100" stroke="#000000" stroke-width="1" transform="rotate(330 330 500)" width="100" x="280" y="450"/>
<rect fill="none" height="100" stroke="#000000" stroke-width="1" transform="rotate(340 340 500)" width="100" x="290" y="450"/>
<rect fill="none" height="100" stroke="#000000" stroke-width="1" transform="rotate(350 350 500)" width="100" x="300" y="450"/>
<rect fill="none" height="100" stroke="#000000" stroke-width="1" transform="rotate(360 360 500)" width="100" x="310" y="450"/>
<rect fill="none" height="100" stroke="#000000" stroke-width="1" transform="rotate(370 370 500)" width="100" x="320" y="450"/>
<rect fill="none" height="100" stroke="#000000" stroke-width="1" transform="rotate(380 380 500)" width="100" x="330" y="450"/>
<rect fill="none" height="100" stroke="#000000" stroke-width="1" transform="rotate(390 390 500)" width="100" x="340" y="450"/>
<rect fill="none" height="100" stroke="#000000" stroke-width="1" transform="rotate(400 400 500)" width="100" x="350" y="450"/>
<rect fill="none" height="100" stroke="#000000" stroke-width="1" transform="rotate(410 410 500)" width="100" x="360" y="450"/>
<rect fill="none" height="100" stroke="#000000" stroke-width="1" transform="rotate(420 420 500)" width="100" x="370" y="450"/>
<rect fill="none" height="100" stroke="#000000" stroke-width="1" transform="rotate(430 430 500)" width="100" x="380" y="450"/>
<rect fill="none" height="100" stroke="#000000" stroke-width="1" transform="rotate(440 440 500)" width="100" x="390" y="450"/>
<rect fill="none" height="100" stroke="#000000" stroke-width="1" transform="rotate(450 450 500)" width="100" x="400" y="450"/>
<rect fill="none" height="100" stroke="#000000" stroke-width="1" transform="rotate(460 460 500)" width="100" x="410" y="450"/>
<rect fill="none" height="100" stroke="#000000" stroke-width="1" transform="rotate(470 470 500)" width="100" x="420" y="450"/>
<rect fill="none" height="100" stroke="#000000" stroke-width="1" transform="rotate(480 480 500)" width="100" x="430" y="450"/>
<rect fill="none" height="100" stroke="#000000" stroke-width="1" transform="rotate(490 490 500)" width="100" x="440" y="450"/>
<rect fill="none" height="100" stroke="#000000" stroke-width="1" transform="rotate(500 500 500)" width="100" x="450" y="450"/>
<rect fill="none" height="100" stroke="#000000" stroke-width="1" transform="rotate(510 510 500)" width="100" x="460" y="450"/>
<rect fill="none" height="100" stroke="#000000" stroke-width="1" transform="rotate(520 520 500)" width="100" x="470" y="450"/>
<rect fill="none" height="100" stroke="#000000" stroke-width="1" transform="rotate(530 530 500)" width="100" x="480" y="450"/>
<rect fill="none" height="100" stroke="#000000" stroke-width="1" transform="rotate(540 540 500)" width="100" x="490" y="450"/>
<rect fill="none" height="100" stroke="#000000" stroke-width="1" transform="rotate(550 550 500)" width="100" x="500" y="450"/>
<rect fill="none" height="100" stroke="#000000" stroke-width="1" transform="rotate(560 560 500)" width="100" x="510" y="450"/>
<rect fill="none" height="100" stroke="#000000" stroke-width="1" transform="rotate(570 570 500)" width="100" x="520" y="450"/>
<rect fill="none" height="100" stroke="#000000" stroke-width="1" transform="rotate(580 580 500)" width="100" x="530" y="450"/>
<rect fill="none" height="100" stroke="#000000" stroke-width="1" transform="rotate(590 590 500)" width="100" x="540" y="450"/>
<rect fill="none" height="100" stroke="#000000" stroke-width="1" transform="rotate(600 600 500)" width="100" x="550" y="450"/>
<rect fill="none" height="100" stroke="#000000" stroke-width="1" transform="rotate(610 610 500)" width="100" x="560" y="450"/>
<rect fill="none" height="100" stroke="#000000" stroke-width="1" transform="rotate(620 620 500)" width="100" x="570" y="450"/>
<rect fill="none" height="100" stroke="#000000" stroke-width="1" transform="rotate(630 630 500)" width="100" x="580" y="450"/>
<rect fill="none" height="100" stroke="#000000" stroke-width="1" transform="rotate(640 640 500)" width="100" x="590" y="450"/>
<rect fill="none" height="100" stroke="#000000" stroke-width="1" transform="rotate(650 650 500)" width="100" x="600" y="450"/>
<rect fill="none" height="100" stroke="#000000" stroke-width="1" transform="rotate(660 660 500)" width="100" x="610" y="450"/>
<rect fill="none" height="100" stroke="#000000" stroke-width="1" transform="rotate(670 670 500)" width="100" x="620" y="450"/>
<rect fill="none" height="100" stroke="#000000" stroke-width="1" transform="rotate(680 680 500)" width="100" x="630" y="450"/>
<rect fill="none" height="100" stroke="#000000" stroke-width="1" transform="rotate(690 690 500)" width="100" x="640" y="450"/>
<rect fill="none" height="100" stroke="#000000" stroke-width="1" transform="rotate(700 700 500)" width="100" x="650" y="450"/>
<rect fill="none" height="100" stroke="#000000" stroke-width="1" transform="rotate(710 710 500)" width="100" x="660" y="450"/>
<rect fill="none" height="100" stroke="#000000" stroke-width="1" transform="rotate(720 720 500)" width="100" x="670" y="450"/>
<rect fill="none" height="100" stroke="#000000" stroke-width="1" transform="rotate(730 730 500)" width="100" x="680" y="450"/>
<rect fill="none" height="100" stroke="#000000" stroke-width="1" transform="rotate(740 740 500)" width="100" x="690" y="450"/>
<rect fill="none" height="100" stroke="#000000" stroke-width="1" transform="rotate(750 750 500)" width="100" x="700" y="450"/>
<rect fill="none" height="100" stroke="#000000" stroke-width="1" transform="rotate(760 760 500)" width="100" x="710" y="450"/>
<rect fill="none" height="100" stroke="#000000" stroke-width="1" transform="rotate(770 770 500)" width="100" x="720" y="450"/>
<rect fill="none" height="100" stroke="#000000" stroke-width="1" transform="rotate(780 780 500)" width="100" x="730" y="450"/>
<rect fill="none" height="100" stroke="#000000" stroke-width="1" transform="rotate(790 790 500)" width="100" x="740" y="450"/>
<rect fill="none" height="100" stroke="#000000" stroke-width="1" transform="rotate(800 800 500)" width="100" x="750" y="450"/>
<rect fill="none" height="100" stroke="#000000" stroke-width="1" transform="rotate(810 810 500)" width="100" x="760" y="450"/>
<rect fill="none" height="100" stroke="#000000" stroke-width="1" transform="rotate(820 820 500)" width="100" x="770" y="450"/>
<rect fill="none" height="100" stroke="#000000" stroke-width="1" transform="rotate(830 830 500)" width="100" x="780" y="450"/>
<rect fill="none" height="100" stroke="#000000" stroke-width="1" transform="rotate(840 840 500)" width="100" x="790" y="450"/>
<rect fill="none" height="100" stroke="#000000" stroke-width="1" transform="rotate(850 850 500)" width="100" x="800" y="450"/>
<rect fill="none" height="100" stroke="#000000" stroke-width="1" transform="rotate(860 860 500)" width="100" x="810" y="450"/>
<rect fill="none" height="100" stroke="#000000" stroke-width="1" transform="rotate(870 870 500)" width="100" x="820" y="450"/>
<rect fill="none" height="100" stroke="#000000" stroke-width="1" transform="rotate(880 880 500)" width="100" x="830" y="450"/>
<rect fill="none" height="100" stroke="#000000" stroke-width="1" transform="rotate(890 890 500)" width="100" x="840" y="450"/>
<rect fill="none" height="100" stroke="#000000" stroke-width="1" transform="rotate(900 900 500)" width="100" x="850" y="450"/>
<rect fill="none" height="100" stroke="#000000" stroke-width="1" transform="rotate(910 910 500)" width="100" x="860" y="450"/>
<rect fill="none" height="100" stroke="#000000" stroke-width="1" transform="rotate(920 920 500)" width="100" x="870" y="450"/>
<rect fill="none" height="100" stroke="#000000" stroke-width="1" transform="rotate(930 930 500)" width="100" x="880" y="450"/>
<rect fill="none" height="100" stroke="#000000" stroke-width="1" transform="rotate(940 940 500)" width="100" x="890" y="450"/>
<rect fill="none" height="100" stroke="#000000" stroke-width="1" transform="rotate(950 950 500)" width="100" x="900" y="450"/>
<rect fill="none" height="100" stroke="#000000" stroke-width="1" transform="rotate(960 960 500)" width="100" x="910" y="450"/>
<rect fill="none" height="100" stroke="#000000" stroke-width="1" transform="rotate(970 970 500)" width="100" x="920" y="450"/>
<rect fill="none" height="100" stroke="#000000" stroke-width="1" transform="rotate(980 980 500)" width="100" x="930" y="450"/>
<rect fill="none" height="100" stroke="#000000" stroke-width="1" transform="rotate(990 990 500)" width="100" x="940" y="450"/>
</svg>