<svg height="100%" preserveAspectRatio="xMidYMid meet" viewBox="0 0 1000 1000" width="100%" xmlns="http://www.w3.org/2000/svg">
<path d="M200,100 L199.98477,101.74524 L199.93909,103.48995 L199.86295,105.2336 L199.75641,106.97565 L199.61948,108.715576 L199.4522,110.45285 L199.25461,112.186935 L199.0268,113.91731 L198.76883,115.64345 L198.48077,117.36482 L198.16272,119.0809 L197.81476,120.79117 L197.43701,122.4951 L197.02957,124.19219 L196.59259,125.881905 L196.12616,127.563736 L195.63048,129.23717 L195.10565,130.9017 L194.55185,132.55681 L193.96927,134.20201 L193.35803,135.83679 L192.71838,137.46066 L192.05048,139.07312 L191.35455,140.67366 L190.63077,142.26183 L189.8794,143.83711 L189.10065,145.39905 L188.29475,146.94716 L187.46198,148.48096 L186.60254,150 L185.71674,151.50381 L184.80481,152.99193 L183.86707,154.4639 L182.90376,155.91928 L181.9152,157.35764 L180.9017,158.77853 L179.86356,160.1815 L178.80109,161.56615 L177.7146,162.93204 L176.60445,164.27875 L175.47096,165.6059 L174.31448,166.91306 L173.13538,168.19983 L171.93398,169.46585 L170.71068,170.7107 L169.46585,171.93398 L168.19983,173.13538 L166.91306,174.31448 L165.6059,175.47096 L164.27876,176.60445 L162.93204,177.7146 L161.56615,178.80109 L160.1815,179.86356 L158.77853,180.9017 L157.35764,181.9152 L155.91928,182.90376 L154.4639,183.86707 L152.99193,184.80481 L151.50381,185.71674 L150,186.60254 L148.48096,187.46198 L146.94716,188.29475 L145.39905,189.10065 L143.83711,189.8794 L142.26183,190.63077 L140.67366,191.35455 L139.07312,192.05048 L137.46066,192.71838 L135.83679,193.35803 L134.20201,193.96927 L132.55681,194.55185 L130.9017,195.10565 L129.23718,195.63046 L127.563736,196.12616 L125.881905,196.59259 L124.19219,197.02957 L122.4951,197.43701 L120.79117,197.81476 L119.0809,198.16272 L117.36482,198.48077 L115.64345,198.76883 L113.91731,199.0268 L112.186935,199.25461 L110.45284,199.4522 L108.715576,199.61948 L106.97565,199.75641 L105.2336,199.86295 L103.48995,199.93909 L101.74524,199.98477 L99.99999,200 L98.25477,199.98477 L96.510056,199.93909 L94.7664,199.86295 L93.02435,199.75641 L91.284424,199.61948 L89.54715,199.4522 L87.81307,199.25461 L86.082695,199.0268 L84.35655,198.76883 L82.63518,198.48077 L80.9191,198.16272 L79.20884,197.81476 L77.5049,197.43701 L75.807816,197.02957 L74.118095,196.59259 L72.436264,196.12616 L70.762825,195.63046 L69.098305,195.10565 L67.44319,194.55186 L65.79799,193.96927 L64.16321,193.35805 L62.539337,192.71838 L60.926884,192.05048 L59.326344,191.35455 L57.738167,190.63077 L56.162888,189.8794 L54.60096,189.10066 L53.05284,188.29475 L51.519047,187.46198 L49.999992,186.60254 L48.4962,185.71674 L47.008068,184.80481 L45.536095,183.86707 L44.080715,182.90376 L42.642357,181.91519 L41.22148,180.9017 L39.81849,179.86354 L38.433857,178.80109 L37.067974,177.7146 L35.721237,176.60445 L34.394104,175.47096 L33.08693,174.31448 L31.80017,173.13538 L30.534172,171.93399 L29.289322,170.71068 L28.066025,169.46585 L26.864632,168.19983 L25.685524,166.91306 L24.529037,165.6059 L23.395554,164.27876 L22.285416,162.93204 L21.198921,161.56615 L20.13646,160.1815 L19.098297,158.77852 L18.0848,157.35764 L17.096252,155.9193 L16.132942,154.4639 L15.195198,152.99193 L14.283272,151.5038 L13.397461,150 L12.538025,148.48096 L11.705246,146.94716 L10.899353,145.39906 L10.120598,143.83711 L9.369225,142.26184 L8.645454,140.67366 L7.9495163,139.07312 L7.281616,137.46066 L6.6419525,135.83679 L6.030739,134.20203 L5.4481354,132.55681 L4.894348,130.9017 L4.3695297,129.23718 L3.8738327,127.563736 L3.4074173,125.88191 L2.9704285,124.192184 L2.562996,122.49511 L2.185234,120.79116 L1.8372803,119.0809 L1.5192261,117.36483 L1.231163,115.64345 L0.97319794,113.91732 L0.7453842,112.18693 L0.5478058,110.45285 L0.3805313,108.71559 L0.24359131,106.97565 L0.13704681,105.233604 L0.060913086,103.489944 L0.0152282715,101.74525 L0,99.99999 L0.0152282715,98.25476 L0.060913086,96.51006 L0.13704681,94.7664 L0.24359131,93.02436 L0.3805313,91.28442 L0.5478058,89.54716 L0.7453842,87.81308 L0.97319794,86.08269 L1.231163,84.35656 L1.5192261,82.63518 L1.8372803,80.919106 L2.1852417,79.20882 L2.562996,77.5049 L2.9704285,75.807816 L3.4074173,74.118095 L3.8738327,72.43627 L4.3695297,70.76282 L4.894348,69.098305 L5.4481354,67.44319 L6.030739,65.79799 L6.6419525,64.163216 L7.281616,62.539337 L7.9495163,60.92689 L8.645454,59.326347 L9.369225,57.738174 L10.12059,56.162895 L10.899345,54.600945 L11.705238,53.05285 L12.538033,51.51903 L13.397453,50 L14.283264,48.496204 L15.19519,47.00807 L16.132942,45.536102 L17.096245,44.080704 L18.084793,42.64236 L19.098297,41.22149 L20.136444,39.818497 L21.198914,38.43386 L22.285408,37.067955 L23.395554,35.721245 L24.529045,34.39409 L25.685516,33.086937 L26.864616,31.80017 L28.066025,30.534157 L29.289314,29.28933 L30.534164,28.066017 L31.800163,26.864632 L33.08693,25.685524 L34.394096,24.529037 L35.721245,23.395546 L37.067963,22.2854 L38.43385,21.198929 L39.818485,20.13646 L41.22145,19.09832 L42.64237,18.084785 L44.08071,17.096237 L45.536087,16.132942 L47.00806,15.195198 L48.49617,14.283279 L50.000008,13.397453 L51.51904,12.538025 L53.052837,11.705246 L54.600933,10.899361 L56.162903,10.12059 L57.738182,9.369217 L59.326336,8.645454 L60.92688,7.9495163 L62.53932,7.281624 L64.16322,6.6419525 L65.79799,6.030739 L67.443184,5.448143 L69.09829,4.894348 L70.76281,4.3695297 L72.43628,3.873825 L74.1181,3.4074173 L75.80781,2.9704285 L77.50488,2.562996 L79.20881,2.1852417 L80.91911,1.8372803 L82.635185,1.5192184 L84.35655,1.231163 L86.08267,0.97319794 L87.81304,0.7453842 L89.547165,0.5478058 L91.28443,0.3805313 L93.024345,0.24359894 L94.76639,0.13704681 L96.510025,0.060913086 L98.25477,0.0152282715 L100,0 L101.74523,0.0152282715 L103.48993,0.060913086 L105.23361,0.13704681 L106.975655,0.24359894 L108.715576,0.3805313 L110.452835,0.5478058 L112.18691,0.7453766 L113.91733,0.97319794 L115.643456,1.2311707 L117.364815,1.5192261 L119.08089,1.8372803 L120.791145,2.185234 L122.49512,2.5630035 L124.1922,2.9704285 L125.8819,3.4074173 L127.56372,3.873825 L129.23715,4.3695145 L130.90172,4.894348 L132.55682,5.448143 L134.20201,6.030739 L135.83678,6.6419525 L137.46063,7.2816086 L139.07312,7.9495163 L140.67368,8.645454 L142.26183,9.369217 L143.8371,10.12059 L145.39903,10.899338 L146.94717,11.705246 L148.48096,12.538025 L150,13.397453 L151.50378,14.283257 L152.99194,15.195198 L154.46391,16.132942 L155.91928,17.096237 L157.35764,18.084785 L158.7785,19.09829 L160.18152,20.13646 L161.56616,21.198929 L162.93204,22.2854 L164.27875,23.395546 L165.6059,24.52903 L166.91307,25.685524 L168.19984,26.864632 L169.46584,28.066017 L170.71066,29.289314 L171.93396,30.53415 L173.13538,31.80017 L174.31448,33.086945 L175.47095,34.39409 L176.60443,35.721222 L177.71457,37.06794 L178.80109,38.43386 L179.86356,39.8185 L180.9017,41.22147 L181.91519,42.64234 L182.90375,44.08069 L183.86707,45.536106 L184.80481,47.00807 L185.71672,48.496185 L186.60252,49.99998 L187.46198,51.519054 L188.29477,53.052853 L189.10065,54.60095 L189.8794,56.162876 L190.63077,57.738155 L191.35455,59.32635 L192.05048,60.926895 L192.71838,62.539337 L193.35803,64.16319 L193.96925,65.79796 L194.55186,67.4432 L195.10565,69.098305 L195.63046,70.762825 L196.12616,72.43625 L196.59258,74.11807 L197.02957,75.80782 L197.43701,77.5049 L197.81476,79.208824 L198.16272,80.91908 L198.48077,82.635155 L198.76883,84.35657 L199.02681,86.08269 L199.25461,87.81306 L199.4522,89.547134 L199.61948,91.28439 L199.75641,93.02436 L199.86296,94.7664 L199.93909,96.51004 L199.98477,98.25474 L200,100.000015 z" fill="none" stroke="black" stroke-width="1"/>
<path d="M100,50 L99.992386,50.87262 L99.96954,51.744976 L99.93147,52.6168 L99.878204,53.487823 L99.80974,54.357788 L99.7261,55.226425 L99.627304,56.093468 L99.5134,56.958656 L99.384415,57.821724 L99.24039,58.68241 L99.08136,59.54045 L98.90738,60.395584 L98.718506,61.24755 L98.514786,62.096096 L98.296295,62.940952 L98.06308,63.781868 L97.81524,64.61858 L97.552826,65.45085 L97.275925,66.278404 L96.984634,67.101006 L96.679016,67.918396 L96.35919,68.73033 L96.02524,69.53656 L95.67728,70.33683 L95.315384,71.13091 L94.9397,71.91856 L94.55032,72.699524 L94.14738,73.47358 L93.73099,74.24048 L93.30127,75 L92.85837,75.75191 L92.402405,76.495964 L91.93353,77.23195 L91.45188,77.95964 L90.9576,78.67882 L90.45085,79.38927 L89.93178,80.09075 L89.40054,80.78307 L88.8573,81.46602 L88.30222,82.13937 L87.73548,82.80295 L87.15724,83.45653 L86.56769,84.099915 L85.96699,84.732925 L85.35534,85.35535 L84.732925,85.96699 L84.099915,86.56769 L83.45653,87.15724 L82.80295,87.73548 L82.13938,88.30222 L81.46602,88.8573 L80.78307,89.40054 L80.09075,89.93178 L79.38927,90.45085 L78.67882,90.9576 L77.95964,91.45188 L77.23195,91.93353 L76.495964,92.402405 L75.75191,92.85837 L75,93.30127 L74.24048,93.73099 L73.47358,94.14738 L72.699524,94.55032 L71.91856,94.9397 L71.13091,95.315384 L70.33683,95.67728 L69.53656,96.02524 L68.73033,96.35919 L67.918396,96.679016 L67.101006,96.984634 L66.278404,97.275925 L65.45085,97.552826 L64.61859,97.81523 L63.781868,98.06308 L62.940952,98.296295 L62.096096,98.514786 L61.24755,98.718506 L60.395584,98.90738 L59.54045,99.08136 L58.68241,99.24039 L57.821724,99.384415 L56.958656,99.5134 L56.093468,99.627304 L55.22642,99.7261 L54.357788,99.80974 L53.487823,99.878204 L52.6168,99.93147 L51.744976,99.96954 L50.87262,99.992386 L49.999996,100 L49.127384,99.992386 L48.255028,99.96954 L47.3832,99.93147 L46.512177,99.878204 L45.642212,99.80974 L44.773575,99.7261 L43.906536,99.627304 L43.041348,99.5134 L42.178276,99.384415 L41.31759,99.24039 L40.45955,99.08136 L39.60442,98.90738 L38.75245,98.718506 L37.903908,98.514786 L37.059048,98.296295 L36.218132,98.06308 L35.381413,97.81523 L34.549152,97.552826 L33.721596,97.27593 L32.898994,96.984634 L32.081604,96.67902 L31.269669,96.35919 L30.463442,96.02524 L29.663172,95.67728 L28.869083,95.315384 L28.081444,94.9397 L27.30048,94.55033 L26.52642,94.14738 L25.759523,93.73099 L24.999996,93.30127 L24.2481,92.85837 L23.504034,92.402405 L22.768047,91.93353 L22.040358,91.45188 L21.321178,90.957596 L20.61074,90.45085 L19.909245,89.93177 L19.216928,89.40054 L18.533987,88.8573 L17.860619,88.30222 L17.197052,87.73548 L16.543465,87.15724 L15.900085,86.56769 L15.267086,85.966995 L14.644661,85.35534 L14.033012,84.732925 L13.432316,84.099915 L12.842762,83.45653 L12.264519,82.80295 L11.697777,82.13938 L11.142708,81.46602 L10.599461,80.78307 L10.06823,80.09075 L9.549149,79.38926 L9.0424,78.67882 L8.548126,77.95965 L8.066471,77.23195 L7.597599,76.495964 L7.141636,75.7519 L6.6987305,75 L6.2690125,74.24048 L5.852623,73.47358 L5.4496765,72.69953 L5.060299,71.91856 L4.6846123,71.13092 L4.322727,70.33683 L3.9747581,69.53656 L3.640808,68.73033 L3.3209763,67.918396 L3.0153694,67.10101 L2.7240677,66.278404 L2.447174,65.45085 L2.1847649,64.61859 L1.9369164,63.781868 L1.7037086,62.940956 L1.4852142,62.096092 L1.281498,61.247555 L1.092617,60.39558 L0.91864014,59.54045 L0.75961304,58.682415 L0.6155815,57.821724 L0.48659897,56.95866 L0.3726921,56.093464 L0.2739029,55.226425 L0.19026566,54.357796 L0.121795654,53.487823 L0.06852341,52.616802 L0.030456543,51.744972 L0.0076141357,50.872623 L0,49.999996 L0.0076141357,49.12738 L0.030456543,48.25503 L0.06852341,47.3832 L0.121795654,46.51218 L0.19026566,45.64221 L0.2739029,44.77358 L0.3726921,43.90654 L0.48659897,43.041344 L0.6155815,42.17828 L0.75961304,41.31759 L0.91864014,40.459553 L1.0926208,39.60441 L1.281498,38.75245 L1.4852142,37.903908 L1.7037086,37.059048 L1.9369164,36.218136 L2.1847649,35.38141 L2.447174,34.549152 L2.7240677,33.721596 L3.0153694,32.898994 L3.3209763,32.081608 L3.640808,31.269669 L3.9747581,30.463446 L4.322727,29.663174 L4.6846123,28.869087 L5.060295,28.081448 L5.4496727,27.300472 L5.852619,26.526424 L6.2690163,25.759516 L6.6987267,25 L7.141632,24.248102 L7.597595,23.504036 L8.066471,22.768051 L8.548122,22.040352 L9.042397,21.32118 L9.549149,20.610744 L10.068222,19.909248 L10.599457,19.21693 L11.142704,18.533978 L11.697777,17.860622 L12.264523,17.197044 L12.842758,16.543468 L13.432308,15.900085 L14.033012,15.267078 L14.644657,14.644665 L15.267082,14.033009 L15.900082,13.432316 L16.543465,12.842762 L17.197048,12.264519 L17.860622,11.697773 L18.533981,11.1427 L19.216925,10.599464 L19.909243,10.06823 L20.610725,9.54916 L21.321184,9.042393 L22.040356,8.548119 L22.768044,8.066471 L23.50403,7.597599 L24.248085,7.1416397 L25.000004,6.6987267 L25.75952,6.2690125 L26.526419,5.852623 L27.300467,5.4496803 L28.081451,5.060295 L28.869091,4.6846085 L29.663168,4.322727 L30.46344,3.9747581 L31.26966,3.640812 L32.08161,3.3209763 L32.898994,3.0153694 L33.721592,2.7240715 L34.549145,2.447174 L35.381405,2.1847649 L36.21814,1.9369125 L37.05905,1.7037086 L37.903904,1.4852142 L38.75244,1.281498 L39.604404,1.0926208 L40.459557,0.91864014 L41.317593,0.7596092 L42.178276,0.6155815 L43.041336,0.48659897 L43.90652,0.3726921 L44.773582,0.2739029 L45.642216,0.19026566 L46.512173,0.12179947 L47.383194,0.06852341 L48.255013,0.030456543 L49.127384,0.0076141357 L50,0 L50.872616,0.0076141357 L51.744965,0.030456543 L52.616806,0.06852341 L53.487827,0.12179947 L54.357788,0.19026566 L55.226418,0.2739029 L56.093456,0.3726883 L56.958664,0.48659897 L57.821728,0.6155853 L58.682407,0.75961304 L59.540443,0.91864014 L60.395573,1.092617 L61.24756,1.2815018 L62.0961,1.4852142 L62.94095,1.7037086 L63.78186,1.9369125 L64.618576,2.1847572 L65.45086,2.447174 L66.27841,2.7240715 L67.101006,3.0153694 L67.91839,3.3209763 L68.730316,3.6408043 L69.53656,3.9747581 L70.33684,4.322727 L71.13091,4.6846085 L71.91855,5.060295 L72.69952,5.449669 L73.47359,5.852623 L74.24048,6.2690125 L75,6.6987267 L75.75189,7.1416283 L76.49597,7.597599 L77.23196,8.066471 L77.95964,8.548119 L78.67882,9.042393 L79.38925,9.549145 L80.09076,10.06823 L80.78308,10.599464 L81.46602,11.1427 L82.13937,11.697773 L82.80295,12.264515 L83.456535,12.842762 L84.09992,13.432316 L84.73292,14.033009 L85.35533,14.644657 L85.96698,15.267075 L86.56769,15.900085 L87.15724,16.543472 L87.73547,17.197044 L88.302216,17.860611 L88.857285,18.53397 L89.40054,19.21693 L89.93178,19.90925 L90.45085,20.610735 L90.957596,21.32117 L91.45187,22.040344 L91.93353,22.768053 L92.402405,23.504036 L92.85836,24.248093 L93.30126,24.99999 L93.73099,25.759527 L94.147385,26.526426 L94.55032,27.300474 L94.9397,28.081438 L95.315384,28.869078 L95.67728,29.663176 L96.02524,30.463448 L96.35919,31.269669 L96.679016,32.081596 L96.98463,32.89898 L97.27593,33.7216 L97.552826,34.549152 L97.81523,35.381413 L98.06308,36.218124 L98.29629,37.059036 L98.514786,37.90391 L98.718506,38.75245 L98.90738,39.604412 L99.08136,40.45954 L99.24039,41.317577 L99.384415,42.178284 L99.513405,43.041344 L99.627304,43.90653 L99.7261,44.773567 L99.80974,45.642197 L99.878204,46.51218 L99.93148,47.3832 L99.96954,48.25502 L99.992386,49.12737 L100,50.000008 z" fill="none" stroke="black" stroke-width="1"/>
<path d="M50,25 L49.996193,25.43631 L49.98477,25.872488 L49.965736,26.3084 L49.939102,26.743912 L49.90487,27.178894 L49.86305,27.613213 L49.813652,28.046734 L49.7567,28.479328 L49.692207,28.910862 L49.620193,29.341206 L49.54068,29.770226 L49.45369,30.197792 L49.359253,30.623775 L49.257393,31.048048 L49.148148,31.470476 L49.03154,31.890934 L48.90762,32.30929 L48.776413,32.725426 L48.637962,33.139202 L48.492317,33.550503 L48.339508,33.959198 L48.179596,34.365166 L48.01262,34.76828 L47.83864,35.168415 L47.657692,35.565456 L47.46985,35.95928 L47.27516,36.349762 L47.07369,36.73679 L46.865494,37.12024 L46.650635,37.5 L46.429184,37.875954 L46.201202,38.247982 L45.966766,38.615974 L45.72594,38.97982 L45.4788,39.33941 L45.225426,39.694633 L44.96589,40.045376 L44.70027,40.391537 L44.42865,40.73301 L44.15111,41.069687 L43.86774,41.401474 L43.57862,41.728264 L43.283844,42.049957 L42.983494,42.366463 L42.67767,42.677673 L42.366463,42.983494 L42.049957,43.283844 L41.728264,43.57862 L41.401474,43.86774 L41.06969,44.15111 L40.73301,44.42865 L40.391537,44.70027 L40.045376,44.96589 L39.694633,45.225426 L39.33941,45.4788 L38.97982,45.72594 L38.615974,45.966766 L38.247982,46.201202 L37.875954,46.429184 L37.5,46.650635 L37.12024,46.865494 L36.73679,47.07369 L36.349762,47.27516 L35.95928,47.46985 L35.565456,47.657692 L35.168415,47.83864 L34.76828,48.01262 L34.365166,48.179596 L33.959198,48.339508 L33.550503,48.492317 L33.139202,48.637962 L32.725426,48.776413 L32.309296,48.907616 L31.890934,49.03154 L31.470476,49.148148 L31.048048,49.257393 L30.623775,49.359253 L30.197792,49.45369 L29.770226,49.54068 L29.341206,49.620193 L28.910862,49.692207 L28.479328,49.7567 L28.046734,49.813652 L27.61321,49.86305 L27.178894,49.90487 L26.743912,49.939102 L26.3084,49.965736 L25.872488,49.98477 L25.43631,49.996193 L24.999998,50 L24.563692,49.996193 L24.127514,49.98477 L23.6916,49.965736 L23.256088,49.939102 L22.821106,49.90487 L22.386787,49.86305 L21.953268,49.813652 L21.520674,49.7567 L21.089138,49.692207 L20.658794,49.620193 L20.229774,49.54068 L19.80221,49.45369 L19.376225,49.359253 L18.951954,49.257393 L18.529524,49.148148 L18.109066,49.03154 L17.690706,48.907616 L17.274576,48.776413 L16.860798,48.637966 L16.449497,48.492317 L16.040802,48.33951 L15.634834,48.179596 L15.231721,48.01262 L14.831586,47.83864 L14.434542,47.657692 L14.040722,47.46985 L13.65024,47.275166 L13.26321,47.07369 L12.879762,46.865494 L12.499998,46.650635 L12.12405,46.429184 L11.752017,46.201202 L11.384024,45.966766 L11.020179,45.72594 L10.660589,45.478798 L10.30537,45.225426 L9.954622,44.965885 L9.608464,44.70027 L9.2669935,44.42865 L8.930309,44.15111 L8.598526,43.86774 L8.271732,43.57862 L7.9500427,43.283844 L7.633543,42.983498 L7.3223305,42.67767 L7.016506,42.366463 L6.716158,42.049957 L6.421381,41.728264 L6.1322594,41.401474 L5.8488884,41.06969 L5.571354,40.73301 L5.2997303,40.391537 L5.034115,40.045376 L4.7745743,39.69463 L4.5212,39.33941 L4.274063,38.979824 L4.0332355,38.615974 L3.7987995,38.247982 L3.570818,37.87595 L3.3493652,37.5 L3.1345062,37.12024 L2.9263115,36.73679 L2.7248383,36.349766 L2.5301495,35.95928 L2.3423061,35.56546 L2.1613636,35.168415 L1.9873791,34.76828 L1.820404,34.365166 L1.6604881,33.959198 L1.5076847,33.550507 L1.3620338,33.139202 L1.223587,32.725426 L1.0923824,32.309296 L0.9684582,31.890934 L0.8518543,31.470478 L0.7426071,31.048046 L0.640749,30.623777 L0.5463085,30.19779 L0.45932007,29.770226 L0.37980652,29.341208 L0.30779076,28.910862 L0.24329948,28.47933 L0.18634605,28.046732 L0.13695145,27.613213 L0.09513283,27.178898 L0.060897827,26.743912 L0.034261703,26.308401 L0.0152282715,25.872486 L0.0038070679,25.436312 L0,24.999998 L0.0038070679,24.56369 L0.0152282715,24.127516 L0.034261703,23.6916 L0.060897827,23.25609 L0.09513283,22.821104 L0.13695145,22.38679 L0.18634605,21.95327 L0.24329948,21.520672 L0.30779076,21.08914 L0.37980652,20.658794 L0.45932007,20.229776 L0.5463104,19.802204 L0.640749,19.376225 L0.7426071,18.951954 L0.8518543,18.529524 L0.9684582,18.109068 L1.0923824,17.690704 L1.223587,17.274576 L1.3620338,16.860798 L1.5076847,16.449497 L1.6604881,16.040804 L1.820404,15.634834 L1.9873791,15.231723 L2.1613636,14.831587 L2.3423061,14.434544 L2.5301476,14.040724 L2.7248363,13.650236 L2.9263096,13.263212 L3.1345081,12.879758 L3.3493633,12.5 L3.570816,12.124051 L3.7987976,11.752018 L4.0332355,11.384026 L4.274061,11.020176 L4.5211983,10.66059 L4.7745743,10.305372 L5.034111,9.954624 L5.2997284,9.608465 L5.571352,9.266989 L5.8488884,8.930311 L6.1322613,8.598522 L6.421379,8.271734 L6.716154,7.9500427 L7.016506,7.633539 L7.3223286,7.3223324 L7.633541,7.0165043 L7.950041,6.716158 L8.271732,6.421381 L8.598524,6.1322594 L8.930311,5.8488865 L9.266991,5.57135 L9.608462,5.299732 L9.954621,5.034115 L10.305363,4.77458 L10.660592,4.5211964 L11.020178,4.2740593 L11.384022,4.0332355 L11.752015,3.7987995 L12.1240425,3.5708199 L12.500002,3.3493633 L12.87976,3.1345062 L13.263209,2.9263115 L13.650233,2.7248402 L14.040726,2.5301476 L14.4345455,2.3423042 L14.831584,2.1613636 L15.23172,1.9873791 L15.63483,1.820406 L16.040806,1.6604881 L16.449497,1.5076847 L16.860796,1.3620358 L17.274572,1.223587 L17.690702,1.0923824 L18.10907,0.96845627 L18.529526,0.8518543 L18.951952,0.7426071 L19.37622,0.640749 L19.802202,0.5463104 L20.229778,0.45932007 L20.658796,0.3798046 L21.089138,0.30779076 L21.520668,0.24329948 L21.95326,0.18634605 L22.386791,0.13695145 L22.821108,0.09513283 L23.256086,0.060899734 L23.691597,0.034261703 L24.127506,0.0152282715 L24.563692,0.0038070679 L25,0 L25.436308,0.0038070679 L25.872482,0.0152282715 L26.308403,0.034261703 L26.743914,0.060899734 L27.178894,0.09513283 L27.613209,0.13695145 L28.046728,0.18634415 L28.479332,0.24329948 L28.910864,0.30779266 L29.341204,0.37980652 L29.770222,0.45932007 L30.197786,0.5463085 L30.62378,0.6407509 L31.04805,0.7426071 L31.470474,0.8518543 L31.89093,0.96845627 L32.309288,1.0923786 L32.72543,1.223587 L33.139206,1.3620358 L33.550503,1.5076847 L33.959194,1.6604881 L34.365158,1.8204021 L34.76828,1.9873791 L35.16842,2.1613636 L35.565456,2.3423042 L35.959274,2.5301476 L36.34976,2.7248344 L36.736794,2.9263115 L37.12024,3.1345062 L37.5,3.3493633 L37.875946,3.5708141 L38.247986,3.7987995 L38.61598,4.0332355 L38.97982,4.2740593 L39.33941,4.5211964 L39.694626,4.7745724 L40.04538,5.034115 L40.39154,5.299732 L40.73301,5.57135 L41.069687,5.8488865 L41.401474,6.1322575 L41.728268,6.421381 L42.04996,6.716158 L42.36646,7.0165043 L42.677666,7.3223286 L42.98349,7.6335373 L43.283844,7.9500427 L43.57862,8.271736 L43.867737,8.598522 L44.151108,8.9303055 L44.428642,9.266985 L44.70027,9.608465 L44.96589,9.954625 L45.225426,10.305367 L45.478798,10.660585 L45.725937,11.020172 L45.966766,11.384027 L46.201202,11.752018 L46.42918,12.124046 L46.65063,12.499995 L46.865494,12.879764 L47.073692,13.263213 L47.27516,13.650237 L47.46985,14.040719 L47.657692,14.434539 L47.83864,14.831588 L48.01262,15.231724 L48.179596,15.634834 L48.339508,16.040798 L48.492313,16.44949 L48.637966,16.8608 L48.776413,17.274576 L48.907616,17.690706 L49.03154,18.109062 L49.148144,18.529518 L49.257393,18.951956 L49.359253,19.376225 L49.45369,19.802206 L49.54068,20.22977 L49.620193,20.658789 L49.692207,21.089142 L49.756702,21.520672 L49.813652,21.953264 L49.86305,22.386784 L49.90487,22.821098 L49.939102,23.25609 L49.96574,23.6916 L49.98477,24.12751 L49.996193,24.563684 L50,25.000004 z" fill="none" stroke="black" stroke-width="1"/>
<path d="M25,12.5 L24.998096,12.718155 L24.992386,12.936244 L24.982868,13.1542 L24.969551,13.371956 L24.952435,13.589447 L24.931524,13.806606 L24.906826,14.023367 L24.87835,14.239664 L24.846104,14.455431 L24.810097,14.670603 L24.77034,14.885113 L24.726845,15.098896 L24.679626,15.311888 L24.628696,15.524024 L24.574074,15.735238 L24.51577,15.945467 L24.45381,16.154646 L24.388206,16.362713 L24.318981,16.569601 L24.246159,16.775251 L24.169754,16.979599 L24.089798,17.182583 L24.00631,17.38414 L23.91932,17.584208 L23.828846,17.782728 L23.734924,17.97964 L23.63758,18.174881 L23.536844,18.368395 L23.432747,18.56012 L23.325317,18.75 L23.214592,18.937977 L23.100601,19.123991 L22.983383,19.307987 L22.86297,19.48991 L22.7394,19.669704 L22.612713,19.847317 L22.482944,20.022688 L22.350136,20.195768 L22.214325,20.366505 L22.075556,20.534843 L21.93387,20.700737 L21.78931,20.864132 L21.641922,21.024979 L21.491747,21.183231 L21.338835,21.338837 L21.183231,21.491747 L21.024979,21.641922 L20.864132,21.78931 L20.700737,21.93387 L20.534845,22.075556 L20.366505,22.214325 L20.195768,22.350136 L20.022688,22.482944 L19.847317,22.612713 L19.669704,22.7394 L19.48991,22.86297 L19.307987,22.983383 L19.123991,23.100601 L18.937977,23.214592 L18.75,23.325317 L18.56012,23.432747 L18.368395,23.536844 L18.174881,23.63758 L17.97964,23.734924 L17.782728,23.828846 L17.584208,23.91932 L17.38414,24.00631 L17.182583,24.089798 L16.979599,24.169754 L16.775251,24.246159 L16.569601,24.318981 L16.362713,24.388206 L16.154648,24.453808 L15.945467,24.51577 L15.735238,24.574074 L15.524024,24.628696 L15.311888,24.679626 L15.098896,24.726845 L14.885113,24.77034 L14.670603,24.810097 L14.455431,24.846104 L14.239664,24.87835 L14.023367,24.906826 L13.806605,24.931524 L13.589447,24.952435 L13.371956,24.969551 L13.1542,24.982868 L12.936244,24.992386 L12.718155,24.998096 L12.499999,25 L12.281846,24.998096 L12.063757,24.992386 L11.8458,24.982868 L11.628044,24.969551 L11.410553,24.952435 L11.193394,24.931524 L10.976634,24.906826 L10.760337,24.87835 L10.544569,24.846104 L10.329397,24.810097 L10.114887,24.77034 L9.901105,24.726845 L9.688112,24.679626 L9.475977,24.628696 L9.264762,24.574074 L9.054533,24.51577 L8.845353,24.453808 L8.637288,24.388206 L8.430399,24.318983 L8.224749,24.246159 L8.020401,24.169756 L7.817417,24.089798 L7.6158605,24.00631 L7.415793,23.91932 L7.217271,23.828846 L7.020361,23.734924 L6.82512,23.637583 L6.631605,23.536844 L6.439881,23.432747 L6.249999,23.325317 L6.062025,23.214592 L5.8760085,23.100601 L5.692012,22.983383 L5.5100894,22.86297 L5.3302946,22.739399 L5.152685,22.612713 L4.977311,22.482943 L4.804232,22.350136 L4.6334968,22.214325 L4.4651546,22.075556 L4.299263,21.93387 L4.135866,21.78931 L3.9750214,21.641922 L3.8167715,21.491749 L3.6611652,21.338835 L3.508253,21.183231 L3.358079,21.024979 L3.2106905,20.864132 L3.0661297,20.700737 L2.9244442,20.534845 L2.785677,20.366505 L2.6498652,20.195768 L2.5170574,20.022688 L2.3872871,19.847315 L2.2606,19.669704 L2.1370316,19.489912 L2.0166178,19.307987 L1.8993998,19.123991 L1.785409,18.937975 L1.6746826,18.75 L1.5672531,18.56012 L1.4631557,18.368395 L1.3624191,18.174883 L1.2650747,17.97964 L1.1711531,17.78273 L1.0806818,17.584208 L0.99368954,17.38414 L0.910202,17.182583 L0.83024406,16.979599 L0.75384235,16.775253 L0.6810169,16.569601 L0.6117935,16.362713 L0.5461912,16.154648 L0.4842291,15.945467 L0.42592716,15.735239 L0.37130356,15.524023 L0.3203745,15.311889 L0.27315426,15.098895 L0.22966003,14.885113 L0.18990326,14.670604 L0.15389538,14.455431 L0.12164974,14.239665 L0.09317303,14.023366 L0.06847572,13.806606 L0.047566414,13.589449 L0.030448914,13.371956 L0.017130852,13.154201 L0.0076141357,12.936243 L0.0019035339,12.718156 L0,12.499999 L0.0019035339,12.281845 L0.0076141357,12.063758 L0.017130852,11.8458 L0.030448914,11.628045 L0.047566414,11.410552 L0.06847572,11.193395 L0.09317303,10.976635 L0.12164974,10.760336 L0.15389538,10.54457 L0.18990326,10.329397 L0.22966003,10.114888 L0.2731552,9.901102 L0.3203745,9.688112 L0.37130356,9.475977 L0.42592716,9.264762 L0.4842291,9.054534 L0.5461912,8.845352 L0.6117935,8.637288 L0.6810169,8.430399 L0.75384235,8.224749 L0.83024406,8.020402 L0.910202,7.817417 L0.99368954,7.6158614 L1.0806818,7.4157934 L1.1711531,7.217272 L1.2650738,7.020362 L1.3624182,6.825118 L1.4631548,6.631606 L1.5672541,6.439879 L1.6746817,6.25 L1.785408,6.0620255 L1.8993988,5.876009 L2.0166178,5.692013 L2.1370306,5.510088 L2.2605991,5.330295 L2.3872871,5.152686 L2.5170555,4.977312 L2.6498642,4.8042326 L2.785676,4.6334944 L2.9244442,4.4651556 L3.0661306,4.299261 L3.2106895,4.135867 L3.358077,3.9750214 L3.508253,3.8167696 L3.6611643,3.6611662 L3.8167706,3.5082521 L3.9750204,3.358079 L4.135866,3.2106905 L4.299262,3.0661297 L4.4651556,2.9244432 L4.6334953,2.785675 L4.804231,2.649866 L4.9773107,2.5170574 L5.1526814,2.38729 L5.330296,2.2605982 L5.510089,2.1370296 L5.692011,2.0166178 L5.8760076,1.8993998 L6.0620213,1.7854099 L6.250001,1.6746817 L6.43988,1.5672531 L6.6316047,1.4631557 L6.8251166,1.3624201 L7.020363,1.2650738 L7.2172728,1.1711521 L7.415792,1.0806818 L7.61586,0.99368954 L7.817415,0.910203 L8.020403,0.83024406 L8.224749,0.75384235 L8.430398,0.6810179 L8.637286,0.6117935 L8.845351,0.5461912 L9.054535,0.48422813 L9.264763,0.42592716 L9.475976,0.37130356 L9.68811,0.3203745 L9.901101,0.2731552 L10.114889,0.22966003 L10.329398,0.1899023 L10.544569,0.15389538 L10.760334,0.12164974 L10.97663,0.09317303 L11.193396,0.06847572 L11.410554,0.047566414 L11.628043,0.030449867 L11.8457985,0.017130852 L12.063753,0.0076141357 L12.281846,0.0019035339 L12.5,0 L12.718154,0.0019035339 L12.936241,0.0076141357 L13.1542015,0.017130852 L13.371957,0.030449867 L13.589447,0.047566414 L13.806604,0.06847572 L14.023364,0.09317207 L14.239666,0.12164974 L14.455432,0.15389633 L14.670602,0.18990326 L14.885111,0.22966003 L15.098893,0.27315426 L15.31189,0.32037544 L15.524025,0.37130356 L15.735237,0.42592716 L15.945465,0.48422813 L16.154644,0.5461893 L16.362715,0.6117935 L16.569603,0.6810179 L16.775251,0.75384235 L16.979597,0.83024406 L17.182579,0.9102011 L17.38414,0.99368954 L17.58421,1.0806818 L17.782728,1.1711521 L17.979637,1.2650738 L18.17488,1.3624172 L18.368397,1.4631557 L18.56012,1.5672531 L18.75,1.6746817 L18.937973,1.7854071 L19.123993,1.8993998 L19.30799,2.0166178 L19.48991,2.1370296 L19.669704,2.2605982 L19.847313,2.3872862 L20.02269,2.5170574 L20.19577,2.649866 L20.366505,2.785675 L20.534843,2.9244432 L20.700737,3.0661287 L20.864134,3.2106905 L21.02498,3.358079 L21.18323,3.5082521 L21.338833,3.6611643 L21.491745,3.8167686 L21.641922,3.9750214 L21.78931,4.135868 L21.933868,4.299261 L22.075554,4.4651527 L22.214321,4.6334925 L22.350136,4.8042326 L22.482944,4.9773126 L22.612713,5.1526837 L22.739399,5.3302927 L22.862968,5.510086 L22.983383,5.6920133 L23.100601,5.876009 L23.21459,6.062023 L23.325315,6.2499976 L23.432747,6.439882 L23.536846,6.6316066 L23.63758,6.8251185 L23.734924,7.0203595 L23.828846,7.2172694 L23.91932,7.415794 L24.00631,7.615862 L24.089798,7.817417 L24.169754,8.020399 L24.246157,8.224745 L24.318983,8.4304 L24.388206,8.637288 L24.453808,8.845353 L24.51577,9.054531 L24.574072,9.264759 L24.628696,9.475978 L24.679626,9.688112 L24.726845,9.901103 L24.77034,10.114885 L24.810097,10.329394 L24.846104,10.544571 L24.878351,10.760336 L24.906826,10.976632 L24.931524,11.193392 L24.952435,11.410549 L24.969551,11.628045 L24.98287,11.8458 L24.992386,12.063755 L24.998096,12.281842 L25,12.500002 z" fill="none" stroke="black" stroke-width="1"/>
<path d="M12.5,6.25 L12.499048,6.3590775 L12.496193,6.468122 L12.491434,6.5771 L12.484776,6.685978 L12.476217,6.7947235 L12.465762,6.903303 L12.453413,7.0116835 L12.439175,7.119832 L12.423052,7.2277155 L12.405048,7.3353014 L12.38517,7.4425564 L12.363422,7.549448 L12.339813,7.655944 L12.314348,7.762012 L12.287037,7.867619 L12.257885,7.9727335 L12.226905,8.077323 L12.194103,8.181356 L12.159491,8.284801 L12.123079,8.387626 L12.084877,8.4897995 L12.044899,8.591291 L12.003155,8.69207 L11.95966,8.792104 L11.914423,8.891364 L11.867462,8.98982 L11.81879,9.0874405 L11.768422,9.184197 L11.716373,9.28006 L11.662659,9.375 L11.607296,9.468988 L11.550301,9.5619955 L11.491692,9.653994 L11.431485,9.744955 L11.3697,9.834852 L11.306356,9.923658 L11.241472,10.011344 L11.175068,10.097884 L11.107162,10.183252 L11.037778,10.267422 L10.966935,10.3503685 L10.894655,10.432066 L10.820961,10.512489 L10.745873,10.591616 L10.669417,10.669418 L10.591616,10.745873 L10.512489,10.820961 L10.432066,10.894655 L10.3503685,10.966935 L10.267423,11.037778 L10.183252,11.107162 L10.097884,11.175068 L10.011344,11.241472 L9.923658,11.306356 L9.834852,11.3697 L9.744955,11.431485 L9.653994,11.491692 L9.5619955,11.550301 L9.468988,11.607296 L9.375,11.662659 L9.28006,11.716373 L9.184197,11.768422 L9.0874405,11.81879 L8.98982,11.867462 L8.891364,11.914423 L8.792104,11.95966 L8.69207,12.003155 L8.591291,12.044899 L8.4897995,12.084877 L8.387626,12.123079 L8.284801,12.159491 L8.181356,12.194103 L8.077324,12.226904 L7.9727335,12.257885 L7.867619,12.287037 L7.762012,12.314348 L7.655944,12.339813 L7.549448,12.363422 L7.4425564,12.38517 L7.3353014,12.405048 L7.2277155,12.423052 L7.119832,12.439175 L7.0116835,12.453413 L6.9033027,12.465762 L6.7947235,12.476217 L6.685978,12.484776 L6.5771,12.491434 L6.468122,12.496193 L6.3590775,12.499048 L6.2499995,12.5 L6.140923,12.499048 L6.0318785,12.496193 L5.9229,12.491434 L5.814022,12.484776 L5.7052765,12.476217 L5.596697,12.465762 L5.488317,12.453413 L5.3801684,12.439175 L5.2722845,12.423052 L5.1646986,12.405048 L5.0574436,12.38517 L4.9505525,12.363422 L4.844056,12.339813 L4.7379885,12.314348 L4.632381,12.287037 L4.5272665,12.257885 L4.4226766,12.226904 L4.318644,12.194103 L4.2151995,12.159492 L4.1123743,12.123079 L4.0102005,12.084878 L3.9087086,12.044899 L3.8079302,12.003155 L3.7078965,11.95966 L3.6086354,11.914423 L3.5101805,11.867462 L3.41256,11.818791 L3.3158026,11.768422 L3.2199404,11.716373 L3.1249995,11.662659 L3.0310125,11.607296 L2.9380043,11.550301 L2.846006,11.491692 L2.7550447,11.431485 L2.6651473,11.3696995 L2.5763426,11.306356 L2.4886556,11.241471 L2.402116,11.175068 L2.3167484,11.107162 L2.2325773,11.037778 L2.1496315,10.966935 L2.067933,10.894655 L1.9875107,10.820961 L1.9083858,10.745874 L1.8305826,10.669417 L1.7541265,10.591616 L1.6790395,10.512489 L1.6053452,10.432066 L1.5330648,10.3503685 L1.4622221,10.267423 L1.3928385,10.183252 L1.3249326,10.097884 L1.2585287,10.011344 L1.1936436,9.923657 L1.1303,9.834852 L1.0685158,9.744956 L1.0083089,9.653994 L0.9496999,9.5619955 L0.8927045,9.468987 L0.8373413,9.375 L0.78362656,9.28006 L0.7315779,9.184197 L0.68120956,9.087441 L0.63253736,8.98982 L0.58557653,8.891365 L0.5403409,8.792104 L0.49684477,8.69207 L0.455101,8.591291 L0.41512203,8.4897995 L0.37692118,8.387627 L0.34050846,8.284801 L0.30589676,8.181356 L0.2730956,8.077324 L0.24211454,7.9727335 L0.21296358,7.8676195 L0.18565178,7.7620115 L0.16018724,7.6559443 L0.13657713,7.5494475 L0.11483002,7.4425564 L0.09495163,7.335302 L0.07694769,7.2277155 L0.06082487,7.1198325 L0.046586514,7.011683 L0.03423786,6.903303 L0.023783207,6.7947245 L0.015224457,6.685978 L0.008565426,6.5771003 L0.0038070679,6.4681215 L0.00095176697,6.359078 L0,6.2499995 L0.00095176697,6.1409225 L0.0038070679,6.031879 L0.008565426,5.9229 L0.015224457,5.8140225 L0.023783207,5.705276 L0.03423786,5.5966973 L0.046586514,5.4883175 L0.06082487,5.380168 L0.07694769,5.272285 L0.09495163,5.1646986 L0.11483002,5.057444 L0.1365776,4.950551 L0.16018724,4.844056 L0.18565178,4.7379885 L0.21296358,4.632381 L0.24211454,4.527267 L0.2730956,4.422676 L0.30589676,4.318644 L0.34050846,4.2151995 L0.37692118,4.1123743 L0.41512203,4.010201 L0.455101,3.9087086 L0.49684477,3.8079307 L0.5403409,3.7078967 L0.58557653,3.608636 L0.6325369,3.510181 L0.6812091,3.412559 L0.7315774,3.315803 L0.78362703,3.2199395 L0.83734083,3.125 L0.892704,3.0310128 L0.9496994,2.9380045 L1.0083089,2.8460064 L1.0685153,2.755044 L1.1302996,2.6651475 L1.1936436,2.576343 L1.2585278,2.488656 L1.3249321,2.4021163 L1.392838,2.3167472 L1.4622221,2.2325778 L1.5330653,2.1496305 L1.6053448,2.0679336 L1.6790385,1.9875107 L1.7541265,1.9083848 L1.8305821,1.8305831 L1.9083853,1.7541261 L1.9875102,1.6790395 L2.067933,1.6053452 L2.149631,1.5330648 L2.2325778,1.4622216 L2.3167477,1.3928375 L2.4021156,1.324933 L2.4886553,1.2585287 L2.5763407,1.193645 L2.665148,1.1302991 L2.7550445,1.0685148 L2.8460054,1.0083089 L2.9380038,0.9496999 L3.0310106,0.89270496 L3.1250005,0.83734083 L3.21994,0.78362656 L3.3158023,0.7315779 L3.4125583,0.68121004 L3.5101814,0.6325369 L3.6086364,0.58557606 L3.707896,0.5403409 L3.80793,0.49684477 L3.9087076,0.4551015 L4.0102015,0.41512203 L4.1123743,0.37692118 L4.215199,0.34050894 L4.318643,0.30589676 L4.4226756,0.2730956 L4.5272675,0.24211407 L4.6323814,0.21296358 L4.737988,0.18565178 L4.844055,0.16018724 L4.9505506,0.1365776 L5.0574446,0.11483002 L5.164699,0.09495115 L5.2722845,0.07694769 L5.380167,0.06082487 L5.488315,0.046586514 L5.596698,0.03423786 L5.705277,0.023783207 L5.8140216,0.015224934 L5.9228992,0.008565426 L6.0318766,0.0038070679 L6.140923,0.00095176697 L6.25,0 L6.359077,0.00095176697 L6.4681206,0.0038070679 L6.5771008,0.008565426 L6.6859784,0.015224934 L6.7947235,0.023783207 L6.903302,0.03423786 L7.011682,0.046586037 L7.119833,0.06082487 L7.227716,0.076948166 L7.335301,0.09495163 L7.4425554,0.11483002 L7.5494466,0.13657713 L7.655945,0.16018772 L7.7620125,0.18565178 L7.8676186,0.21296358 L7.9727325,0.24211407 L8.077322,0.27309465 L8.181357,0.30589676 L8.2848015,0.34050894 L8.387626,0.37692118 L8.489799,0.41512203 L8.5912895,0.45510054 L8.69207,0.49684477 L8.792105,0.5403409 L8.891364,0.58557606 L8.989819,0.6325369 L9.08744,0.6812086 L9.184198,0.7315779 L9.28006,0.78362656 L9.375,0.83734083 L9.4689865,0.89270353 L9.561996,0.9496999 L9.653995,1.0083089 L9.744955,1.0685148 L9.834852,1.1302991 L9.923656,1.1936431 L10.011345,1.2585287 L10.097885,1.324933 L10.183252,1.3928375 L10.267422,1.4622216 L10.3503685,1.5330644 L10.432067,1.6053452 L10.51249,1.6790395 L10.591615,1.7541261 L10.669416,1.8305821 L10.7458725,1.9083843 L10.820961,1.9875107 L10.894655,2.067934 L10.966934,2.1496305 L11.037777,2.2325764 L11.107161,2.3167462 L11.175068,2.4021163 L11.241472,2.4886563 L11.306356,2.5763419 L11.3696995,2.6651464 L11.431484,2.755043 L11.491692,2.8460066 L11.550301,2.9380045 L11.607295,3.0310116 L11.662658,3.1249988 L11.716373,3.219941 L11.768423,3.3158033 L11.81879,3.4125593 L11.867462,3.5101798 L11.914423,3.6086347 L11.95966,3.707897 L12.003155,3.807931 L12.044899,3.9087086 L12.084877,4.0101995 L12.123078,4.1123724 L12.159492,4.2152 L12.194103,4.318644 L12.226904,4.4226766 L12.257885,4.5272655 L12.287036,4.6323795 L12.314348,4.737989 L12.339813,4.844056 L12.363422,4.9505515 L12.38517,5.0574427 L12.405048,5.164697 L12.423052,5.2722855 L12.439176,5.380168 L12.453413,5.488316 L12.465762,5.596696 L12.476217,5.7052746 L12.484776,5.8140225 L12.491435,5.9229 L12.496193,6.0318775 L12.499048,6.140921 L12.5,6.250001 z" fill="none" stroke="black" stroke-width="1"/>
<path d="M6.25,3.125 L6.249524,3.1795387 L6.2480965,3.234061 L6.245717,3.28855 L6.242388,3.342989 L6.2381086,3.3973618 L6.232881,3.4516516 L6.2267065,3.5058417 L6.2195873,3.559916 L6.211526,3.6138577 L6.202524,3.6676507 L6.192585,3.7212782 L6.181711,3.774724 L6.1699066,3.827972 L6.157174,3.881006 L6.1435184,3.9338095 L6.1289425,3.9863667 L6.1134524,4.0386615 L6.0970516,4.090678 L6.0797453,4.1424003 L6.0615396,4.193813 L6.0424385,4.2448997 L6.0224495,4.2956457 L6.0015774,4.346035 L5.97983,4.396052 L5.9572115,4.445682 L5.933731,4.49491 L5.909395,4.5437202 L5.884211,4.5920987 L5.8581867,4.64003 L5.8313293,4.6875 L5.803648,4.734494 L5.7751503,4.7809978 L5.745846,4.826997 L5.7157426,4.8724775 L5.68485,4.917426 L5.653178,4.961829 L5.620736,5.005672 L5.587534,5.048942 L5.553581,5.091626 L5.518889,5.133711 L5.4834676,5.1751842 L5.4473276,5.216033 L5.4104805,5.2562447 L5.3729367,5.295808 L5.3347087,5.334709 L5.295808,5.3729367 L5.2562447,5.4104805 L5.216033,5.4473276 L5.1751842,5.4834676 L5.1337113,5.518889 L5.091626,5.553581 L5.048942,5.587534 L5.005672,5.620736 L4.961829,5.653178 L4.917426,5.68485 L4.8724775,5.7157426 L4.826997,5.745846 L4.7809978,5.7751503 L4.734494,5.803648 L4.6875,5.8313293 L4.64003,5.8581867 L4.5920987,5.884211 L4.5437202,5.909395 L4.49491,5.933731 L4.445682,5.9572115 L4.396052,5.97983 L4.346035,6.0015774 L4.2956457,6.0224495 L4.2448997,6.0424385 L4.193813,6.0615396 L4.1424003,6.0797453 L4.090678,6.0970516 L4.038662,6.113452 L3.9863667,6.1289425 L3.9338095,6.1435184 L3.881006,6.157174 L3.827972,6.1699066 L3.774724,6.181711 L3.7212782,6.192585 L3.6676507,6.202524 L3.6138577,6.211526 L3.559916,6.2195873 L3.5058417,6.2267065 L3.4516513,6.232881 L3.3973618,6.2381086 L3.342989,6.242388 L3.28855,6.245717 L3.234061,6.2480965 L3.1795387,6.249524 L3.1249998,6.25 L3.0704615,6.249524 L3.0159392,6.2480965 L2.96145,6.245717 L2.907011,6.242388 L2.8526382,6.2381086 L2.7983484,6.232881 L2.7441585,6.2267065 L2.6900842,6.2195873 L2.6361423,6.211526 L2.5823493,6.202524 L2.5287218,6.192585 L2.4752762,6.181711 L2.422028,6.1699066 L2.3689942,6.157174 L2.3161905,6.1435184 L2.2636333,6.1289425 L2.2113383,6.113452 L2.159322,6.0970516 L2.1075997,6.079746 L2.0561872,6.0615396 L2.0051003,6.042439 L1.9543543,6.0224495 L1.9039651,6.0015774 L1.8539482,5.97983 L1.8043177,5.9572115 L1.7550902,5.933731 L1.70628,5.9093957 L1.6579013,5.884211 L1.6099702,5.8581867 L1.5624998,5.8313293 L1.5155063,5.803648 L1.4690021,5.7751503 L1.423003,5.745846 L1.3775223,5.7157426 L1.3325737,5.6848497 L1.2881713,5.653178 L1.2443278,5.6207356 L1.201058,5.587534 L1.1583742,5.553581 L1.1162887,5.518889 L1.0748158,5.4834676 L1.0339665,5.4473276 L0.99375534,5.4104805 L0.9541929,5.372937 L0.9152913,5.3347087 L0.8770633,5.295808 L0.83951974,5.2562447 L0.8026726,5.216033 L0.7665324,5.1751842 L0.73111105,5.1337113 L0.69641924,5.091626 L0.6624663,5.048942 L0.62926435,5.005672 L0.5968218,4.9618287 L0.56515,4.917426 L0.5342579,4.872478 L0.50415444,4.826997 L0.47484994,4.7809978 L0.44635224,4.7344937 L0.41867065,4.6875 L0.39181328,4.64003 L0.36578894,4.5920987 L0.34060478,4.5437207 L0.31626868,4.49491 L0.29278827,4.4456825 L0.27017045,4.396052 L0.24842238,4.346035 L0.2275505,4.2956457 L0.20756102,4.2448997 L0.18846059,4.1938133 L0.17025423,4.1424003 L0.15294838,4.090678 L0.1365478,4.038662 L0.12105727,3.9863667 L0.10648179,3.9338098 L0.09282589,3.8810058 L0.08009362,3.8279722 L0.068288565,3.7747238 L0.05741501,3.7212782 L0.047475815,3.667651 L0.038473845,3.6138577 L0.030412436,3.5599163 L0.023293257,3.5058415 L0.01711893,3.4516516 L0.0118916035,3.3973622 L0.0076122284,3.342989 L0.004282713,3.2885501 L0.0019035339,3.2340608 L0.00047588348,3.179539 L0,3.1249998 L0.00047588348,3.0704613 L0.0019035339,3.0159395 L0.004282713,2.96145 L0.0076122284,2.9070113 L0.0118916035,2.852638 L0.01711893,2.7983487 L0.023293257,2.7441587 L0.030412436,2.690084 L0.038473845,2.6361425 L0.047475815,2.5823493 L0.05741501,2.528722 L0.0682888,2.4752755 L0.08009362,2.422028 L0.09282589,2.3689942 L0.10648179,2.3161905 L0.12105727,2.2636335 L0.1365478,2.211338 L0.15294838,2.159322 L0.17025423,2.1075997 L0.18846059,2.0561872 L0.20756102,2.0051005 L0.2275505,1.9543543 L0.24842238,1.9039654 L0.27017045,1.8539484 L0.29278827,1.804318 L0.31626844,1.7550905 L0.34060454,1.7062795 L0.3657887,1.6579015 L0.39181352,1.6099697 L0.41867042,1.5625 L0.446352,1.5155064 L0.4748497,1.4690022 L0.50415444,1.4230032 L0.53425765,1.377522 L0.5651498,1.3325738 L0.5968218,1.2881715 L0.6292639,1.244328 L0.66246605,1.2010581 L0.696419,1.1583736 L0.73111105,1.1162889 L0.76653266,1.0748153 L0.8026724,1.0339668 L0.83951926,0.99375534 L0.8770633,0.9541924 L0.9152911,0.91529155 L0.95419264,0.87706304 L0.9937551,0.83951974 L1.0339665,0.8026726 L1.0748155,0.7665324 L1.1162889,0.7311108 L1.1583738,0.69641876 L1.2010578,0.6624665 L1.2443277,0.62926435 L1.2881703,0.5968225 L1.332574,0.56514955 L1.3775222,0.5342574 L1.4230027,0.50415444 L1.4690019,0.47484994 L1.5155053,0.44635248 L1.5625002,0.41867042 L1.60997,0.39181328 L1.6579012,0.36578894 L1.7062792,0.34060502 L1.7550907,0.31626844 L1.8043182,0.29278803 L1.853948,0.27017045 L1.903965,0.24842238 L1.9543538,0.22755075 L2.0051007,0.20756102 L2.0561872,0.18846059 L2.1075995,0.17025447 L2.1593215,0.15294838 L2.2113378,0.1365478 L2.2636337,0.12105703 L2.3161907,0.10648179 L2.368994,0.09282589 L2.4220276,0.08009362 L2.4752753,0.0682888 L2.5287223,0.05741501 L2.5823495,0.047475576 L2.6361423,0.038473845 L2.6900835,0.030412436 L2.7441576,0.023293257 L2.798349,0.01711893 L2.8526385,0.0118916035 L2.9070108,0.007612467 L2.9614496,0.004282713 L3.0159383,0.0019035339 L3.0704615,0.00047588348 L3.125,0 L3.1795385,0.00047588348 L3.2340603,0.0019035339 L3.2885504,0.004282713 L3.3429892,0.007612467 L3.3973618,0.0118916035 L3.451651,0.01711893 L3.505841,0.023293018 L3.5599165,0.030412436 L3.613858,0.038474083 L3.6676505,0.047475815 L3.7212777,0.05741501 L3.7747233,0.068288565 L3.8279724,0.08009386 L3.8810062,0.09282589 L3.9338093,0.10648179 L3.9863663,0.12105703 L4.038661,0.13654733 L4.0906787,0.15294838 L4.1424007,0.17025447 L4.193813,0.18846059 L4.2448993,0.20756102 L4.2956448,0.22755027 L4.346035,0.24842238 L4.3960524,0.27017045 L4.445682,0.29278803 L4.4949093,0.31626844 L4.54372,0.3406043 L4.592099,0.36578894 L4.64003,0.39181328 L4.6875,0.41867042 L4.7344933,0.44635177 L4.780998,0.47484994 L4.8269973,0.50415444 L4.8724775,0.5342574 L4.917426,0.56514955 L4.961828,0.59682155 L5.0056725,0.62926435 L5.0489426,0.6624665 L5.091626,0.69641876 L5.133711,0.7311108 L5.1751842,0.7665322 L5.2160335,0.8026726 L5.256245,0.83951974 L5.2958074,0.87706304 L5.334708,0.9152911 L5.3729362,0.95419216 L5.4104805,0.99375534 L5.4473276,1.033967 L5.483467,1.0748153 L5.5188885,1.1162882 L5.5535803,1.1583731 L5.587534,1.2010581 L5.620736,1.2443281 L5.653178,1.2881709 L5.6848497,1.3325732 L5.715742,1.3775215 L5.745846,1.4230033 L5.7751503,1.4690022 L5.8036475,1.5155058 L5.831329,1.5624994 L5.8581867,1.6099705 L5.8842115,1.6579016 L5.909395,1.7062796 L5.933731,1.7550899 L5.9572115,1.8043174 L5.97983,1.8539485 L6.0015774,1.9039655 L6.0224495,1.9543543 L6.0424385,2.0050998 L6.061539,2.0561862 L6.079746,2.1076 L6.0970516,2.159322 L6.113452,2.2113383 L6.1289425,2.2636328 L6.143518,2.3161898 L6.157174,2.3689945 L6.1699066,2.422028 L6.181711,2.4752758 L6.192585,2.5287213 L6.202524,2.5823486 L6.211526,2.6361427 L6.219588,2.690084 L6.2267065,2.744158 L6.232881,2.798348 L6.2381086,2.8526373 L6.242388,2.9070113 L6.2457175,2.96145 L6.2480965,3.0159388 L6.249524,3.0704606 L6.25,3.1250005 z" fill="none" stroke="black" stroke-width="1"/>
<path d="M3.125,1.5625 L3.124762,1.5897694 L3.1240482,1.6170305 L3.1228585,1.644275 L3.121194,1.6714945 L3.1190543,1.6986809 L3.1164405,1.7258258 L3.1133533,1.7529209 L3.1097937,1.779958 L3.105763,1.8069289 L3.101262,1.8338253 L3.0962925,1.8606391 L3.0908556,1.887362 L3.0849533,1.913986 L3.078587,1.940503 L3.0717592,1.9669048 L3.0644712,1.9931834 L3.0567262,2.0193307 L3.0485258,2.045339 L3.0398726,2.0712001 L3.0307698,2.0969064 L3.0212193,2.1224499 L3.0112247,2.1478229 L3.0007887,2.1730175 L2.989915,2.198026 L2.9786057,2.222841 L2.9668655,2.247455 L2.9546976,2.2718601 L2.9421055,2.2960494 L2.9290934,2.320015 L2.9156647,2.34375 L2.901824,2.367247 L2.8875751,2.3904989 L2.872923,2.4134984 L2.8578713,2.4362388 L2.842425,2.458713 L2.826589,2.4809146 L2.810368,2.502836 L2.793767,2.524471 L2.7767906,2.545813 L2.7594445,2.5668554 L2.7417338,2.5875921 L2.7236638,2.6080165 L2.7052402,2.6281223 L2.6864684,2.647904 L2.6673543,2.6673546 L2.647904,2.6864684 L2.6281223,2.7052402 L2.6080165,2.7236638 L2.5875921,2.7417338 L2.5668557,2.7594445 L2.545813,2.7767906 L2.524471,2.793767 L2.502836,2.810368 L2.4809146,2.826589 L2.458713,2.842425 L2.4362388,2.8578713 L2.4134984,2.872923 L2.3904989,2.8875751 L2.367247,2.901824 L2.34375,2.9156647 L2.320015,2.9290934 L2.2960494,2.9421055 L2.2718601,2.9546976 L2.247455,2.9668655 L2.222841,2.9786057 L2.198026,2.989915 L2.1730175,3.0007887 L2.1478229,3.0112247 L2.1224499,3.0212193 L2.0969064,3.0307698 L2.0712001,3.0398726 L2.045339,3.0485258 L2.019331,3.056726 L1.9931834,3.0644712 L1.9669048,3.0717592 L1.940503,3.078587 L1.913986,3.0849533 L1.887362,3.0908556 L1.8606391,3.0962925 L1.8338253,3.101262 L1.8069289,3.105763 L1.779958,3.1097937 L1.7529209,3.1133533 L1.7258257,3.1164405 L1.6986809,3.1190543 L1.6714945,3.121194 L1.644275,3.1228585 L1.6170305,3.1240482 L1.5897694,3.124762 L1.5624999,3.125 L1.5352308,3.124762 L1.5079696,3.1240482 L1.480725,3.1228585 L1.4535055,3.121194 L1.4263191,3.1190543 L1.3991742,3.1164405 L1.3720793,3.1133533 L1.3450421,3.1097937 L1.3180711,3.105763 L1.2911747,3.101262 L1.2643609,3.0962925 L1.2376381,3.0908556 L1.211014,3.0849533 L1.1844971,3.078587 L1.1580952,3.0717592 L1.1318166,3.0644712 L1.1056691,3.056726 L1.079661,3.0485258 L1.0537999,3.039873 L1.0280936,3.0307698 L1.0025501,3.0212195 L0.97717714,3.0112247 L0.95198256,3.0007887 L0.9269741,2.989915 L0.90215886,2.9786057 L0.8775451,2.9668655 L0.85314,2.9546978 L0.82895064,2.9421055 L0.8049851,2.9290934 L0.7812499,2.9156647 L0.75775313,2.901824 L0.73450106,2.8875751 L0.7115015,2.872923 L0.6887612,2.8578713 L0.6662868,2.8424249 L0.64408565,2.826589 L0.6221639,2.8103678 L0.600529,2.793767 L0.5791871,2.7767906 L0.55814433,2.7594445 L0.5374079,2.7417338 L0.5169833,2.7236638 L0.49687767,2.7052402 L0.47709644,2.6864686 L0.45764565,2.6673543 L0.43853164,2.647904 L0.41975987,2.6281223 L0.4013363,2.6080165 L0.3832662,2.5875921 L0.36555552,2.5668557 L0.34820962,2.545813 L0.33123314,2.524471 L0.31463218,2.502836 L0.2984109,2.4809144 L0.282575,2.458713 L0.26712894,2.436239 L0.25207722,2.4134984 L0.23742497,2.3904989 L0.22317612,2.3672469 L0.20933533,2.34375 L0.19590664,2.320015 L0.18289447,2.2960494 L0.17030239,2.2718604 L0.15813434,2.247455 L0.14639413,2.2228413 L0.13508523,2.198026 L0.12421119,2.1730175 L0.11377525,2.1478229 L0.10378051,2.1224499 L0.094230294,2.0969067 L0.085127115,2.0712001 L0.07647419,2.045339 L0.0682739,2.019331 L0.060528636,1.9931834 L0.053240895,1.9669049 L0.046412945,1.9405029 L0.04004681,1.9139861 L0.034144282,1.8873619 L0.028707504,1.8606391 L0.023737907,1.8338255 L0.019236922,1.8069289 L0.015206218,1.7799581 L0.011646628,1.7529207 L0.008559465,1.7258258 L0.0059458017,1.6986811 L0.0038061142,1.6714945 L0.0021413565,1.6442751 L0.00095176697,1.6170304 L0.00023794174,1.5897695 L0,1.5624999 L0.00023794174,1.5352306 L0.00095176697,1.5079697 L0.0021413565,1.480725 L0.0038061142,1.4535056 L0.0059458017,1.426319 L0.008559465,1.3991743 L0.011646628,1.3720794 L0.015206218,1.345042 L0.019236922,1.3180712 L0.023737907,1.2911747 L0.028707504,1.264361 L0.0341444,1.2376378 L0.04004681,1.211014 L0.046412945,1.1844971 L0.053240895,1.1580952 L0.060528636,1.1318167 L0.0682739,1.105669 L0.07647419,1.079661 L0.085127115,1.0537999 L0.094230294,1.0280936 L0.10378051,1.0025502 L0.11377525,0.97717714 L0.12421119,0.9519827 L0.13508523,0.9269742 L0.14639413,0.902159 L0.15813422,0.87754524 L0.17030227,0.85313976 L0.18289435,0.82895076 L0.19590676,0.80498487 L0.20933521,0.78125 L0.223176,0.7577532 L0.23742485,0.7345011 L0.25207722,0.7115016 L0.26712883,0.688761 L0.2825749,0.6662869 L0.2984109,0.64408576 L0.31463194,0.622164 L0.33123302,0.6005291 L0.3482095,0.5791868 L0.36555552,0.55814445 L0.38326633,0.53740764 L0.4013362,0.5169834 L0.41975963,0.49687767 L0.43853164,0.4770962 L0.45764554,0.45764577 L0.47709632,0.43853152 L0.49687755,0.41975987 L0.5169833,0.4013363 L0.53740776,0.3832662 L0.55814445,0.3655554 L0.5791869,0.34820938 L0.6005289,0.33123326 L0.62216383,0.31463218 L0.64408517,0.29841125 L0.666287,0.28257477 L0.6887611,0.2671287 L0.71150136,0.25207722 L0.73450094,0.23742497 L0.75775266,0.22317624 L0.7812501,0.20933521 L0.804985,0.19590664 L0.8289506,0.18289447 L0.8531396,0.17030251 L0.87754536,0.15813422 L0.9021591,0.14639401 L0.926974,0.13508523 L0.9519825,0.12421119 L0.9771769,0.11377537 L1.0025504,0.10378051 L1.0280936,0.094230294 L1.0537997,0.085127234 L1.0796608,0.07647419 L1.1056689,0.0682739 L1.1318169,0.060528517 L1.1580954,0.053240895 L1.184497,0.046412945 L1.2110138,0.04004681 L1.2376376,0.0341444 L1.2643611,0.028707504 L1.2911748,0.023737788 L1.3180711,0.019236922 L1.3450418,0.015206218 L1.3720788,0.011646628 L1.3991745,0.008559465 L1.4263192,0.0059458017 L1.4535054,0.0038062334 L1.4807248,0.0021413565 L1.5079691,0.00095176697 L1.5352308,0.00023794174 L1.5625,0 L1.5897692,0.00023794174 L1.6170301,0.00095176697 L1.6442752,0.0021413565 L1.6714946,0.0038062334 L1.6986809,0.0059458017 L1.7258255,0.008559465 L1.7529205,0.011646509 L1.7799582,0.015206218 L1.806929,0.019237041 L1.8338252,0.023737907 L1.8606389,0.028707504 L1.8873616,0.034144282 L1.9139862,0.04004693 L1.9405031,0.046412945 L1.9669046,0.053240895 L1.9931831,0.060528517 L2.0193305,0.06827366 L2.0453393,0.07647419 L2.0712004,0.085127234 L2.0969064,0.094230294 L2.1224496,0.10378051 L2.1478224,0.113775134 L2.1730175,0.12421119 L2.1980262,0.13508523 L2.222841,0.14639401 L2.2474546,0.15813422 L2.27186,0.17030215 L2.2960496,0.18289447 L2.320015,0.19590664 L2.34375,0.20933521 L2.3672466,0.22317588 L2.390499,0.23742497 L2.4134986,0.25207722 L2.4362388,0.2671287 L2.458713,0.28257477 L2.480914,0.29841077 L2.5028362,0.31463218 L2.5244713,0.33123326 L2.545813,0.34820938 L2.5668554,0.3655554 L2.5875921,0.3832661 L2.6080167,0.4013363 L2.6281226,0.41975987 L2.6479037,0.43853152 L2.667354,0.45764554 L2.6864681,0.47709608 L2.7052402,0.49687767 L2.7236638,0.5169835 L2.7417336,0.53740764 L2.7594442,0.5581441 L2.7767901,0.57918656 L2.793767,0.6005291 L2.810368,0.6221641 L2.826589,0.64408547 L2.8424249,0.6662866 L2.857871,0.68876076 L2.872923,0.71150166 L2.8875751,0.7345011 L2.9018238,0.7577529 L2.9156644,0.7812497 L2.9290934,0.8049852 L2.9421058,0.8289508 L2.9546976,0.8531398 L2.9668655,0.87754494 L2.9786057,0.9021587 L2.989915,0.92697424 L3.0007887,0.95198274 L3.0112247,0.97717714 L3.0212193,1.0025499 L3.0307696,1.0280931 L3.039873,1.0538 L3.0485258,1.079661 L3.056726,1.1056691 L3.0644712,1.1318164 L3.071759,1.1580949 L3.078587,1.1844972 L3.0849533,1.211014 L3.0908556,1.2376379 L3.0962925,1.2643607 L3.101262,1.2911743 L3.105763,1.3180714 L3.109794,1.345042 L3.1133533,1.372079 L3.1164405,1.399174 L3.1190543,1.4263186 L3.121194,1.4535056 L3.1228588,1.480725 L3.1240482,1.5079694 L3.124762,1.5352303 L3.125,1.5625002 z" fill="none" stroke="black" stroke-width="1"/>
<path d="M1.5625,0.78125 L1.562381,0.7948847 L1.5620241,0.80851525 L1.5614293,0.8221375 L1.560597,0.83574724 L1.5595272,0.84934044 L1.5582203,0.8629129 L1.5566766,0.87646043 L1.5548968,0.889979 L1.5528815,0.90346444 L1.550631,0.9169127 L1.5481462,0.93031955 L1.5454278,0.943681 L1.5424767,0.956993 L1.5392935,0.9702515 L1.5358796,0.9834524 L1.5322356,0.9965917 L1.5283631,1.0096654 L1.5242629,1.0226696 L1.5199363,1.0356001 L1.5153849,1.0484532 L1.5106096,1.0612249 L1.5056124,1.0739114 L1.5003943,1.0865088 L1.4949574,1.099013 L1.4893029,1.1114205 L1.4834328,1.1237274 L1.4773488,1.1359301 L1.4710528,1.1480247 L1.4645467,1.1600075 L1.4578323,1.171875 L1.450912,1.1836236 L1.4437876,1.1952494 L1.4364614,1.2067492 L1.4289356,1.2181194 L1.4212126,1.2293565 L1.4132946,1.2404573 L1.405184,1.251418 L1.3968835,1.2622355 L1.3883953,1.2729065 L1.3797222,1.2834277 L1.3708669,1.2937961 L1.3618319,1.3040082 L1.3526201,1.3140612 L1.3432342,1.323952 L1.3336772,1.3336773 L1.323952,1.3432342 L1.3140612,1.3526201 L1.3040082,1.3618319 L1.2937961,1.3708669 L1.2834278,1.3797222 L1.2729065,1.3883953 L1.2622355,1.3968835 L1.251418,1.405184 L1.2404573,1.4132946 L1.2293565,1.4212126 L1.2181194,1.4289356 L1.2067492,1.4364614 L1.1952494,1.4437876 L1.1836236,1.450912 L1.171875,1.4578323 L1.1600075,1.4645467 L1.1480247,1.4710528 L1.1359301,1.4773488 L1.1237274,1.4834328 L1.1114205,1.4893029 L1.099013,1.4949574 L1.0865088,1.5003943 L1.0739114,1.5056124 L1.0612249,1.5106096 L1.0484532,1.5153849 L1.0356001,1.5199363 L1.0226696,1.5242629 L1.0096655,1.528363 L0.9965917,1.5322356 L0.9834524,1.5358796 L0.9702515,1.5392935 L0.956993,1.5424767 L0.943681,1.5454278 L0.93031955,1.5481462 L0.9169127,1.550631 L0.90346444,1.5528815 L0.889979,1.5548968 L0.87646043,1.5566766 L0.86291283,1.5582203 L0.84934044,1.5595272 L0.83574724,1.560597 L0.8221375,1.5614293 L0.80851525,1.5620241 L0.7948847,1.562381 L0.78124994,1.5625 L0.7676154,1.562381 L0.7539848,1.5620241 L0.7403625,1.5614293 L0.72675276,1.560597 L0.71315956,1.5595272 L0.6995871,1.5582203 L0.6860396,1.5566766 L0.67252105,1.5548968 L0.65903556,1.5528815 L0.6455873,1.550631 L0.63218045,1.5481462 L0.61881906,1.5454278 L0.605507,1.5424767 L0.59224856,1.5392935 L0.5790476,1.5358796 L0.5659083,1.5322356 L0.5528346,1.528363 L0.5398305,1.5242629 L0.52689993,1.5199364 L0.5140468,1.5153849 L0.50127506,1.5106097 L0.48858857,1.5056124 L0.47599128,1.5003943 L0.46348706,1.4949574 L0.45107943,1.4893029 L0.43877256,1.4834328 L0.42657,1.4773489 L0.41447532,1.4710528 L0.40249255,1.4645467 L0.39062494,1.4578323 L0.37887657,1.450912 L0.36725053,1.4437876 L0.35575074,1.4364614 L0.3443806,1.4289356 L0.3331434,1.4212124 L0.32204282,1.4132946 L0.31108195,1.4051839 L0.3002645,1.3968835 L0.28959355,1.3883953 L0.27907217,1.3797222 L0.26870394,1.3708669 L0.25849164,1.3618319 L0.24843884,1.3526201 L0.23854822,1.3432343 L0.22882283,1.3336772 L0.21926582,1.323952 L0.20987993,1.3140612 L0.20066816,1.3040082 L0.1916331,1.2937961 L0.18277776,1.2834278 L0.17410481,1.2729065 L0.16561657,1.2622355 L0.15731609,1.251418 L0.14920545,1.2404572 L0.1412875,1.2293565 L0.13356447,1.2181195 L0.12603861,1.2067492 L0.118712485,1.1952494 L0.11158806,1.1836234 L0.10466766,1.171875 L0.09795332,1.1600075 L0.091447234,1.1480247 L0.085151196,1.1359302 L0.07906717,1.1237274 L0.07319707,1.1114206 L0.06754261,1.099013 L0.062105596,1.0865088 L0.056887627,1.0739114 L0.051890254,1.0612249 L0.047115147,1.0484533 L0.042563558,1.0356001 L0.038237095,1.0226696 L0.03413695,1.0096655 L0.030264318,0.9965917 L0.026620448,0.98345244 L0.023206472,0.97025144 L0.020023406,0.95699304 L0.017072141,0.94368094 L0.014353752,0.93031955 L0.011868954,0.91691273 L0.009618461,0.90346444 L0.007603109,0.88997906 L0.005823314,0.8764604 L0.0042797327,0.8629129 L0.0029729009,0.84934056 L0.0019030571,0.83574724 L0.0010706782,0.82213753 L0.00047588348,0.8085152 L0.00011897087,0.79488474 L0,0.78124994 L0.00011897087,0.7676153 L0.00047588348,0.75398487 L0.0010706782,0.7403625 L0.0019030571,0.7267528 L0.0029729009,0.7131595 L0.0042797327,0.69958717 L0.005823314,0.6860397 L0.007603109,0.672521 L0.009618461,0.6590356 L0.011868954,0.6455873 L0.014353752,0.6321805 L0.0170722,0.6188189 L0.020023406,0.605507 L0.023206472,0.59224856 L0.026620448,0.5790476 L0.030264318,0.5659084 L0.03413695,0.5528345 L0.038237095,0.5398305 L0.042563558,0.52689993 L0.047115147,0.5140468 L0.051890254,0.5012751 L0.056887627,0.48858857 L0.062105596,0.47599134 L0.06754261,0.4634871 L0.07319707,0.4510795 L0.07906711,0.43877262 L0.085151136,0.42656988 L0.091447175,0.41447538 L0.09795338,0.40249243 L0.104667604,0.390625 L0.111588,0.3788766 L0.118712425,0.36725056 L0.12603861,0.3557508 L0.13356441,0.3443805 L0.14128745,0.33314344 L0.14920545,0.32204288 L0.15731597,0.311082 L0.16561651,0.30026454 L0.17410475,0.2895934 L0.18277776,0.27907223 L0.19163316,0.26870382 L0.2006681,0.2584917 L0.20987982,0.24843884 L0.21926582,0.2385481 L0.22882277,0.22882289 L0.23854816,0.21926576 L0.24843878,0.20987993 L0.25849164,0.20066816 L0.26870388,0.1916331 L0.27907223,0.1827777 L0.28959346,0.17410469 L0.30026445,0.16561663 L0.31108192,0.15731609 L0.32204258,0.14920563 L0.3331435,0.14128739 L0.34438056,0.13356435 L0.35575068,0.12603861 L0.36725047,0.118712485 L0.37887633,0.11158812 L0.39062506,0.104667604 L0.4024925,0.09795332 L0.4144753,0.091447234 L0.4265698,0.085151255 L0.43877268,0.07906711 L0.45107955,0.07319701 L0.463487,0.06754261 L0.47599125,0.062105596 L0.48858845,0.056887686 L0.5012752,0.051890254 L0.5140468,0.047115147 L0.5268999,0.042563617 L0.5398304,0.038237095 L0.55283445,0.03413695 L0.56590843,0.030264258 L0.5790477,0.026620448 L0.5922485,0.023206472 L0.6055069,0.020023406 L0.6188188,0.0170722 L0.6321806,0.014353752 L0.6455874,0.011868894 L0.65903556,0.009618461 L0.6725209,0.007603109 L0.6860394,0.005823314 L0.6995872,0.0042797327 L0.7131596,0.0029729009 L0.7267527,0.0019031167 L0.7403624,0.0010706782 L0.7539846,0.00047588348 L0.7676154,0.00011897087 L0.78125,0 L0.7948846,0.00011897087 L0.8085151,0.00047588348 L0.8221376,0.0010706782 L0.8357473,0.0019031167 L0.84934044,0.0029729009 L0.8629128,0.0042797327 L0.87646025,0.0058232546 L0.8899791,0.007603109 L0.9034645,0.009618521 L0.9169126,0.011868954 L0.9303194,0.014353752 L0.9436808,0.017072141 L0.9569931,0.020023465 L0.97025156,0.023206472 L0.9834523,0.026620448 L0.99659157,0.030264258 L1.0096653,0.03413683 L1.0226697,0.038237095 L1.0356002,0.042563617 L1.0484532,0.047115147 L1.0612248,0.051890254 L1.0739112,0.056887567 L1.0865088,0.062105596 L1.0990131,0.06754261 L1.1114205,0.07319701 L1.1237273,0.07906711 L1.13593,0.08515108 L1.1480248,0.091447234 L1.1600075,0.09795332 L1.171875,0.104667604 L1.1836233,0.11158794 L1.1952496,0.118712485 L1.2067493,0.12603861 L1.2181194,0.13356435 L1.2293565,0.14128739 L1.240457,0.14920539 L1.2514181,0.15731609 L1.2622356,0.16561663 L1.2729065,0.17410469 L1.2834277,0.1827777 L1.2937961,0.19163305 L1.3040084,0.20066816 L1.3140613,0.20987993 L1.3239518,0.21926576 L1.333677,0.22882277 L1.3432341,0.23854804 L1.3526201,0.24843884 L1.3618319,0.25849175 L1.3708668,0.26870382 L1.3797221,0.27907205 L1.3883951,0.28959328 L1.3968835,0.30026454 L1.405184,0.31108204 L1.4132946,0.32204273 L1.4212124,0.3331433 L1.4289355,0.34438038 L1.4364614,0.35575083 L1.4437876,0.36725056 L1.4509119,0.37887645 L1.4578322,0.39062485 L1.4645467,0.4024926 L1.4710529,0.4144754 L1.4773488,0.4265699 L1.4834328,0.43877247 L1.4893029,0.45107934 L1.4949574,0.46348712 L1.5003943,0.47599137 L1.5056124,0.48858857 L1.5106096,0.50127494 L1.5153848,0.51404655 L1.5199364,0.5269 L1.5242629,0.5398305 L1.528363,0.5528346 L1.5322356,0.5659082 L1.5358795,0.57904744 L1.5392935,0.5922486 L1.5424767,0.605507 L1.5454278,0.61881894 L1.5481462,0.63218033 L1.550631,0.64558715 L1.5528815,0.6590357 L1.554897,0.672521 L1.5566766,0.6860395 L1.5582203,0.699587 L1.5595272,0.7131593 L1.560597,0.7267528 L1.5614294,0.7403625 L1.5620241,0.7539847 L1.562381,0.76761514 L1.5625,0.7812501 z" fill="none" stroke="black" stroke-width="1"/>
</svg>