<svg height="100%" preserveAspectRatio="xMidYMid meet" viewBox="0 0 1000 1000" width="100%" xmlns="http://www.w3.org/2000/svg">
<rect fill="none" height="50" stroke="#000000" stroke-width="1" width="50" x="500" y="500"/>
<rect fill="none" height="50" stroke="#000000" stroke-width="1" width="50" x="-14.941812" y="-32.04282"/>
<rect fill="none" height="50" stroke="#000000" stroke-width="1" width="50" x="-3.081421" y="-35.220802"/>
<rect fill="none" height="50" stroke="#000000" stroke-width="1" width="50" x="9.150638" y="-34.150635"/>
<rect fill="none" height="50" stroke="#000000" stroke-width="1" width="50" x="20.278992" y="-28.9614"/>
<rect fill="none" height="50" stroke="#000000" stroke-width="1" width="50" x="28.9614" y="-20.278988"/>
<rect fill="none" height="50" stroke="#000000" stroke-width="1" width="50" x="34.150635" y="-9.150633"/>
<rect fill="none" height="50" stroke="#000000" stroke-width="1" width="50" x="35.220802" y="3.0814266"/>
<rect fill="none" height="50" stroke="#000000" stroke-width="1" width="50" x="32.042816" y="14.941817"/>
<rect fill="none" height="50" stroke="#000000" stroke-width="1" width="50" x="24.999998" y="25.000002"/>
<rect fill="none" height="50" stroke="#000000" stroke-width="1" width="50" x="14.941812" y="32.04282"/>
<rect fill="none" height="50" stroke="#000000" stroke-width="1" width="50" x="3.0814228" y="35.220802"/>
<rect fill="none" height="50" stroke="#000000" stroke-width="1" width="50" x="-9.150639" y="34.150635"/>
<rect fill="none" height="50" stroke="#000000" stroke-width="1" width="50" x="-20.278992" y="28.9614"/>
<rect fill="none" height="50" stroke="#000000" stroke-width="1" width="50" x="-28.961407" y="20.278976"/>
<rect fill="none" height="50" stroke="#000000" stroke-width="1" width="50" x="-34.15064" y="9.150622"/>
<rect fill="none" height="50" stroke="#000000" stroke-width="1" width="50" x="-35.220802" y="-3.0814304"/>
<rect fill="none" height="50" stroke="#000000" stroke-width="1" width="50" x="-32.042824" y="-14.941804"/>
<rect fill="none" height="50" stroke="#000000" stroke-width="1" width="50" x="-24.999996" y="-25.000004"/>
<rect fill="none" height="50" stroke="#000000" stroke-width="1" width="50" x="-14.941794" y="-32.042828"/>
<rect fill="none" height="50" stroke="#000000" stroke-width="1" width="50" x="-3.081421" y="-35.220802"/>
<rect fill="none" height="50" stroke="#000000" stroke-width="1" width="50" x="9.15065" y="-34.15063"/>
<rect fill="none" height="50" stroke="#000000" stroke-width="1" width="50" x="20.278986" y="-28.961401"/>
<rect fill="none" height="50" stroke="#000000" stroke-width="1" width="50" x="28.961405" y="-20.278982"/>
<rect fill="none" height="50" stroke="#000000" stroke-width="1" width="50" x="34.150635" y="-9.150625"/>
<rect fill="none" height="50" stroke="#000000" stroke-width="1" width="50" x="35.220802" y="3.0814247"/>
<rect fill="none" height="50" stroke="#000000" stroke-width="1" width="50" x="32.042816" y="14.941813"/>
<rect fill="none" height="50" stroke="#000000" stroke-width="1" width="50" x="25" y="25"/>
<rect fill="none" height="50" stroke="#000000" stroke-width="1" width="50" x="14.941783" y="32.04283"/>
<rect fill="none" height="50" stroke="#000000" stroke-width="1" width="50" x="3.0814228" y="35.220802"/>
<rect fill="none" height="50" stroke="#000000" stroke-width="1" width="50" x="-9.1506605" y="34.150627"/>
<rect fill="none" height="50" stroke="#000000" stroke-width="1" width="50" x="-20.278982" y="28.961405"/>
<rect fill="none" height="50" stroke="#000000" stroke-width="1" width="50" x="-28.96141" y="20.278973"/>
<rect fill="none" height="50" stroke="#000000" stroke-width="1" width="50" x="-34.15064" y="9.150616"/>
<rect fill="none" height="50" stroke="#000000" stroke-width="1" width="50" x="-35.220802" y="-3.0814037"/>
<rect fill="none" height="50" stroke="#000000" stroke-width="1" width="50" x="-32.042812" y="-14.941825"/>
<rect fill="none" height="50" stroke="#000000" stroke-width="1" width="50" x="-24.99999" y="-25.00001"/>
<rect fill="none" height="50" stroke="#000000" stroke-width="1" width="50" x="-14.941803" y="-32.042824"/>
<rect fill="none" height="50" stroke="#000000" stroke-width="1" width="50" x="-3.081379" y="-35.220806"/>
<rect fill="none" height="50" stroke="#000000" stroke-width="1" width="50" x="9.150671" y="-34.150627"/>
<rect fill="none" height="50" stroke="#000000" stroke-width="1" width="50" x="20.278992" y="-28.9614"/>
<rect fill="none" height="50" stroke="#000000" stroke-width="1" width="50" x="28.9614" y="-20.278992"/>
<rect fill="none" height="50" stroke="#000000" stroke-width="1" width="50" x="34.150642" y="-9.150604"/>
<rect fill="none" height="50" stroke="#000000" stroke-width="1" width="50" x="35.220802" y="3.0814495"/>
<rect fill="none" height="50" stroke="#000000" stroke-width="1" width="50" x="32.042824" y="14.941805"/>
<rect fill="none" height="50" stroke="#000000" stroke-width="1" width="50" x="25.000008" y="24.999992"/>
<rect fill="none" height="50" stroke="#000000" stroke-width="1" width="50" x="14.941792" y="32.042828"/>
<rect fill="none" height="50" stroke="#000000" stroke-width="1" width="50" x="3.0814" y="35.220802"/>
<rect fill="none" height="50" stroke="#000000" stroke-width="1" width="50" x="-9.15065" y="34.15063"/>
<rect fill="none" height="50" stroke="#000000" stroke-width="1" width="50" x="-20.279001" y="28.96139"/>
</svg>