<svg height="100%" preserveAspectRatio="xMidYMid meet" viewBox="0 0 1000 1000" width="100%" xmlns="http://www.w3.org/2000/svg">
<circle cx="400" cy="400" fill="none" r="300" stroke="#00ffff" stroke-width="1"/>
<circle cx="405" cy="405" fill="none" r="291" stroke="#00f6ff" stroke-width="1"/>
<circle cx="410" cy="410" fill="none" r="282.27002" stroke="#00edff" stroke-width="1"/>
<circle cx="415" cy="415" fill="none" r="273.80194" stroke="#00e4ff" stroke-width="1"/>
<circle cx="420" cy="420" fill="none" r="265.5879" stroke="#00dbff" stroke-width="1"/>
<circle cx="425" cy="425" fill="none" r="257.62027" stroke="#00d2ff" stroke-width="1"/>
<circle cx="430" cy="430" fill="none" r="249.89166" stroke="#00c9ff" stroke-width="1"/>
<circle cx="435" cy="435" fill="none" r="242.39491" stroke="#00c0ff" stroke-width="1"/>
<circle cx="440" cy="440" fill="none" r="235.12308" stroke="#00b7ff" stroke-width="1"/>
<circle cx="445" cy="445" fill="none" r="228.0694" stroke="#00aeff" stroke-width="1"/>
<circle cx="450" cy="450" fill="none" r="221.22733" stroke="#00a5ff" stroke-width="1"/>
<circle cx="455" cy="455" fill="none" r="214.59052" stroke="#009cff" stroke-width="1"/>
<circle cx="460" cy="460" fill="none" r="208.1528" stroke="#0093ff" stroke-width="1"/>
<circle cx="465" cy="465" fill="none" r="201.90822" stroke="#008aff" stroke-width="1"/>
<circle cx="470" cy="470" fill="none" r="195.85098" stroke="#0081ff" stroke-width="1"/>
<circle cx="475" cy="475" fill="none" r="189.97546" stroke="#0078ff" stroke-width="1"/>
<circle cx="480" cy="480" fill="none" r="184.2762" stroke="#006fff" stroke-width="1"/>
<circle cx="485" cy="485" fill="none" r="178.74792" stroke="#0066ff" stroke-width="1"/>
<circle cx="490" cy="490" fill="none" r="173.3855" stroke="#005dff" stroke-width="1"/>
<circle cx="495" cy="495" fill="none" r="168.18394" stroke="#0054ff" stroke-width="1"/>
<circle cx="500" cy="500" fill="none" r="163.13843" stroke="#004bff" stroke-width="1"/>
<circle cx="505" cy="505" fill="none" r="158.24428" stroke="#0042ff" stroke-width="1"/>
<circle cx="510" cy="510" fill="none" r="153.49695" stroke="#0039ff" stroke-width="1"/>
<circle cx="515" cy="515" fill="none" r="148.89204" stroke="#0030ff" stroke-width="1"/>
<circle cx="520" cy="520" fill="none" r="144.4253" stroke="#0027ff" stroke-width="1"/>
<circle cx="525" cy="525" fill="none" r="140.09254" stroke="#001eff" stroke-width="1"/>
<circle cx="530" cy="530" fill="none" r="135.88977" stroke="#0015ff" stroke-width="1"/>
<circle cx="535" cy="535" fill="none" r="131.81308" stroke="#000cff" stroke-width="1"/>
<circle cx="540" cy="540" fill="none" r="127.85869" stroke="#0003ff" stroke-width="1"/>
<circle cx="545" cy="545" fill="none" r="124.022934" stroke="#0500ff" stroke-width="1"/>
<circle cx="550" cy="550" fill="none" r="120.302246" stroke="#0d00ff" stroke-width="1"/>
<circle cx="555" cy="555" fill="none" r="116.693184" stroke="#1500ff" stroke-width="1"/>
<circle cx="560" cy="560" fill="none" r="113.19239" stroke="#1d00ff" stroke-width="1"/>
<circle cx="565" cy="565" fill="none" r="109.79662" stroke="#2500ff" stroke-width="1"/>
<circle cx="570" cy="570" fill="none" r="106.50273" stroke="#2d00ff" stroke-width="1"/>
<circle cx="575" cy="575" fill="none" r="103.307655" stroke="#3500ff" stroke-width="1"/>
<circle cx="580" cy="580" fill="none" r="100.20843" stroke="#3d00ff" stroke-width="1"/>
<circle cx="585" cy="585" fill="none" r="97.20218" stroke="#4500ff" stroke-width="1"/>
<circle cx="590" cy="590" fill="none" r="94.28612" stroke="#4d00ff" stroke-width="1"/>
<circle cx="595" cy="595" fill="none" r="91.457535" stroke="#5500ff" stroke-width="1"/>
<circle cx="600" cy="600" fill="none" r="88.71381" stroke="#5d00ff" stroke-width="1"/>
<circle cx="605" cy="605" fill="none" r="86.0524" stroke="#6500ff" stroke-width="1"/>
<circle cx="610" cy="610" fill="none" r="83.47083" stroke="#6d00ff" stroke-width="1"/>
<circle cx="615" cy="615" fill="none" r="80.96671" stroke="#7500ff" stroke-width="1"/>
<circle cx="620" cy="620" fill="none" r="78.53771" stroke="#7d00ff" stroke-width="1"/>
<circle cx="625" cy="625" fill="none" r="76.18158" stroke="#8500ff" stroke-width="1"/>
<circle cx="630" cy="630" fill="none" r="73.89613" stroke="#8d00ff" stroke-width="1"/>
<circle cx="635" cy="635" fill="none" r="71.67925" stroke="#9500ff" stroke-width="1"/>
<circle cx="640" cy="640" fill="none" r="69.52888" stroke="#9d00ff" stroke-width="1"/>
<circle cx="645" cy="645" fill="none" r="67.443016" stroke="#a500ff" stroke-width="1"/>
<circle cx="650" cy="650" fill="none" r="65.41973" stroke="#ad00ff" stroke-width="1"/>
<circle cx="655" cy="655" fill="none" r="63.45714" stroke="#b500ff" stroke-width="1"/>
<circle cx="660" cy="660" fill="none" r="61.55343" stroke="#bd00ff" stroke-width="1"/>
<circle cx="665" cy="665" fill="none" r="59.70683" stroke="#c500ff" stroke-width="1"/>
<circle cx="670" cy="670" fill="none" r="57.915627" stroke="#cd00ff" stroke-width="1"/>
<circle cx="675" cy="675" fill="none" r="56.178158" stroke="#d500ff" stroke-width="1"/>
<circle cx="680" cy="680" fill="none" r="54.492813" stroke="#dd00ff" stroke-width="1"/>
<circle cx="685" cy="685" fill="none" r="52.85803" stroke="#e500ff" stroke-width="1"/>
<circle cx="690" cy="690" fill="none" r="51.27229" stroke="#ed00ff" stroke-width="1"/>
<circle cx="695" cy="695" fill="none" r="49.734123" stroke="#f500ff" stroke-width="1"/>
<circle cx="700" cy="700" fill="none" r="48.2421" stroke="#fd00ff" stroke-width="1"/>
<circle cx="705" cy="705" fill="none" r="46.794838" stroke="#ff00f8" stroke-width="1"/>
<circle cx="710" cy="710" fill="none" r="45.390995" stroke="#ff0000" stroke-width="1"/>
<circle cx="715" cy="715" fill="none" r="44.029266" stroke="#ff0800" stroke-width="1"/>
<circle cx="720" cy="720" fill="none" r="42.70839" stroke="#ff1000" stroke-width="1"/>
<circle cx="725" cy="725" fill="none" r="41.42714" stroke="#ff1800" stroke-width="1"/>
<circle cx="730" cy="730" fill="none" r="40.184326" stroke="#ff2000" stroke-width="1"/>
<circle cx="735" cy="735" fill="none" r="38.978798" stroke="#ff2800" stroke-width="1"/>
<circle cx="740" cy="740" fill="none" r="37.809437" stroke="#ff3000" stroke-width="1"/>
<circle cx="745" cy="745" fill="none" r="36.675156" stroke="#ff3800" stroke-width="1"/>
<circle cx="750" cy="750" fill="none" r="35.5749" stroke="#ff4000" stroke-width="1"/>
<circle cx="755" cy="755" fill="none" r="34.507656" stroke="#ff4800" stroke-width="1"/>
<circle cx="760" cy="760" fill="none" r="33.472427" stroke="#ff5000" stroke-width="1"/>
<circle cx="765" cy="765" fill="none" r="32.468254" stroke="#ff5800" stroke-width="1"/>
<circle cx="770" cy="770" fill="none" r="31.494207" stroke="#ff6000" stroke-width="1"/>
<circle cx="775" cy="775" fill="none" r="30.549381" stroke="#ff6800" stroke-width="1"/>
<circle cx="780" cy="780" fill="none" r="29.6329" stroke="#ff7000" stroke-width="1"/>
<circle cx="785" cy="785" fill="none" r="28.743914" stroke="#ff7800" stroke-width="1"/>
<circle cx="790" cy="790" fill="none" r="27.881598" stroke="#ff8000" stroke-width="1"/>
<circle cx="795" cy="795" fill="none" r="27.04515" stroke="#ff8800" stroke-width="1"/>
<circle cx="800" cy="800" fill="none" r="26.233797" stroke="#ff9000" stroke-width="1"/>
<circle cx="805" cy="805" fill="none" r="25.446783" stroke="#ff9800" stroke-width="1"/>
<circle cx="810" cy="810" fill="none" r="24.68338" stroke="#ffa000" stroke-width="1"/>
<circle cx="815" cy="815" fill="none" r="23.942879" stroke="#ffa800" stroke-width="1"/>
<circle cx="820" cy="820" fill="none" r="23.224592" stroke="#ffb000" stroke-width="1"/>
<circle cx="825" cy="825" fill="none" r="22.527855" stroke="#ffb800" stroke-width="1"/>
<circle cx="830" cy="830" fill="none" r="21.85202" stroke="#ffc000" stroke-width="1"/>
<circle cx="835" cy="835" fill="none" r="21.19646" stroke="#ffc800" stroke-width="1"/>
<circle cx="840" cy="840" fill="none" r="20.560568" stroke="#ffd000" stroke-width="1"/>
<circle cx="845" cy="845" fill="none" r="19.943752" stroke="#ffd800" stroke-width="1"/>
<circle cx="850" cy="850" fill="none" r="19.34544" stroke="#ffe000" stroke-width="1"/>
<circle cx="855" cy="855" fill="none" r="18.765078" stroke="#ffe800" stroke-width="1"/>
<circle cx="860" cy="860" fill="none" r="18.202126" stroke="#fff000" stroke-width="1"/>
<circle cx="865" cy="865" fill="none" r="17.656063" stroke="#fff800" stroke-width="1"/>
<circle cx="870" cy="870" fill="none" r="17.12638" stroke="#fdff00" stroke-width="1"/>
<circle cx="875" cy="875" fill="none" r="16.61259" stroke="#f4ff00" stroke-width="1"/>
<circle cx="880" cy="880" fill="none" r="16.114214" stroke="#ebff00" stroke-width="1"/>
<circle cx="885" cy="885" fill="none" r="15.630788" stroke="#e2ff00" stroke-width="1"/>
<circle cx="890" cy="890" fill="none" r="15.161864" stroke="#d9ff00" stroke-width="1"/>
<circle cx="895" cy="895" fill="none" r="14.707008" stroke="#d0ff00" stroke-width="1"/>
</svg>