<svg height="100%" preserveAspectRatio="xMidYMid meet" viewBox="0 0 1000 1000" width="100%" xmlns="http://www.w3.org/2000/svg">
<circle cx="100" cy="100" fill="none" r="50" stroke="#000000" stroke-width="1"/>
<circle cx="100" cy="100" fill="none" r="50" stroke="#000000" stroke-width="1"/>
<circle cx="100" cy="100" fill="none" r="50" stroke="#000000" stroke-width="1"/>
<circle cx="100" cy="100" fill="none" r="50" stroke="#000000" stroke-width="1"/>
<circle cx="100" cy="100" fill="none" r="50" stroke="#000000" stroke-width="1"/>
<circle cx="100" cy="100" fill="none" r="50" stroke="#000000" stroke-width="1"/>
<circle cx="100" cy="100" fill="none" r="50" stroke="#000000" stroke-width="1"/>
<circle cx="100" cy="100" fill="none" r="50" stroke="#000000" stroke-width="1"/>
<circle cx="100" cy="100" fill="none" r="50" stroke="#000000" stroke-width="1"/>
<circle cx="100" cy="100" fill="none" r="50" stroke="#000000" stroke-width="1"/>
<circle cx="100" cy="100" fill="none" r="50" stroke="#000000" stroke-width="1"/>
<circle cx="100" cy="100" fill="none" r="50" stroke="#000000" stroke-width="1"/>
<circle cx="100" cy="100" fill="none" r="50" stroke="#000000" stroke-width="1"/>
<circle cx="100" cy="100" fill="none" r="50" stroke="#000000" stroke-width="1"/>
<circle cx="100" cy="100" fill="none" r="50" stroke="#000000" stroke-width="1"/>
<circle cx="100" cy="100" fill="none" r="50" stroke="#000000" stroke-width="1"/>
<circle cx="100" cy="100" fill="none" r="50" stroke="#000000" stroke-width="1"/>
<circle cx="100" cy="100" fill="none" r="50" stroke="#000000" stroke-width="1"/>
<circle cx="100" cy="100" fill="none" r="50" stroke="#000000" stroke-width="1"/>
<circle cx="100" cy="100" fill="none" r="50" stroke="#000000" stroke-width="1"/>
<circle cx="100" cy="100" fill="none" r="50" stroke="#000000" stroke-width="1"/>
<circle cx="100" cy="100" fill="none" r="50" stroke="#000000" stroke-width="1"/>
<circle cx="100" cy="100" fill="none" r="50" stroke="#000000" stroke-width="1"/>
<circle cx="100" cy="100" fill="none" r="50" stroke="#000000" stroke-width="1"/>
<circle cx="100" cy="100" fill="none" r="50" stroke="#000000" stroke-width="1"/>
<circle cx="100" cy="100" fill="none" r="50" stroke="#000000" stroke-width="1"/>
<circle cx="100" cy="100" fill="none" r="50" stroke="#000000" stroke-width="1"/>
<circle cx="100" cy="100" fill="none" r="50" stroke="#000000" stroke-width="1"/>
<circle cx="100" cy="100" fill="none" r="50" stroke="#000000" stroke-width="1"/>
<circle cx="100" cy="100" fill="none" r="50" stroke="#000000" stroke-width="1"/>
<circle cx="100" cy="100" fill="none" r="50" stroke="#000000" stroke-width="1"/>
<circle cx="100" cy="100" fill="none" r="50" stroke="#000000" stroke-width="1"/>
<circle cx="100" cy="100" fill="none" r="50" stroke="#000000" stroke-width="1"/>
<circle cx="100" cy="100" fill="none" r="50" stroke="#000000" stroke-width="1"/>
<circle cx="100" cy="100" fill="none" r="50" stroke="#000000" stroke-width="1"/>
<circle cx="100" cy="100" fill="none" r="50" stroke="#000000" stroke-width="1"/>
<circle cx="100" cy="100" fill="none" r="50" stroke="#000000" stroke-width="1"/>
<circle cx="100" cy="100" fill="none" r="50" stroke="#000000" stroke-width="1"/>
<circle cx="100" cy="100" fill="none" r="50" stroke="#000000" stroke-width="1"/>
<circle cx="100" cy="100" fill="none" r="50" stroke="#000000" stroke-width="1"/>
<circle cx="100" cy="100" fill="none" r="50" stroke="#000000" stroke-width="1"/>
<circle cx="100" cy="100" fill="none" r="50" stroke="#000000" stroke-width="1"/>
<circle cx="100" cy="100" fill="none" r="50" stroke="#000000" stroke-width="1"/>
<circle cx="100" cy="100" fill="none" r="50" stroke="#000000" stroke-width="1"/>
<circle cx="100" cy="100" fill="none" r="50" stroke="#000000" stroke-width="1"/>
<circle cx="100" cy="100" fill="none" r="50" stroke="#000000" stroke-width="1"/>
<circle cx="100" cy="100" fill="none" r="50" stroke="#000000" stroke-width="1"/>
<circle cx="100" cy="100" fill="none" r="50" stroke="#000000" stroke-width="1"/>
<circle cx="100" cy="100" fill="none" r="50" stroke="#000000" stroke-width="1"/>
<circle cx="100" cy="100" fill="none" r="50" stroke="#000000" stroke-width="1"/>
<circle cx="100" cy="100" fill="none" r="50" stroke="#000000" stroke-width="1"/>
<circle cx="100" cy="100" fill="none" r="50" stroke="#000000" stroke-width="1"/>
<circle cx="100" cy="100" fill="none" r="50" stroke="#000000" stroke-width="1"/>
<circle cx="100" cy="100" fill="none" r="50" stroke="#000000" stroke-width="1"/>
<circle cx="100" cy="100" fill="none" r="50" stroke="#000000" stroke-width="1"/>
<circle cx="100" cy="100" fill="none" r="50" stroke="#000000" stroke-width="1"/>
<circle cx="100" cy="100" fill="none" r="50" stroke="#000000" stroke-width="1"/>
<circle cx="100" cy="100" fill="none" r="50" stroke="#000000" stroke-width="1"/>
<circle cx="100" cy="100" fill="none" r="50" stroke="#000000" stroke-width="1"/>
<circle cx="100" cy="100" fill="none" r="50" stroke="#000000" stroke-width="1"/>
<circle cx="100" cy="100" fill="none" r="50" stroke="#000000" stroke-width="1"/>
<circle cx="100" cy="100" fill="none" r="50" stroke="#000000" stroke-width="1"/>
<circle cx="100" cy="100" fill="none" r="50" stroke="#000000" stroke-width="1"/>
<circle cx="100" cy="100" fill="none" r="50" stroke="#000000" stroke-width="1"/>
<circle cx="100" cy="100" fill="none" r="50" stroke="#000000" stroke-width="1"/>
<circle cx="100" cy="100" fill="none" r="50" stroke="#000000" stroke-width="1"/>
<circle cx="100" cy="100" fill="none" r="50" stroke="#000000" stroke-width="1"/>
<circle cx="100" cy="100" fill="none" r="50" stroke="#000000" stroke-width="1"/>
<circle cx="100" cy="100" fill="none" r="50" stroke="#000000" stroke-width="1"/>
<circle cx="100" cy="100" fill="none" r="50" stroke="#000000" stroke-width="1"/>
<circle cx="100" cy="100" fill="none" r="50" stroke="#000000" stroke-width="1"/>
<circle cx="100" cy="100" fill="none" r="50" stroke="#000000" stroke-width="1"/>
<circle cx="100" cy="100" fill="none" r="50" stroke="#000000" stroke-width="1"/>
<circle cx="100" cy="100" fill="none" r="50" stroke="#000000" stroke-width="1"/>
<circle cx="100" cy="100" fill="none" r="50" stroke="#000000" stroke-width="1"/>
<circle cx="100" cy="100" fill="none" r="50" stroke="#000000" stroke-width="1"/>
<circle cx="100" cy="100" fill="none" r="50" stroke="#000000" stroke-width="1"/>
<circle cx="100" cy="100" fill="none" r="50" stroke="#000000" stroke-width="1"/>
<circle cx="100" cy="100" fill="none" r="50" stroke="#000000" stroke-width="1"/>
<circle cx="100" cy="100" fill="none" r="50" stroke="#000000" stroke-width="1"/>
<circle cx="100" cy="100" fill="none" r="50" stroke="#000000" stroke-width="1"/>
<circle cx="100" cy="100" fill="none" r="50" stroke="#000000" stroke-width="1"/>
<circle cx="100" cy="100" fill="none" r="50" stroke="#000000" stroke-width="1"/>
<circle cx="100" cy="100" fill="none" r="50" stroke="#000000" stroke-width="1"/>
<circle cx="100" cy="100" fill="none" r="50" stroke="#000000" stroke-width="1"/>
<circle cx="100" cy="100" fill="none" r="50" stroke="#000000" stroke-width="1"/>
<circle cx="100" cy="100" fill="none" r="50" stroke="#000000" stroke-width="1"/>
<circle cx="100" cy="100" fill="none" r="50" stroke="#000000" stroke-width="1"/>
<circle cx="100" cy="100" fill="none" r="50" stroke="#000000" stroke-width="1"/>
<circle cx="100" cy="100" fill="none" r="50" stroke="#000000" stroke-width="1"/>
<circle cx="100" cy="100" fill="none" r="50" stroke="#000000" stroke-width="1"/>
<circle cx="100" cy="100" fill="none" r="50" stroke="#000000" stroke-width="1"/>
<circle cx="100" cy="100" fill="none" r="50" stroke="#000000" stroke-width="1"/>
<circle cx="100" cy="100" fill="none" r="50" stroke="#000000" stroke-width="1"/>
<circle cx="100" cy="100" fill="none" r="50" stroke="#000000" stroke-width="1"/>
<circle cx="100" cy="100" fill="none" r="50" stroke="#000000" stroke-width="1"/>
<circle cx="100" cy="100" fill="none" r="50" stroke="#000000" stroke-width="1"/>
<circle cx="100" cy="100" fill="none" r="50" stroke="#000000" stroke-width="1"/>
<circle cx="100" cy="100" fill="none" r="50" stroke="#000000" stroke-width="1"/>
<circle cx="100" cy="100" fill="none" r="50" stroke="#000000" stroke-width="1"/>
</svg>