<svg height="100%" preserveAspectRatio="xMidYMid meet" viewBox="0 0 1000 1000" width="100%" xmlns="http://www.w3.org/2000/svg">
<circle cx="250" cy="500" fill="none" r="20" stroke="#000000" stroke-width="1" transform="rotate(0 0 0)"/>
<circle cx="260" cy="500" fill="none" r="22" stroke="#000000" stroke-width="1" transform="rotate(0 0 0)"/>
<circle cx="270" cy="500" fill="none" r="24.2" stroke="#000000" stroke-width="1" transform="rotate(0 0 0)"/>
<circle cx="280" cy="500" fill="none" r="26.62" stroke="#000000" stroke-width="1" transform="rotate(0 0 0)"/>
<circle cx="290" cy="500" fill="none" r="29.282001" stroke="#000000" stroke-width="1" transform="rotate(0 0 0)"/>
<circle cx="300" cy="500" fill="none" r="32.2102" stroke="#000000" stroke-width="1" transform="rotate(0 0 0)"/>
<circle cx="310" cy="500" fill="none" r="35.43122" stroke="#000000" stroke-width="1" transform="rotate(0 0 0)"/>
<circle cx="320" cy="500" fill="none" r="38.974342" stroke="#000000" stroke-width="1" transform="rotate(0 0 0)"/>
<circle cx="330" cy="500" fill="none" r="42.871777" stroke="#000000" stroke-width="1" transform="rotate(0 0 0)"/>
<circle cx="340" cy="500" fill="none" r="47.158955" stroke="#000000" stroke-width="1" transform="rotate(0 0 0)"/>
<circle cx="350" cy="500" fill="none" r="51.87485" stroke="#000000" stroke-width="1" transform="rotate(0 0 0)"/>
<circle cx="360" cy="500" fill="none" r="57.062336" stroke="#000000" stroke-width="1" transform="rotate(0 0 0)"/>
<circle cx="370" cy="500" fill="none" r="62.76857" stroke="#000000" stroke-width="1" transform="rotate(0 0 0)"/>
<circle cx="380" cy="500" fill="none" r="69.045425" stroke="#000000" stroke-width="1" transform="rotate(0 0 0)"/>
<circle cx="390" cy="500" fill="none" r="75.94997" stroke="#000000" stroke-width="1" transform="rotate(0 0 0)"/>
<circle cx="400" cy="500" fill="none" r="83.54497" stroke="#000000" stroke-width="1" transform="rotate(0 0 0)"/>
<circle cx="410" cy="500" fill="none" r="91.89947" stroke="#000000" stroke-width="1" transform="rotate(0 0 0)"/>
<circle cx="420" cy="500" fill="none" r="101.08942" stroke="#000000" stroke-width="1" transform="rotate(0 0 0)"/>
<circle cx="430" cy="500" fill="none" r="111.198364" stroke="#000000" stroke-width="1" transform="rotate(0 0 0)"/>
<circle cx="440" cy="500" fill="none" r="122.31821" stroke="#000000" stroke-width="1" transform="rotate(0 0 0)"/>
<circle cx="450" cy="500" fill="none" r="134.55003" stroke="#000000" stroke-width="1" transform="rotate(0 0 0)"/>
<circle cx="460" cy="500" fill="none" r="148.00504" stroke="#000000" stroke-width="1" transform="rotate(0 0 0)"/>
<circle cx="470" cy="500" fill="none" r="162.80554" stroke="#000000" stroke-width="1" transform="rotate(0 0 0)"/>
<circle cx="480" cy="500" fill="none" r="179.0861" stroke="#000000" stroke-width="1" transform="rotate(0 0 0)"/>
<circle cx="490" cy="500" fill="none" r="196.99472" stroke="#000000" stroke-width="1" transform="rotate(0 0 0)"/>
<circle cx="500" cy="500" fill="none" r="216.6942" stroke="#000000" stroke-width="1" transform="rotate(0 0 0)"/>
<circle cx="510" cy="500" fill="none" r="238.36362" stroke="#000000" stroke-width="1" transform="rotate(0 0 0)"/>
<circle cx="500" cy="500" fill="none" r="262.19998" stroke="#000000" stroke-width="1" transform="rotate(0 0 0)"/>
<circle cx="510" cy="500" fill="none" r="288.41998" stroke="#000000" stroke-width="1" transform="rotate(0 0 0)"/>
<circle cx="500" cy="500" fill="none" r="317.262" stroke="#000000" stroke-width="1" transform="rotate(0 0 0)"/>
<circle cx="510" cy="500" fill="none" r="348.9882" stroke="#000000" stroke-width="1" transform="rotate(0 0 0)"/>
<circle cx="500" cy="500" fill="none" r="383.88702" stroke="#000000" stroke-width="1" transform="rotate(0 0 0)"/>
<circle cx="510" cy="500" fill="none" r="422.27573" stroke="#000000" stroke-width="1" transform="rotate(0 0 0)"/>
<circle cx="500" cy="500" fill="none" r="464.5033" stroke="#000000" stroke-width="1" transform="rotate(0 0 0)"/>
<circle cx="510" cy="500" fill="none" r="510.95364" stroke="#000000" stroke-width="1" transform="rotate(0 0 0)"/>
<circle cx="500" cy="500" fill="none" r="562.049" stroke="#000000" stroke-width="1" transform="rotate(0 0 0)"/>
<circle cx="510" cy="500" fill="none" r="618.2539" stroke="#000000" stroke-width="1" transform="rotate(0 0 0)"/>
<circle cx="500" cy="500" fill="none" r="680.0793" stroke="#000000" stroke-width="1" transform="rotate(0 0 0)"/>
<circle cx="510" cy="500" fill="none" r="748.0872" stroke="#000000" stroke-width="1" transform="rotate(0 0 0)"/>
<circle cx="500" cy="500" fill="none" r="822.89594" stroke="#000000" stroke-width="1" transform="rotate(0 0 0)"/>
<circle cx="510" cy="500" fill="none" r="905.18555" stroke="#000000" stroke-width="1" transform="rotate(0 0 0)"/>
<circle cx="500" cy="500" fill="none" r="995.7041" stroke="#000000" stroke-width="1" transform="rotate(0 0 0)"/>
<circle cx="510" cy="500" fill="none" r="1095.2745" stroke="#000000" stroke-width="1" transform="rotate(0 0 0)"/>
<circle cx="500" cy="500" fill="none" r="1204.802" stroke="#000000" stroke-width="1" transform="rotate(0 0 0)"/>
<circle cx="510" cy="500" fill="none" r="1325.2822" stroke="#000000" stroke-width="1" transform="rotate(0 0 0)"/>
<circle cx="500" cy="500" fill="none" r="1457.8104" stroke="#000000" stroke-width="1" transform="rotate(0 0 0)"/>
<circle cx="510" cy="500" fill="none" r="1603.5916" stroke="#000000" stroke-width="1" transform="rotate(0 0 0)"/>
<circle cx="500" cy="500" fill="none" r="1763.9508" stroke="#000000" stroke-width="1" transform="rotate(0 0 0)"/>
<circle cx="510" cy="500" fill="none" r="1940.346" stroke="#000000" stroke-width="1" transform="rotate(0 0 0)"/>
<circle cx="500" cy="500" fill="none" r="2134.3806" stroke="#000000" stroke-width="1" transform="rotate(0 0 0)"/>
<circle cx="510" cy="500" fill="none" r="2347.8188" stroke="#000000" stroke-width="1" transform="rotate(0 0 0)"/>
<circle cx="500" cy="500" fill="none" r="2582.6008" stroke="#000000" stroke-width="1" transform="rotate(0 0 0)"/>
<circle cx="510" cy="500" fill="none" r="2840.861" stroke="#000000" stroke-width="1" transform="rotate(0 0 0)"/>
<circle cx="500" cy="500" fill="none" r="3124.9473" stroke="#000000" stroke-width="1" transform="rotate(0 0 0)"/>
<circle cx="510" cy="500" fill="none" r="3437.4421" stroke="#000000" stroke-width="1" transform="rotate(0 0 0)"/>
<circle cx="500" cy="500" fill="none" r="3781.1865" stroke="#000000" stroke-width="1" transform="rotate(0 0 0)"/>
<circle cx="510" cy="500" fill="none" r="4159.305" stroke="#000000" stroke-width="1" transform="rotate(0 0 0)"/>
<circle cx="500" cy="500" fill="none" r="4575.236" stroke="#000000" stroke-width="1" transform="rotate(0 0 0)"/>
<circle cx="510" cy="500" fill="none" r="5032.76" stroke="#000000" stroke-width="1" transform="rotate(0 0 0)"/>
<circle cx="500" cy="500" fill="none" r="5536.0356" stroke="#000000" stroke-width="1" transform="rotate(0 0 0)"/>
<circle cx="510" cy="500" fill="none" r="6089.639" stroke="#000000" stroke-width="1" transform="rotate(0 0 0)"/>
<circle cx="500" cy="500" fill="none" r="6698.603" stroke="#000000" stroke-width="1" transform="rotate(0 0 0)"/>
<circle cx="510" cy="500" fill="none" r="7368.4634" stroke="#000000" stroke-width="1" transform="rotate(0 0 0)"/>
<circle cx="500" cy="500" fill="none" r="8105.31" stroke="#000000" stroke-width="1" transform="rotate(0 0 0)"/>
<circle cx="510" cy="500" fill="none" r="8915.841" stroke="#000000" stroke-width="1" transform="rotate(0 0 0)"/>
<circle cx="500" cy="500" fill="none" r="9807.425" stroke="#000000" stroke-width="1" transform="rotate(0 0 0)"/>
<circle cx="510" cy="500" fill="none" r="10788.168" stroke="#000000" stroke-width="1" transform="rotate(0 0 0)"/>
<circle cx="500" cy="500" fill="none" r="11866.985" stroke="#000000" stroke-width="1" transform="rotate(0 0 0)"/>
<circle cx="510" cy="500" fill="none" r="13053.685" stroke="#000000" stroke-width="1" transform="rotate(0 0 0)"/>
<circle cx="500" cy="500" fill="none" r="14359.054" stroke="#000000" stroke-width="1" transform="rotate(0 0 0)"/>
<circle cx="510" cy="500" fill="none" r="15794.959" stroke="#000000" stroke-width="1" transform="rotate(0 0 0)"/>
<circle cx="500" cy="500" fill="none" r="17374.455" stroke="#000000" stroke-width="1" transform="rotate(0 0 0)"/>
<circle cx="510" cy="500" fill="none" r="19111.9" stroke="#000000" stroke-width="1" transform="rotate(0 0 0)"/>
<circle cx="500" cy="500" fill="none" r="21023.092" stroke="#000000" stroke-width="1" transform="rotate(0 0 0)"/>
<circle cx="510" cy="500" fill="none" r="23125.402" stroke="#000000" stroke-width="1" transform="rotate(0 0 0)"/>
<circle cx="500" cy="500" fill="none" r="25437.943" stroke="#000000" stroke-width="1" transform="rotate(0 0 0)"/>
<circle cx="510" cy="500" fill="none" r="27981.738" stroke="#000000" stroke-width="1" transform="rotate(0 0 0)"/>
<circle cx="500" cy="500" fill="none" r="30779.912" stroke="#000000" stroke-width="1" transform="rotate(0 0 0)"/>
<circle cx="510" cy="500" fill="none" r="33857.902" stroke="#000000" stroke-width="1" transform="rotate(0 0 0)"/>
<circle cx="500" cy="500" fill="none" r="37243.695" stroke="#000000" stroke-width="1" transform="rotate(0 0 0)"/>
<circle cx="510" cy="500" fill="none" r="40968.066" stroke="#000000" stroke-width="1" transform="rotate(0 0 0)"/>
<circle cx="500" cy="500" fill="none" r="45064.875" stroke="#000000" stroke-width="1" transform="rotate(0 0 0)"/>
<circle cx="510" cy="500" fill="none" r="49571.363" stroke="#000000" stroke-width="1" transform="rotate(0 0 0)"/>
<circle cx="500" cy="500" fill="none" r="54528.5" stroke="#000000" stroke-width="1" transform="rotate(0 0 0)"/>
<circle cx="510" cy="500" fill="none" r="59981.35" stroke="#000000" stroke-width="1" transform="rotate(0 0 0)"/>
<circle cx="500" cy="500" fill="none" r="65979.484" stroke="#000000" stroke-width="1" transform="rotate(0 0 0)"/>
<circle cx="510" cy="500" fill="none" r="72577.44" stroke="#000000" stroke-width="1" transform="rotate(0 0 0)"/>
<circle cx="500" cy="500" fill="none" r="79835.18" stroke="#000000" stroke-width="1" transform="rotate(0 0 0)"/>
<circle cx="510" cy="500" fill="none" r="87818.7" stroke="#000000" stroke-width="1" transform="rotate(0 0 0)"/>
<circle cx="500" cy="500" fill="none" r="96600.58" stroke="#000000" stroke-width="1" transform="rotate(0 0 0)"/>
<circle cx="510" cy="500" fill="none" r="106260.64" stroke="#000000" stroke-width="1" transform="rotate(0 0 0)"/>
<circle cx="500" cy="500" fill="none" r="116886.71" stroke="#000000" stroke-width="1" transform="rotate(0 0 0)"/>
<circle cx="510" cy="500" fill="none" r="128575.38" stroke="#000000" stroke-width="1" transform="rotate(0 0 0)"/>
<circle cx="500" cy="500" fill="none" r="141432.92" stroke="#000000" stroke-width="1" transform="rotate(0 0 0)"/>
<circle cx="510" cy="500" fill="none" r="155576.22" stroke="#000000" stroke-width="1" transform="rotate(0 0 0)"/>
<circle cx="500" cy="500" fill="none" r="171133.84" stroke="#000000" stroke-width="1" transform="rotate(0 0 0)"/>
<circle cx="510" cy="500" fill="none" r="188247.23" stroke="#000000" stroke-width="1" transform="rotate(0 0 0)"/>
<circle cx="500" cy="500" fill="none" r="207071.97" stroke="#000000" stroke-width="1" transform="rotate(0 0 0)"/>
<circle cx="510" cy="500" fill="none" r="227779.17" stroke="#000000" stroke-width="1" transform="rotate(0 0 0)"/>
<circle cx="500" cy="500" fill="none" r="250557.1" stroke="#000000" stroke-width="1" transform="rotate(0 0 0)"/>
</svg>