<svg height="100%" preserveAspectRatio="xMidYMid meet" viewBox="0 0 1000 1000" width="100%" xmlns="http://www.w3.org/2000/svg">
<path d="M200,100 L199.98477,101.74524 L199.93909,103.48995 L199.86295,105.2336 L199.75641,106.97565 L199.61948,108.715576 L199.4522,110.45285 L199.25461,112.186935 L199.0268,113.91731 L198.76883,115.64345 L198.48077,117.36482 L198.16272,119.0809 L197.81476,120.79117 L197.43701,122.4951 L197.02957,124.19219 L196.59259,125.881905 L196.12616,127.563736 L195.63048,129.23717 L195.10565,130.9017 L194.55185,132.55681 L193.96927,134.20201 L193.35803,135.83679 L192.71838,137.46066 L192.05048,139.07312 L191.35455,140.67366 L190.63077,142.26183 L189.8794,143.83711 L189.10065,145.39905 L188.29475,146.94716 L187.46198,148.48096 L186.60254,150 L185.71674,151.50381 L184.80481,152.99193 L183.86707,154.4639 L182.90376,155.91928 L181.9152,157.35764 L180.9017,158.77853 L179.86356,160.1815 L178.80109,161.56615 L177.7146,162.93204 L176.60445,164.27875 L175.47096,165.6059 L174.31448,166.91306 L173.13538,168.19983 L171.93398,169.46585 L170.71068,170.7107 L169.46585,171.93398 L168.19983,173.13538 L166.91306,174.31448 L165.6059,175.47096 L164.27876,176.60445 L162.93204,177.7146 L161.56615,178.80109 L160.1815,179.86356 L158.77853,180.9017 L157.35764,181.9152 L155.91928,182.90376 L154.4639,183.86707 L152.99193,184.80481 L151.50381,185.71674 L150,186.60254 L148.48096,187.46198 L146.94716,188.29475 L145.39905,189.10065 L143.83711,189.8794 L142.26183,190.63077 L140.67366,191.35455 L139.07312,192.05048 L137.46066,192.71838 L135.83679,193.35803 L134.20201,193.96927 L132.55681,194.55185 L130.9017,195.10565 L129.23718,195.63046 L127.563736,196.12616 L125.881905,196.59259 L124.19219,197.02957 L122.4951,197.43701 L120.79117,197.81476 L119.0809,198.16272 L117.36482,198.48077 L115.64345,198.76883 L113.91731,199.0268 L112.186935,199.25461 L110.45284,199.4522 L108.715576,199.61948 L106.97565,199.75641 L105.2336,199.86295 L103.48995,199.93909 L101.74524,199.98477 L99.99999,200 L98.25477,199.98477 L96.510056,199.93909 L94.7664,199.86295 L93.02435,199.75641 L91.284424,199.61948 L89.54715,199.4522 L87.81307,199.25461 L86.082695,199.0268 L84.35655,198.76883 L82.63518,198.48077 L80.9191,198.16272 L79.20884,197.81476 L77.5049,197.43701 L75.807816,197.02957 L74.118095,196.59259 L72.436264,196.12616 L70.762825,195.63046 L69.098305,195.10565 L67.44319,194.55186 L65.79799,193.96927 L64.16321,193.35805 L62.539337,192.71838 L60.926884,192.05048 L59.326344,191.35455 L57.738167,190.63077 L56.162888,189.8794 L54.60096,189.10066 L53.05284,188.29475 L51.519047,187.46198 L49.999992,186.60254 L48.4962,185.71674 L47.008068,184.80481 L45.536095,183.86707 L44.080715,182.90376 L42.642357,181.91519 L41.22148,180.9017 L39.81849,179.86354 L38.433857,178.80109 L37.067974,177.7146 L35.721237,176.60445 L34.394104,175.47096 L33.08693,174.31448 L31.80017,173.13538 L30.534172,171.93399 L29.289322,170.71068 L28.066025,169.46585 L26.864632,168.19983 L25.685524,166.91306 L24.529037,165.6059 L23.395554,164.27876 L22.285416,162.93204 L21.198921,161.56615 L20.13646,160.1815 L19.098297,158.77852 L18.0848,157.35764 L17.096252,155.9193 L16.132942,154.4639 L15.195198,152.99193 L14.283272,151.5038 L13.397461,150 L12.538025,148.48096 L11.705246,146.94716 L10.899353,145.39906 L10.120598,143.83711 L9.369225,142.26184 L8.645454,140.67366 L7.9495163,139.07312 L7.281616,137.46066 L6.6419525,135.83679 L6.030739,134.20203 L5.4481354,132.55681 L4.894348,130.9017 L4.3695297,129.23718 L3.8738327,127.563736 L3.4074173,125.88191 L2.9704285,124.192184 L2.562996,122.49511 L2.185234,120.79116 L1.8372803,119.0809 L1.5192261,117.36483 L1.231163,115.64345 L0.97319794,113.91732 L0.7453842,112.18693 L0.5478058,110.45285 L0.3805313,108.71559 L0.24359131,106.97565 L0.13704681,105.233604 L0.060913086,103.489944 L0.0152282715,101.74525 L0,99.99999 L0.0152282715,98.25476 L0.060913086,96.51006 L0.13704681,94.7664 L0.24359131,93.02436 L0.3805313,91.28442 L0.5478058,89.54716 L0.7453842,87.81308 L0.97319794,86.08269 L1.231163,84.35656 L1.5192261,82.63518 L1.8372803,80.919106 L2.1852417,79.20882 L2.562996,77.5049 L2.9704285,75.807816 L3.4074173,74.118095 L3.8738327,72.43627 L4.3695297,70.76282 L4.894348,69.098305 L5.4481354,67.44319 L6.030739,65.79799 L6.6419525,64.163216 L7.281616,62.539337 L7.9495163,60.92689 L8.645454,59.326347 L9.369225,57.738174 L10.12059,56.162895 L10.899345,54.600945 L11.705238,53.05285 L12.538033,51.51903 L13.397453,50 L14.283264,48.496204 L15.19519,47.00807 L16.132942,45.536102 L17.096245,44.080704 L18.084793,42.64236 L19.098297,41.22149 L20.136444,39.818497 L21.198914,38.43386 L22.285408,37.067955 L23.395554,35.721245 L24.529045,34.39409 L25.685516,33.086937 L26.864616,31.80017 L28.066025,30.534157 L29.289314,29.28933 L30.534164,28.066017 L31.800163,26.864632 L33.08693,25.685524 L34.394096,24.529037 L35.721245,23.395546 L37.067963,22.2854 L38.43385,21.198929 L39.818485,20.13646 L41.22145,19.09832 L42.64237,18.084785 L44.08071,17.096237 L45.536087,16.132942 L47.00806,15.195198 L48.49617,14.283279 L50.000008,13.397453 L51.51904,12.538025 L53.052837,11.705246 L54.600933,10.899361 L56.162903,10.12059 L57.738182,9.369217 L59.326336,8.645454 L60.92688,7.9495163 L62.53932,7.281624 L64.16322,6.6419525 L65.79799,6.030739 L67.443184,5.448143 L69.09829,4.894348 L70.76281,4.3695297 L72.43628,3.873825 L74.1181,3.4074173 L75.80781,2.9704285 L77.50488,2.562996 L79.20881,2.1852417 L80.91911,1.8372803 L82.635185,1.5192184 L84.35655,1.231163 L86.08267,0.97319794 L87.81304,0.7453842 L89.547165,0.5478058 L91.28443,0.3805313 L93.024345,0.24359894 L94.76639,0.13704681 L96.510025,0.060913086 L98.25477,0.0152282715 L100,0 L101.74523,0.0152282715 L103.48993,0.060913086 L105.23361,0.13704681 L106.975655,0.24359894 L108.715576,0.3805313 L110.452835,0.5478058 L112.18691,0.7453766 L113.91733,0.97319794 L115.643456,1.2311707 L117.364815,1.5192261 L119.08089,1.8372803 L120.791145,2.185234 L122.49512,2.5630035 L124.1922,2.9704285 L125.8819,3.4074173 L127.56372,3.873825 L129.23715,4.3695145 L130.90172,4.894348 L132.55682,5.448143 L134.20201,6.030739 L135.83678,6.6419525 L137.46063,7.2816086 L139.07312,7.9495163 L140.67368,8.645454 L142.26183,9.369217 L143.8371,10.12059 L145.39903,10.899338 L146.94717,11.705246 L148.48096,12.538025 L150,13.397453 L151.50378,14.283257 L152.99194,15.195198 L154.46391,16.132942 L155.91928,17.096237 L157.35764,18.084785 L158.7785,19.09829 L160.18152,20.13646 L161.56616,21.198929 L162.93204,22.2854 L164.27875,23.395546 L165.6059,24.52903 L166.91307,25.685524 L168.19984,26.864632 L169.46584,28.066017 L170.71066,29.289314 L171.93396,30.53415 L173.13538,31.80017 L174.31448,33.086945 L175.47095,34.39409 L176.60443,35.721222 L177.71457,37.06794 L178.80109,38.43386 L179.86356,39.8185 L180.9017,41.22147 L181.91519,42.64234 L182.90375,44.08069 L183.86707,45.536106 L184.80481,47.00807 L185.71672,48.496185 L186.60252,49.99998 L187.46198,51.519054 L188.29477,53.052853 L189.10065,54.60095 L189.8794,56.162876 L190.63077,57.738155 L191.35455,59.32635 L192.05048,60.926895 L192.71838,62.539337 L193.35803,64.16319 L193.96925,65.79796 L194.55186,67.4432 L195.10565,69.098305 L195.63046,70.762825 L196.12616,72.43625 L196.59258,74.11807 L197.02957,75.80782 L197.43701,77.5049 L197.81476,79.208824 L198.16272,80.91908 L198.48077,82.635155 L198.76883,84.35657 L199.02681,86.08269 L199.25461,87.81306 L199.4522,89.547134 L199.61948,91.28439 L199.75641,93.02436 L199.86296,94.7664 L199.93909,96.51004 L199.98477,98.25474 L200,100.000015 z" fill="none" stroke="black" stroke-width="1"/>
<path d="M150,100 L149.99239,100.87262 L149.96954,101.74498 L149.93147,102.6168 L149.8782,103.48782 L149.80974,104.35779 L149.7261,105.226425 L149.6273,106.09347 L149.5134,106.95866 L149.38441,107.821724 L149.24039,108.68241 L149.08136,109.54045 L148.90738,110.395584 L148.7185,111.24755 L148.51479,112.0961 L148.2963,112.94095 L148.06308,113.78187 L147.81525,114.61858 L147.55283,115.45085 L147.27592,116.278404 L146.98463,117.101006 L146.67902,117.918396 L146.35919,118.73033 L146.02524,119.53656 L145.67728,120.33683 L145.31538,121.13091 L144.9397,121.91856 L144.55032,122.699524 L144.14737,123.47358 L143.73099,124.24048 L143.30127,125 L142.85837,125.75191 L142.4024,126.495964 L141.93353,127.23195 L141.45187,127.95964 L140.95761,128.67882 L140.45085,129.38927 L139.93178,130.09076 L139.40054,130.78308 L138.8573,131.46602 L138.30222,132.13937 L137.73547,132.80295 L137.15724,133.45653 L136.56769,134.09991 L135.96698,134.73293 L135.35535,135.35535 L134.73293,135.96698 L134.09991,136.56769 L133.45653,137.15724 L132.80295,137.73547 L132.13937,138.30222 L131.46602,138.8573 L130.78308,139.40054 L130.09076,139.93178 L129.38927,140.45085 L128.67882,140.95761 L127.95964,141.45187 L127.23195,141.93353 L126.495964,142.4024 L125.75191,142.85837 L125,143.30127 L124.24048,143.73099 L123.47358,144.14737 L122.699524,144.55032 L121.91856,144.9397 L121.13091,145.31538 L120.33683,145.67728 L119.53656,146.02524 L118.73033,146.35919 L117.918396,146.67902 L117.101006,146.98463 L116.278404,147.27592 L115.45085,147.55283 L114.61859,147.81523 L113.78187,148.06308 L112.94095,148.2963 L112.0961,148.51479 L111.24755,148.7185 L110.395584,148.90738 L109.54045,149.08136 L108.68241,149.24039 L107.821724,149.38441 L106.95866,149.5134 L106.09347,149.6273 L105.226425,149.7261 L104.35779,149.80974 L103.48782,149.8782 L102.6168,149.93147 L101.74498,149.96954 L100.87262,149.99239 L100,150 L99.12738,149.99239 L98.25503,149.96954 L97.3832,149.93147 L96.51218,149.8782 L95.64221,149.80974 L94.773575,149.7261 L93.90654,149.6273 L93.04135,149.5134 L92.178276,149.38441 L91.31759,149.24039 L90.45955,149.08136 L89.604416,148.90738 L88.75245,148.7185 L87.90391,148.51479 L87.05905,148.2963 L86.21813,148.06308 L85.38141,147.81523 L84.54915,147.55283 L83.721596,147.27594 L82.898994,146.98463 L82.081604,146.67902 L81.26967,146.35919 L80.46344,146.02524 L79.66317,145.67728 L78.86908,145.31538 L78.08144,144.9397 L77.300476,144.55032 L76.52642,144.14737 L75.75952,143.73099 L75,143.30127 L74.2481,142.85837 L73.504036,142.4024 L72.76805,141.93353 L72.04036,141.45187 L71.32118,140.9576 L70.61074,140.45085 L69.90924,139.93176 L69.21693,139.40054 L68.53399,138.8573 L67.86062,138.30222 L67.19705,137.73547 L66.543465,137.15724 L65.900085,136.56769 L65.26709,135.967 L64.64466,135.35535 L64.03301,134.73293 L63.432316,134.09991 L62.842762,133.45653 L62.26452,132.80295 L61.697777,132.13937 L61.142708,131.46602 L60.59946,130.78308 L60.06823,130.09076 L59.54915,129.38925 L59.0424,128.67882 L58.548126,127.95965 L58.06647,127.23195 L57.5976,126.495964 L57.141636,125.7519 L56.69873,125 L56.269012,124.24048 L55.852623,123.47358 L55.449677,122.69953 L55.0603,121.91856 L54.684612,121.13092 L54.322727,120.33683 L53.97476,119.53656 L53.64081,118.73033 L53.320976,117.918396 L53.01537,117.10101 L52.724068,116.278404 L52.447174,115.45085 L52.184765,114.61859 L51.936916,113.78187 L51.70371,112.940956 L51.485214,112.09609 L51.281498,111.24756 L51.092617,110.395584 L50.91864,109.54045 L50.759613,108.68242 L50.61558,107.821724 L50.4866,106.958664 L50.372692,106.09346 L50.273903,105.226425 L50.190266,104.357796 L50.121796,103.48782 L50.068523,102.616806 L50.030457,101.74497 L50.007614,100.87262 L50,100 L50.007614,99.12738 L50.030457,98.255035 L50.068523,97.3832 L50.121796,96.51218 L50.190266,95.64221 L50.273903,94.773575 L50.372692,93.90654 L50.4866,93.04134 L50.61558,92.17828 L50.759613,91.31759 L50.91864,90.45955 L51.09262,89.60441 L51.281498,88.75245 L51.485214,87.90391 L51.70371,87.05905 L51.936916,86.21814 L52.184765,85.38141 L52.447174,84.54915 L52.724068,83.721596 L53.01537,82.898994 L53.320976,82.081604 L53.64081,81.26967 L53.97476,80.46345 L54.322727,79.66318 L54.684612,78.86909 L55.060295,78.08145 L55.449673,77.300476 L55.85262,76.52643 L56.269016,75.759514 L56.698727,75 L57.141632,74.2481 L57.597595,73.504036 L58.06647,72.76805 L58.548122,72.04035 L59.042397,71.32118 L59.54915,70.61075 L60.068222,69.90925 L60.599457,69.216934 L61.142704,68.53398 L61.697777,67.86063 L62.264523,67.197044 L62.84276,66.54347 L63.43231,65.900085 L64.03301,65.267075 L64.64465,64.64467 L65.26708,64.033005 L65.900085,63.432316 L66.543465,62.842762 L67.19705,62.26452 L67.86063,61.697773 L68.53398,61.1427 L69.21693,60.599464 L69.90924,60.06823 L70.610725,59.54916 L71.32118,59.042393 L72.04036,58.54812 L72.76804,58.06647 L73.50403,57.5976 L74.248085,57.14164 L75,56.698727 L75.75952,56.269012 L76.52642,55.852623 L77.30047,55.44968 L78.08145,55.060295 L78.869095,54.68461 L79.66317,54.322727 L80.46344,53.97476 L81.26966,53.640812 L82.08161,53.320976 L82.898994,53.01537 L83.72159,52.72407 L84.54915,52.447174 L85.38141,52.184765 L86.21814,51.936913 L87.05905,51.70371 L87.9039,51.485214 L88.75244,51.281498 L89.6044,51.09262 L90.45956,50.91864 L91.3176,50.75961 L92.178276,50.61558 L93.041336,50.4866 L93.906525,50.372692 L94.77358,50.273903 L95.64221,50.190266 L96.51218,50.1218 L97.383194,50.068523 L98.25501,50.030457 L99.12738,50.007614 L100,50 L100.87262,50.007614 L101.744965,50.030457 L102.616806,50.068523 L103.48782,50.1218 L104.35779,50.190266 L105.22642,50.273903 L106.09346,50.37269 L106.958664,50.4866 L107.82173,50.615585 L108.6824,50.759613 L109.54044,50.91864 L110.39557,51.092617 L111.24756,51.2815 L112.0961,51.485214 L112.94095,51.70371 L113.78186,51.936913 L114.618576,52.184757 L115.45086,52.447174 L116.27841,52.72407 L117.101006,53.01537 L117.91839,53.320976 L118.730316,53.640804 L119.53656,53.97476 L120.33684,54.322727 L121.13091,54.68461 L121.91855,55.060295 L122.69952,55.44967 L123.47359,55.852623 L124.24048,56.269012 L125,56.698727 L125.75189,57.14163 L126.49597,57.5976 L127.23196,58.06647 L127.95964,58.54812 L128.67882,59.042393 L129.38925,59.549145 L130.09076,60.06823 L130.78308,60.599464 L131.46602,61.1427 L132.13937,61.697773 L132.80295,62.264515 L133.45654,62.842762 L134.09991,63.432316 L134.73291,64.033005 L135.35533,64.64465 L135.96698,65.267075 L136.56769,65.900085 L137.15724,66.54347 L137.73547,67.197044 L138.30222,67.86061 L138.85728,68.533966 L139.40054,69.216934 L139.93178,69.90925 L140.45085,70.61073 L140.9576,71.32117 L141.45187,72.040344 L141.93353,72.76805 L142.4024,73.504036 L142.85837,74.24809 L143.30127,74.99999 L143.73099,75.75953 L144.14738,76.52643 L144.55032,77.300476 L144.9397,78.081436 L145.31538,78.86908 L145.67728,79.66318 L146.02524,80.46345 L146.35919,81.26967 L146.67902,82.0816 L146.98462,82.89898 L147.27594,83.7216 L147.55283,84.54915 L147.81523,85.38141 L148.06308,86.218124 L148.2963,87.05904 L148.51479,87.903915 L148.7185,88.75245 L148.90738,89.604416 L149.08136,90.45954 L149.24039,91.31758 L149.38441,92.17828 L149.5134,93.04134 L149.6273,93.906525 L149.7261,94.77357 L149.80974,95.6422 L149.8782,96.51218 L149.93149,97.3832 L149.96954,98.25502 L149.99239,99.127365 L150,100.00001 z" fill="none" stroke="black" stroke-width="1"/>
<path d="M125,100 L124.99619,100.43631 L124.98477,100.87249 L124.96574,101.308395 L124.9391,101.74391 L124.90487,102.178894 L124.86305,102.61321 L124.81365,103.04674 L124.7567,103.479324 L124.69221,103.91086 L124.62019,104.3412 L124.54068,104.770226 L124.45369,105.19779 L124.35925,105.62378 L124.25739,106.04805 L124.14815,106.470474 L124.03154,106.89093 L123.90762,107.309296 L123.77641,107.725426 L123.63796,108.139206 L123.49232,108.55051 L123.33951,108.9592 L123.179596,109.365166 L123.01262,109.76828 L122.83864,110.16841 L122.65769,110.56546 L122.46985,110.959274 L122.27516,111.34976 L122.073685,111.736786 L121.86549,112.12024 L121.650635,112.5 L121.429184,112.87595 L121.2012,113.247986 L120.96677,113.615974 L120.72594,113.97982 L120.478806,114.33941 L120.225426,114.69463 L119.96589,115.04538 L119.70027,115.39154 L119.42865,115.73301 L119.15111,116.06969 L118.86774,116.401474 L118.57862,116.728264 L118.283844,117.04996 L117.98349,117.36646 L117.67767,117.67767 L117.36646,117.98349 L117.04996,118.283844 L116.728264,118.57862 L116.401474,118.86774 L116.06969,119.15111 L115.73301,119.42865 L115.39154,119.70027 L115.04538,119.96589 L114.69463,120.225426 L114.33941,120.478806 L113.97982,120.72594 L113.615974,120.96677 L113.247986,121.2012 L112.87595,121.429184 L112.5,121.650635 L112.12024,121.86549 L111.736786,122.073685 L111.34976,122.27516 L110.959274,122.46985 L110.56546,122.65769 L110.16841,122.83864 L109.76828,123.01262 L109.365166,123.179596 L108.9592,123.33951 L108.55051,123.49232 L108.139206,123.63796 L107.725426,123.77641 L107.309296,123.907616 L106.89093,124.03154 L106.470474,124.14815 L106.04805,124.25739 L105.62378,124.35925 L105.19779,124.45369 L104.770226,124.54068 L104.3412,124.62019 L103.91086,124.69221 L103.479324,124.7567 L103.04674,124.81365 L102.61321,124.86305 L102.178894,124.90487 L101.74391,124.9391 L101.308395,124.96574 L100.87249,124.98477 L100.43631,124.99619 L100,125 L99.56369,124.99619 L99.12752,124.98477 L98.691605,124.96574 L98.25609,124.9391 L97.821106,124.90487 L97.38679,124.86305 L96.95327,124.81365 L96.520676,124.7567 L96.08914,124.69221 L95.6588,124.62019 L95.229774,124.54068 L94.80221,124.45369 L94.37622,124.35925 L93.95195,124.25739 L93.529526,124.14815 L93.10907,124.03154 L92.690704,123.907616 L92.274574,123.77641 L91.860794,123.63797 L91.44949,123.49232 L91.0408,123.33951 L90.634834,123.179596 L90.23172,123.01262 L89.83159,122.83864 L89.43454,122.65769 L89.040726,122.46985 L88.65024,122.27516 L88.263214,122.073685 L87.87976,121.86549 L87.5,121.650635 L87.124054,121.429184 L86.752014,121.2012 L86.384026,120.96677 L86.02018,120.72594 L85.66059,120.4788 L85.305374,120.225426 L84.95462,119.96588 L84.60846,119.70027 L84.267,119.42865 L83.93031,119.15111 L83.598526,118.86774 L83.27173,118.57862 L82.95004,118.283844 L82.633545,117.9835 L82.32233,117.67767 L82.01651,117.36646 L81.716156,117.04996 L81.42138,116.728264 L81.13226,116.401474 L80.84889,116.06969 L80.57135,115.73301 L80.29973,115.39154 L80.03412,115.04538 L79.774574,114.694626 L79.5212,114.33941 L79.27406,113.97983 L79.03323,113.615974 L78.7988,113.247986 L78.570816,112.875946 L78.349365,112.5 L78.13451,112.12024 L77.926315,111.736786 L77.72484,111.34976 L77.53015,110.959274 L77.34231,110.56546 L77.16136,110.16841 L76.98738,109.76828 L76.820404,109.365166 L76.66049,108.9592 L76.50768,108.55051 L76.36203,108.139206 L76.22359,107.725426 L76.092384,107.309296 L75.96846,106.89093 L75.85185,106.470474 L75.74261,106.04805 L75.64075,105.62378 L75.54631,105.19779 L75.45932,104.770226 L75.37981,104.34121 L75.30779,103.91086 L75.2433,103.47933 L75.18635,103.04673 L75.13695,102.61321 L75.09513,102.178894 L75.0609,101.74391 L75.03426,101.3084 L75.01523,100.87248 L75.00381,100.43631 L75,100 L75.00381,99.56369 L75.01523,99.12752 L75.03426,98.691605 L75.0609,98.25609 L75.09513,97.821106 L75.13695,97.38679 L75.18635,96.95327 L75.2433,96.520676 L75.30779,96.08914 L75.37981,95.6588 L75.45932,95.229774 L75.54631,94.8022 L75.64075,94.37622 L75.74261,93.95195 L75.85185,93.529526 L75.96846,93.10907 L76.092384,92.690704 L76.22359,92.274574 L76.36203,91.860794 L76.50768,91.44949 L76.66049,91.0408 L76.820404,90.634834 L76.98738,90.23172 L77.16136,89.83159 L77.34231,89.43454 L77.53015,89.040726 L77.72484,88.65024 L77.92631,88.263214 L78.13451,87.87976 L78.349365,87.5 L78.570816,87.124054 L78.7988,86.752014 L79.03323,86.384026 L79.27406,86.02017 L79.521194,85.66059 L79.774574,85.305374 L80.03411,84.95462 L80.29973,84.60847 L80.57135,84.26699 L80.84889,83.93031 L81.13226,83.598526 L81.42138,83.271736 L81.716156,82.95004 L82.01651,82.63354 L82.32233,82.322334 L82.633545,82.0165 L82.95004,81.716156 L83.27173,81.42138 L83.598526,81.13226 L83.93031,80.848885 L84.26699,80.57135 L84.60846,80.29973 L84.95462,80.03412 L85.30536,79.77458 L85.66059,79.521194 L86.02018,79.27406 L86.38402,79.03323 L86.752014,78.7988 L87.12404,78.570816 L87.5,78.349365 L87.87976,78.13451 L88.263214,77.926315 L88.65024,77.72484 L89.040726,77.53015 L89.43455,77.3423 L89.83159,77.16136 L90.23172,76.98738 L90.63483,76.820404 L91.0408,76.66049 L91.44949,76.50768 L91.860794,76.36204 L92.274574,76.22359 L92.690704,76.092384 L93.10907,75.96846 L93.529526,75.85185 L93.95195,75.74261 L94.37622,75.64075 L94.8022,75.54631 L95.22978,75.45932 L95.6588,75.37981 L96.08914,75.30779 L96.52067,75.2433 L96.95326,75.18635 L97.386795,75.13695 L97.821106,75.09513 L98.25609,75.0609 L98.6916,75.03426 L99.1275,75.01523 L99.56369,75.00381 L100,75 L100.43631,75.00381 L100.87248,75.01523 L101.3084,75.03426 L101.74391,75.0609 L102.178894,75.09513 L102.613205,75.13695 L103.04673,75.18634 L103.47933,75.2433 L103.910866,75.30779 L104.3412,75.37981 L104.77022,75.45932 L105.197784,75.54631 L105.62378,75.64075 L106.04805,75.74261 L106.470474,75.85185 L106.89093,75.96846 L107.30929,76.09238 L107.72543,76.22359 L108.139206,76.36204 L108.55051,76.50768 L108.9592,76.66049 L109.36516,76.820404 L109.76828,76.98738 L110.16842,77.16136 L110.56546,77.3423 L110.959274,77.53015 L111.34976,77.72484 L111.73679,77.926315 L112.12024,78.13451 L112.5,78.349365 L112.875946,78.570816 L113.247986,78.7988 L113.61598,79.03323 L113.97982,79.27406 L114.33941,79.521194 L114.694626,79.774574 L115.04538,80.03412 L115.39154,80.29973 L115.73301,80.57135 L116.06969,80.848885 L116.401474,81.132256 L116.72827,81.42138 L117.04996,81.716156 L117.366455,82.0165 L117.677666,82.32233 L117.98349,82.63354 L118.283844,82.95004 L118.57862,83.271736 L118.86774,83.598526 L119.15111,83.930305 L119.42864,84.26698 L119.70027,84.60847 L119.96589,84.95462 L120.225426,85.30537 L120.4788,85.66058 L120.72594,86.02017 L120.96677,86.384026 L121.2012,86.752014 L121.429184,87.12405 L121.650635,87.5 L121.86549,87.87976 L122.07369,88.263214 L122.27516,88.65024 L122.46985,89.04072 L122.65769,89.43454 L122.83864,89.83159 L123.01262,90.23172 L123.179596,90.634834 L123.33951,91.0408 L123.49231,91.44949 L123.63797,91.8608 L123.77641,92.274574 L123.907616,92.690704 L124.03154,93.10906 L124.14815,93.52952 L124.25739,93.95196 L124.35925,94.37622 L124.45369,94.80221 L124.54068,95.22977 L124.62019,95.65879 L124.69221,96.08914 L124.7567,96.520676 L124.81365,96.95326 L124.86305,97.38678 L124.90487,97.8211 L124.9391,98.25609 L124.965744,98.691605 L124.98477,99.12751 L124.99619,99.56368 L125,100 z" fill="none" stroke="black" stroke-width="1"/>
<path d="M112.5,100 L112.49809,100.218155 L112.492386,100.43625 L112.482864,100.6542 L112.46955,100.871956 L112.45244,101.08945 L112.431526,101.30661 L112.40683,101.52337 L112.37835,101.73966 L112.3461,101.95543 L112.3101,102.1706 L112.27034,102.38512 L112.226845,102.59889 L112.17963,102.81189 L112.12869,103.024025 L112.07407,103.23524 L112.01577,103.445465 L111.95381,103.65465 L111.88821,103.86272 L111.818985,104.0696 L111.746155,104.27525 L111.669754,104.4796 L111.5898,104.68259 L111.50631,104.88414 L111.41932,105.084206 L111.32884,105.28273 L111.234924,105.47964 L111.13758,105.67488 L111.03684,105.86839 L110.93275,106.06012 L110.82532,106.25 L110.71459,106.43797 L110.6006,106.62399 L110.48338,106.80798 L110.36297,106.989914 L110.2394,107.16971 L110.11272,107.34732 L109.98294,107.52269 L109.850136,107.69577 L109.714325,107.8665 L109.575554,108.03484 L109.43387,108.20074 L109.28931,108.364136 L109.14192,108.52498 L108.991745,108.68323 L108.83884,108.83884 L108.68323,108.991745 L108.52498,109.14192 L108.364136,109.28931 L108.20074,109.43387 L108.03484,109.575554 L107.8665,109.714325 L107.69577,109.850136 L107.52269,109.98294 L107.34732,110.11272 L107.16971,110.2394 L106.989914,110.36297 L106.80798,110.48338 L106.62399,110.6006 L106.43797,110.71459 L106.25,110.82532 L106.06012,110.93275 L105.86839,111.03684 L105.67488,111.13758 L105.47964,111.234924 L105.28273,111.32884 L105.084206,111.41932 L104.88414,111.50631 L104.68259,111.5898 L104.4796,111.669754 L104.27525,111.746155 L104.0696,111.818985 L103.86272,111.88821 L103.65465,111.95381 L103.445465,112.01577 L103.23524,112.07407 L103.024025,112.12869 L102.81189,112.17963 L102.59889,112.226845 L102.38512,112.27034 L102.1706,112.3101 L101.95543,112.3461 L101.73966,112.37835 L101.52337,112.40683 L101.30661,112.431526 L101.08945,112.45244 L100.871956,112.46955 L100.6542,112.482864 L100.43625,112.492386 L100.218155,112.49809 L100,112.5 L99.781845,112.49809 L99.56376,112.492386 L99.3458,112.482864 L99.128044,112.46955 L98.91055,112.45244 L98.69339,112.431526 L98.47664,112.40683 L98.26034,112.37835 L98.04457,112.3461 L97.8294,112.3101 L97.61488,112.27034 L97.40111,112.226845 L97.18811,112.17963 L96.975975,112.12869 L96.76476,112.07407 L96.554535,112.01577 L96.34535,111.95381 L96.13728,111.88821 L95.9304,111.818985 L95.72475,111.746155 L95.5204,111.669754 L95.31741,111.5898 L95.11586,111.50631 L94.915794,111.41932 L94.71727,111.32884 L94.52036,111.234924 L94.32512,111.13758 L94.13161,111.03684 L93.93988,110.93275 L93.75,110.82532 L93.56203,110.71459 L93.37601,110.6006 L93.19202,110.48338 L93.010086,110.36297 L92.83029,110.239395 L92.65269,110.11272 L92.47731,109.98294 L92.30423,109.850136 L92.1335,109.714325 L91.96516,109.575554 L91.79926,109.43387 L91.635864,109.28931 L91.47502,109.14192 L91.31677,108.991745 L91.16116,108.83884 L91.008255,108.68323 L90.85808,108.52498 L90.71069,108.364136 L90.56613,108.20074 L90.424446,108.03484 L90.285675,107.8665 L90.149864,107.69577 L90.01706,107.52269 L89.88728,107.34731 L89.760605,107.16971 L89.63703,106.989914 L89.51662,106.80798 L89.3994,106.62399 L89.28541,106.43797 L89.17468,106.25 L89.06725,106.06012 L88.96316,105.86839 L88.86242,105.67488 L88.765076,105.47964 L88.67116,105.28273 L88.58068,105.084206 L88.49369,104.88414 L88.4102,104.68259 L88.330246,104.4796 L88.253845,104.27525 L88.181015,104.0696 L88.11179,103.86272 L88.04619,103.65465 L87.98423,103.445465 L87.92593,103.23524 L87.87131,103.024025 L87.82037,102.81189 L87.773155,102.59889 L87.72966,102.38512 L87.6899,102.17061 L87.6539,101.95543 L87.62165,101.73967 L87.59317,101.52336 L87.568474,101.30661 L87.54756,101.08945 L87.53045,100.871956 L87.517136,100.654205 L87.507614,100.43624 L87.50191,100.218155 L87.5,100 L87.50191,99.781845 L87.507614,99.56376 L87.517136,99.3458 L87.53045,99.128044 L87.54756,98.91055 L87.568474,98.69339 L87.59317,98.47664 L87.62165,98.26034 L87.6539,98.04457 L87.6899,97.8294 L87.72966,97.61488 L87.773155,97.4011 L87.82037,97.18811 L87.87131,96.975975 L87.92593,96.76476 L87.98423,96.554535 L88.04619,96.34535 L88.11179,96.13728 L88.181015,95.9304 L88.253845,95.72475 L88.330246,95.5204 L88.4102,95.31741 L88.49369,95.11586 L88.58068,94.915794 L88.67116,94.71727 L88.765076,94.52036 L88.86242,94.32512 L88.96315,94.13161 L89.06725,93.93988 L89.17468,93.75 L89.28541,93.56203 L89.3994,93.37601 L89.51662,93.19202 L89.63703,93.010086 L89.7606,92.83029 L89.88728,92.65269 L90.01706,92.47731 L90.149864,92.30423 L90.285675,92.1335 L90.424446,91.96516 L90.56613,91.79926 L90.71069,91.635864 L90.85808,91.47502 L91.008255,91.31677 L91.16116,91.16116 L91.31677,91.008255 L91.47502,90.85808 L91.635864,90.71069 L91.79926,90.56613 L91.96516,90.42444 L92.1335,90.285675 L92.30423,90.149864 L92.47731,90.01706 L92.65268,89.88729 L92.83029,89.7606 L93.010086,89.63703 L93.19201,89.51662 L93.37601,89.3994 L93.56202,89.28541 L93.75,89.17468 L93.93988,89.06725 L94.13161,88.96316 L94.32512,88.86242 L94.52036,88.765076 L94.71727,88.67115 L94.915794,88.58068 L95.11586,88.49369 L95.31741,88.4102 L95.5204,88.330246 L95.72475,88.253845 L95.9304,88.181015 L96.13728,88.11179 L96.34535,88.04619 L96.554535,87.98423 L96.76476,87.92593 L96.975975,87.87131 L97.18811,87.82037 L97.4011,87.773155 L97.61489,87.72966 L97.8294,87.6899 L98.04457,87.6539 L98.26033,87.62165 L98.47663,87.59317 L98.6934,87.568474 L98.91055,87.54756 L99.128044,87.53045 L99.345795,87.517136 L99.56375,87.507614 L99.781845,87.50191 L100,87.5 L100.218155,87.50191 L100.43624,87.507614 L100.654205,87.517136 L100.871956,87.53045 L101.08945,87.54756 L101.3066,87.568474 L101.52336,87.59317 L101.73967,87.62165 L101.95543,87.6539 L102.1706,87.6899 L102.38511,87.72966 L102.59889,87.773155 L102.81189,87.82037 L103.024025,87.87131 L103.23524,87.92593 L103.445465,87.98423 L103.65465,88.04619 L103.86272,88.11179 L104.0696,88.181015 L104.27525,88.253845 L104.4796,88.330246 L104.68258,88.4102 L104.88414,88.49369 L105.08421,88.58068 L105.28273,88.67115 L105.47964,88.765076 L105.67488,88.86242 L105.86839,88.96316 L106.06012,89.06725 L106.25,89.17468 L106.43797,89.28541 L106.62399,89.3994 L106.80799,89.51662 L106.989914,89.63703 L107.16971,89.7606 L107.34731,89.88728 L107.52269,90.01706 L107.69577,90.149864 L107.8665,90.285675 L108.03484,90.42444 L108.20074,90.56613 L108.364136,90.71069 L108.52498,90.85808 L108.68323,91.008255 L108.83884,91.16116 L108.991745,91.31677 L109.14192,91.47502 L109.28931,91.635864 L109.43387,91.79926 L109.575554,91.96515 L109.714325,92.13349 L109.850136,92.30423 L109.98294,92.47731 L110.11272,92.65268 L110.239395,92.83029 L110.36297,93.010086 L110.48338,93.19202 L110.6006,93.37601 L110.71459,93.56203 L110.82532,93.75 L110.93275,93.93988 L111.03685,94.13161 L111.13758,94.32512 L111.234924,94.520355 L111.32884,94.71727 L111.41932,94.915794 L111.50631,95.11586 L111.5898,95.31741 L111.669754,95.5204 L111.746155,95.72475 L111.818985,95.930405 L111.88821,96.13728 L111.95381,96.34535 L112.01577,96.554535 L112.07407,96.764755 L112.12869,96.97598 L112.17963,97.18811 L112.226845,97.40111 L112.27034,97.61488 L112.3101,97.82939 L112.3461,98.04457 L112.37835,98.26034 L112.40683,98.47663 L112.431526,98.69339 L112.45244,98.91055 L112.46955,99.128044 L112.48287,99.3458 L112.492386,99.56375 L112.49809,99.781845 L112.5,100 z" fill="none" stroke="black" stroke-width="1"/>
<path d="M106.25,100 L106.24905,100.10908 L106.24619,100.218124 L106.24143,100.3271 L106.23477,100.435974 L106.22622,100.54472 L106.21576,100.653305 L106.203415,100.76169 L106.18918,100.86983 L106.17305,100.977715 L106.155045,101.0853 L106.13517,101.19256 L106.11342,101.299446 L106.08981,101.405945 L106.06435,101.51201 L106.03703,101.617615 L106.00789,101.72273 L105.976906,101.827324 L105.94411,101.93136 L105.90949,102.034805 L105.87308,102.13763 L105.83488,102.2398 L105.7949,102.34129 L105.75316,102.44207 L105.709656,102.5421 L105.66442,102.641365 L105.61746,102.73982 L105.56879,102.83744 L105.51842,102.9342 L105.46637,103.03006 L105.41266,103.125 L105.3573,103.21899 L105.3003,103.312 L105.24169,103.40399 L105.18149,103.49496 L105.119705,103.584854 L105.05636,103.67366 L104.99147,103.761345 L104.925064,103.847885 L104.85716,103.93325 L104.78778,104.017426 L104.716934,104.10037 L104.64465,104.18207 L104.57096,104.26249 L104.49587,104.34161 L104.41942,104.41942 L104.34161,104.49587 L104.26249,104.57096 L104.18207,104.64465 L104.10037,104.716934 L104.017426,104.78778 L103.93325,104.85716 L103.847885,104.925064 L103.761345,104.99147 L103.67366,105.05636 L103.584854,105.119705 L103.49496,105.18149 L103.40399,105.24169 L103.312,105.3003 L103.21899,105.3573 L103.125,105.41266 L103.03006,105.46637 L102.9342,105.51842 L102.83744,105.56879 L102.73982,105.61746 L102.641365,105.66442 L102.5421,105.709656 L102.44207,105.75316 L102.34129,105.7949 L102.2398,105.83488 L102.13763,105.87308 L102.034805,105.90949 L101.93136,105.94411 L101.827324,105.976906 L101.72273,106.00789 L101.617615,106.03703 L101.51201,106.06435 L101.405945,106.08981 L101.299446,106.11342 L101.19256,106.13517 L101.0853,106.155045 L100.977715,106.17305 L100.86983,106.18918 L100.76169,106.203415 L100.653305,106.21576 L100.54472,106.22622 L100.435974,106.23477 L100.3271,106.24143 L100.218124,106.24619 L100.10908,106.24905 L100,106.25 L99.89092,106.24905 L99.781876,106.24619 L99.6729,106.24143 L99.564026,106.23477 L99.45528,106.22622 L99.346695,106.21576 L99.23832,106.203415 L99.13017,106.18918 L99.022285,106.17305 L98.9147,106.155045 L98.80744,106.13517 L98.700554,106.11342 L98.594055,106.08981 L98.48799,106.06435 L98.382385,106.03703 L98.27727,106.00789 L98.172676,105.976906 L98.06864,105.94411 L97.965195,105.90949 L97.86237,105.87308 L97.7602,105.83488 L97.65871,105.7949 L97.55793,105.75316 L97.4579,105.709656 L97.358635,105.66442 L97.26018,105.61746 L97.16256,105.56879 L97.0658,105.51842 L96.96994,105.46637 L96.875,105.41266 L96.78101,105.3573 L96.688,105.3003 L96.59601,105.24169 L96.50504,105.18149 L96.415146,105.1197 L96.32634,105.05636 L96.238655,104.99147 L96.152115,104.925064 L96.06675,104.85716 L95.982574,104.78778 L95.89963,104.716934 L95.81793,104.64465 L95.73751,104.57096 L95.65839,104.49587 L95.58058,104.41942 L95.50413,104.34161 L95.42904,104.26249 L95.35535,104.18207 L95.283066,104.10037 L95.21222,104.017426 L95.14284,103.93325 L95.074936,103.847885 L95.00853,103.761345 L94.94364,103.67366 L94.8803,103.584854 L94.81851,103.49496 L94.75831,103.40399 L94.6997,103.312 L94.6427,103.21899 L94.58734,103.125 L94.53363,103.03006 L94.48158,102.9342 L94.43121,102.83744 L94.38254,102.73982 L94.33558,102.641365 L94.290344,102.5421 L94.24684,102.44207 L94.2051,102.34129 L94.16512,102.2398 L94.12692,102.13763 L94.09051,102.034805 L94.05589,101.93136 L94.023094,101.827324 L93.99211,101.72273 L93.96297,101.617615 L93.93565,101.51201 L93.91019,101.405945 L93.88658,101.299446 L93.86483,101.19256 L93.844955,101.085304 L93.82695,100.977715 L93.81082,100.869835 L93.796585,100.76168 L93.78424,100.653305 L93.77378,100.54472 L93.76523,100.435974 L93.75857,100.3271 L93.75381,100.218124 L93.75095,100.10908 L93.75,100 L93.75095,99.89092 L93.75381,99.781876 L93.75857,99.6729 L93.76523,99.564026 L93.77378,99.45528 L93.78424,99.346695 L93.796585,99.23832 L93.81082,99.13017 L93.82695,99.022285 L93.844955,98.9147 L93.86483,98.80744 L93.88658,98.70055 L93.91019,98.594055 L93.93565,98.48799 L93.96297,98.382385 L93.99211,98.27727 L94.023094,98.172676 L94.05589,98.06864 L94.09051,97.965195 L94.12692,97.86237 L94.16512,97.7602 L94.2051,97.65871 L94.24684,97.55793 L94.290344,97.4579 L94.33558,97.358635 L94.38254,97.26018 L94.43121,97.16256 L94.481575,97.0658 L94.53363,96.96994 L94.58734,96.875 L94.6427,96.78101 L94.6997,96.688 L94.75831,96.59601 L94.81851,96.50504 L94.880295,96.415146 L94.94364,96.32634 L95.00853,96.238655 L95.074936,96.152115 L95.14284,96.06675 L95.21222,95.982574 L95.283066,95.89963 L95.35535,95.81793 L95.42904,95.73751 L95.50413,95.65839 L95.58058,95.58058 L95.65839,95.50413 L95.73751,95.42904 L95.81793,95.35535 L95.89963,95.283066 L95.982574,95.21222 L96.06675,95.14284 L96.152115,95.074936 L96.238655,95.00853 L96.32634,94.94365 L96.415146,94.880295 L96.50504,94.81851 L96.59601,94.75831 L96.688,94.6997 L96.781006,94.6427 L96.875,94.58734 L96.96994,94.53363 L97.0658,94.48158 L97.16256,94.43121 L97.26018,94.38254 L97.358635,94.33557 L97.4579,94.290344 L97.55793,94.24684 L97.65871,94.2051 L97.7602,94.16512 L97.86237,94.12692 L97.965195,94.09051 L98.06864,94.05589 L98.172676,94.023094 L98.27727,93.99211 L98.382385,93.96297 L98.48799,93.93565 L98.594055,93.91019 L98.70055,93.88658 L98.80745,93.86483 L98.9147,93.844955 L99.022285,93.82695 L99.130165,93.81082 L99.23831,93.796585 L99.346695,93.78424 L99.45528,93.77378 L99.564026,93.76523 L99.6729,93.75857 L99.781876,93.75381 L99.89092,93.75095 L100,93.75 L100.10908,93.75095 L100.218124,93.75381 L100.3271,93.75857 L100.435974,93.76523 L100.54472,93.77378 L100.653305,93.78424 L100.76168,93.796585 L100.869835,93.81082 L100.977715,93.82695 L101.0853,93.844955 L101.19255,93.86483 L101.299446,93.88658 L101.405945,93.91019 L101.51201,93.93565 L101.617615,93.96297 L101.72273,93.99211 L101.827324,94.023094 L101.93136,94.05589 L102.034805,94.09051 L102.13763,94.12692 L102.2398,94.16512 L102.34129,94.2051 L102.44207,94.24684 L102.54211,94.290344 L102.641365,94.33557 L102.73982,94.38254 L102.83744,94.43121 L102.9342,94.48158 L103.03006,94.53363 L103.125,94.58734 L103.21899,94.6427 L103.312,94.6997 L103.40399,94.75831 L103.49496,94.81851 L103.584854,94.880295 L103.67366,94.94364 L103.761345,95.00853 L103.847885,95.074936 L103.93325,95.14284 L104.017426,95.21222 L104.10037,95.283066 L104.18207,95.35535 L104.26249,95.42904 L104.34161,95.50413 L104.41942,95.58058 L104.49587,95.65839 L104.57096,95.73751 L104.64465,95.81793 L104.716934,95.89963 L104.78778,95.982574 L104.85716,96.06674 L104.925064,96.152115 L104.99147,96.238655 L105.05636,96.32634 L105.1197,96.415146 L105.18149,96.50504 L105.24169,96.59601 L105.3003,96.688 L105.3573,96.78101 L105.41266,96.875 L105.46637,96.96994 L105.518425,97.0658 L105.56879,97.16256 L105.61746,97.26018 L105.66442,97.358635 L105.709656,97.4579 L105.75316,97.55793 L105.7949,97.65871 L105.83488,97.7602 L105.87308,97.86237 L105.90949,97.9652 L105.94411,98.06864 L105.976906,98.172676 L106.00789,98.27727 L106.03703,98.38238 L106.06435,98.48799 L106.08981,98.594055 L106.11342,98.700554 L106.13517,98.80744 L106.155045,98.914696 L106.17305,99.022285 L106.18918,99.13017 L106.203415,99.23831 L106.21576,99.346695 L106.22622,99.45528 L106.23477,99.564026 L106.24144,99.6729 L106.24619,99.781876 L106.24905,99.89092 L106.25,100 z" fill="none" stroke="black" stroke-width="1"/>
<path d="M103.125,100 L103.12453,100.054535 L103.12309,100.10906 L103.12071,100.16355 L103.117386,100.21799 L103.11311,100.27236 L103.10788,100.32665 L103.10171,100.380844 L103.09459,100.43491 L103.086525,100.48886 L103.07752,100.54265 L103.06758,100.59628 L103.05671,100.64972 L103.04491,100.70297 L103.03217,100.756004 L103.01852,100.80881 L103.003944,100.86137 L102.98845,100.913666 L102.97205,100.96568 L102.95474,101.0174 L102.93654,101.06882 L102.917435,101.1199 L102.897446,101.17065 L102.87658,101.22104 L102.85483,101.27105 L102.832214,101.32068 L102.80873,101.36991 L102.78439,101.41872 L102.75921,101.4671 L102.733185,101.51503 L102.70633,101.5625 L102.67865,101.6095 L102.65015,101.656 L102.62085,101.701996 L102.590744,101.74748 L102.55985,101.79243 L102.52818,101.83683 L102.495735,101.88068 L102.46253,101.92394 L102.42858,101.96663 L102.39389,102.00871 L102.35847,102.050186 L102.32233,102.091034 L102.28548,102.13124 L102.24794,102.17081 L102.20971,102.20971 L102.17081,102.24794 L102.13124,102.28548 L102.091034,102.32233 L102.050186,102.35847 L102.00871,102.39389 L101.96663,102.42858 L101.92394,102.46253 L101.88068,102.495735 L101.83683,102.52818 L101.79243,102.55985 L101.74748,102.590744 L101.701996,102.62085 L101.656,102.65015 L101.6095,102.67865 L101.5625,102.70633 L101.51503,102.733185 L101.4671,102.75921 L101.41872,102.78439 L101.36991,102.80873 L101.32068,102.832214 L101.27105,102.85483 L101.22104,102.87658 L101.17065,102.897446 L101.1199,102.917435 L101.06882,102.93654 L101.0174,102.95474 L100.96568,102.97205 L100.913666,102.98845 L100.86137,103.003944 L100.80881,103.01852 L100.756004,103.03217 L100.70297,103.04491 L100.64972,103.05671 L100.59628,103.06758 L100.54265,103.07752 L100.48886,103.086525 L100.43491,103.09459 L100.380844,103.10171 L100.32665,103.10788 L100.27236,103.11311 L100.21799,103.117386 L100.16355,103.12071 L100.10906,103.12309 L100.054535,103.12453 L100,103.125 L99.945465,103.12453 L99.89094,103.12309 L99.83645,103.12071 L99.78201,103.117386 L99.72764,103.11311 L99.67335,103.10788 L99.619156,103.10171 L99.56509,103.09459 L99.51114,103.086525 L99.45735,103.07752 L99.40372,103.06758 L99.35028,103.05671 L99.29703,103.04491 L99.243996,103.03217 L99.19119,103.01852 L99.13863,103.003944 L99.086334,102.98845 L99.03432,102.97205 L98.9826,102.95474 L98.93118,102.93654 L98.8801,102.917435 L98.82935,102.897446 L98.77896,102.87658 L98.72895,102.85483 L98.67932,102.832214 L98.63009,102.80873 L98.58128,102.78439 L98.5329,102.75921 L98.48497,102.733185 L98.4375,102.70633 L98.3905,102.67865 L98.344,102.65015 L98.298004,102.62085 L98.25252,102.590744 L98.20757,102.559845 L98.16317,102.52818 L98.11932,102.495735 L98.07606,102.46253 L98.03337,102.42858 L97.99129,102.39389 L97.949814,102.35847 L97.908966,102.32233 L97.86876,102.28548 L97.82919,102.24794 L97.79029,102.20971 L97.75206,102.17081 L97.71452,102.13124 L97.67767,102.091034 L97.64153,102.050186 L97.60611,102.00871 L97.57142,101.96663 L97.53747,101.92394 L97.504265,101.88068 L97.47182,101.83683 L97.440155,101.79243 L97.409256,101.74748 L97.37915,101.701996 L97.34985,101.656 L97.32135,101.6095 L97.29367,101.5625 L97.266815,101.51503 L97.24079,101.4671 L97.21561,101.41872 L97.19127,101.36991 L97.167786,101.32068 L97.14517,101.27105 L97.12342,101.22104 L97.102554,101.17065 L97.082565,101.1199 L97.06346,101.06882 L97.04526,101.0174 L97.02795,100.96568 L97.01155,100.913666 L96.996056,100.86137 L96.98148,100.80881 L96.96783,100.756004 L96.95509,100.70297 L96.94329,100.64972 L96.93242,100.59628 L96.92248,100.54265 L96.913475,100.48886 L96.90541,100.43492 L96.89829,100.380844 L96.89212,100.32665 L96.88689,100.27236 L96.882614,100.21799 L96.87929,100.16355 L96.87691,100.10906 L96.87547,100.054535 L96.875,100 L96.87547,99.945465 L96.87691,99.89094 L96.87929,99.83645 L96.882614,99.78201 L96.88689,99.72764 L96.89212,99.67335 L96.89829,99.619156 L96.90541,99.56509 L96.913475,99.51114 L96.92248,99.45735 L96.93242,99.40372 L96.94329,99.35027 L96.95509,99.29703 L96.96783,99.243996 L96.98148,99.19119 L96.996056,99.13863 L97.01155,99.086334 L97.02795,99.03432 L97.04526,98.9826 L97.06346,98.93118 L97.082565,98.8801 L97.102554,98.82935 L97.12342,98.77896 L97.14517,98.72895 L97.167786,98.67932 L97.19127,98.63009 L97.21561,98.58128 L97.24078,98.5329 L97.266815,98.48497 L97.29367,98.4375 L97.32135,98.3905 L97.34985,98.344 L97.37915,98.298004 L97.409256,98.25252 L97.44015,98.20757 L97.47182,98.16317 L97.504265,98.11932 L97.53747,98.07606 L97.57142,98.03337 L97.60611,97.99129 L97.64153,97.949814 L97.67767,97.908966 L97.71452,97.86876 L97.75206,97.82919 L97.79029,97.79029 L97.82919,97.75206 L97.86876,97.71452 L97.908966,97.67767 L97.949814,97.64153 L97.99129,97.60611 L98.03337,97.57142 L98.07606,97.53747 L98.11932,97.504265 L98.16317,97.471825 L98.20757,97.44015 L98.25252,97.409256 L98.298004,97.37915 L98.344,97.34985 L98.3905,97.32135 L98.4375,97.29367 L98.48497,97.266815 L98.5329,97.24079 L98.58128,97.21561 L98.63009,97.19127 L98.67932,97.167786 L98.72895,97.14517 L98.77896,97.12342 L98.82935,97.102554 L98.8801,97.082565 L98.93118,97.06346 L98.9826,97.04526 L99.03432,97.02795 L99.086334,97.01155 L99.13863,96.996056 L99.19119,96.98148 L99.243996,96.96783 L99.29703,96.95509 L99.35027,96.94329 L99.403725,96.93242 L99.45735,96.92248 L99.51114,96.913475 L99.56508,96.90541 L99.619156,96.89829 L99.67335,96.89212 L99.72764,96.88689 L99.78201,96.882614 L99.83645,96.87929 L99.89094,96.87691 L99.945465,96.87547 L100,96.875 L100.054535,96.87547 L100.10906,96.87691 L100.16355,96.87929 L100.21799,96.882614 L100.27236,96.88689 L100.32665,96.89212 L100.380844,96.89829 L100.43492,96.90541 L100.48886,96.913475 L100.54265,96.92248 L100.596275,96.93242 L100.64972,96.94329 L100.70297,96.95509 L100.756004,96.96783 L100.80881,96.98148 L100.86137,96.996056 L100.913666,97.01155 L100.96568,97.02795 L101.0174,97.04526 L101.06882,97.06346 L101.1199,97.082565 L101.17065,97.102554 L101.22104,97.12342 L101.27106,97.14517 L101.32068,97.167786 L101.36991,97.19127 L101.41872,97.21561 L101.4671,97.24079 L101.51503,97.266815 L101.5625,97.29367 L101.6095,97.32135 L101.656,97.34985 L101.701996,97.37915 L101.74748,97.409256 L101.79243,97.44015 L101.83683,97.47182 L101.88068,97.504265 L101.92394,97.53747 L101.96663,97.57142 L102.00871,97.60611 L102.050186,97.64153 L102.091034,97.67767 L102.13124,97.71452 L102.17081,97.75206 L102.20971,97.79029 L102.24794,97.82919 L102.28548,97.86876 L102.32233,97.908966 L102.35847,97.949814 L102.39389,97.99129 L102.42858,98.03337 L102.46253,98.07606 L102.495735,98.11932 L102.52818,98.16317 L102.559845,98.20757 L102.590744,98.25252 L102.62085,98.298004 L102.65015,98.344 L102.67865,98.3905 L102.70633,98.4375 L102.733185,98.48497 L102.75922,98.5329 L102.78439,98.58128 L102.80873,98.63009 L102.832214,98.67932 L102.85483,98.72895 L102.87658,98.77896 L102.897446,98.82935 L102.917435,98.8801 L102.93654,98.93118 L102.95474,98.982605 L102.97205,99.03432 L102.98845,99.086334 L103.003944,99.13863 L103.01852,99.19119 L103.03217,99.243996 L103.04491,99.29703 L103.05671,99.35028 L103.06758,99.40372 L103.07752,99.45735 L103.086525,99.51114 L103.09459,99.56509 L103.10171,99.619156 L103.10788,99.67335 L103.11311,99.72764 L103.117386,99.78201 L103.12072,99.83645 L103.12309,99.89094 L103.12453,99.945465 L103.125,100 z" fill="none" stroke="black" stroke-width="1"/>
<path d="M101.5625,100 L101.56226,100.02727 L101.56155,100.054535 L101.560356,100.08177 L101.55869,100.10899 L101.55656,100.136185 L101.55394,100.16333 L101.55086,100.19042 L101.547295,100.21745 L101.54326,100.24443 L101.53876,100.271324 L101.53379,100.29814 L101.52835,100.32486 L101.52245,100.35149 L101.51608,100.378006 L101.50926,100.4044 L101.50197,100.43068 L101.494225,100.45683 L101.48602,100.48284 L101.47737,100.5087 L101.46827,100.53441 L101.45872,100.55995 L101.44872,100.58533 L101.43829,100.61052 L101.427414,100.63553 L101.41611,100.66034 L101.404366,100.68495 L101.3922,100.70936 L101.37961,100.73355 L101.36659,100.757515 L101.353165,100.78125 L101.339325,100.80475 L101.32507,100.828 L101.310425,100.851 L101.29537,100.87374 L101.27992,100.89621 L101.26409,100.91841 L101.24786,100.94034 L101.23126,100.961975 L101.214294,100.983315 L101.196945,101.00436 L101.17923,101.02509 L101.16116,101.04552 L101.14274,101.06562 L101.12397,101.0854 L101.10486,101.10486 L101.0854,101.12397 L101.06562,101.14274 L101.04552,101.16116 L101.02509,101.17923 L101.00436,101.196945 L100.983315,101.214294 L100.961975,101.23126 L100.94034,101.24786 L100.91841,101.26409 L100.89621,101.27992 L100.87374,101.29537 L100.851,101.310425 L100.828,101.32507 L100.80475,101.339325 L100.78125,101.353165 L100.757515,101.36659 L100.73355,101.37961 L100.70936,101.3922 L100.68495,101.404366 L100.66034,101.41611 L100.63553,101.427414 L100.61052,101.43829 L100.58533,101.44872 L100.55995,101.45872 L100.53441,101.46827 L100.5087,101.47737 L100.48284,101.48602 L100.45683,101.494225 L100.43068,101.50197 L100.4044,101.50926 L100.378006,101.51608 L100.35149,101.52245 L100.32486,101.52835 L100.29814,101.53379 L100.271324,101.53876 L100.24443,101.54326 L100.21745,101.547295 L100.19042,101.55086 L100.16333,101.55394 L100.136185,101.55656 L100.10899,101.55869 L100.08177,101.560356 L100.054535,101.56155 L100.02727,101.56226 L100,101.5625 L99.97273,101.56226 L99.945465,101.56155 L99.91823,101.560356 L99.89101,101.55869 L99.863815,101.55656 L99.83667,101.55394 L99.80958,101.55086 L99.78255,101.547295 L99.75557,101.54326 L99.728676,101.53876 L99.70186,101.53379 L99.67514,101.52835 L99.64851,101.52245 L99.621994,101.51608 L99.5956,101.50926 L99.56932,101.50197 L99.54317,101.494225 L99.51716,101.48602 L99.4913,101.47737 L99.46559,101.46827 L99.44005,101.45872 L99.41467,101.44872 L99.38948,101.43829 L99.36447,101.427414 L99.33966,101.41611 L99.31505,101.404366 L99.29064,101.3922 L99.26645,101.37961 L99.242485,101.36659 L99.21875,101.353165 L99.19525,101.339325 L99.172,101.32507 L99.149,101.310425 L99.12626,101.29537 L99.10379,101.27992 L99.08159,101.26409 L99.05966,101.24786 L99.038025,101.23126 L99.016685,101.214294 L98.99564,101.196945 L98.97491,101.17923 L98.95448,101.16116 L98.93438,101.14274 L98.9146,101.12397 L98.89514,101.10486 L98.87603,101.0854 L98.85726,101.06562 L98.83884,101.04552 L98.82077,101.02509 L98.803055,101.00436 L98.785706,100.983315 L98.76874,100.961975 L98.75214,100.94034 L98.73591,100.91841 L98.72008,100.89621 L98.70463,100.87374 L98.689575,100.851 L98.67493,100.828 L98.660675,100.80475 L98.646835,100.78125 L98.63341,100.757515 L98.62039,100.73355 L98.6078,100.70936 L98.595634,100.68495 L98.58389,100.66034 L98.572586,100.63553 L98.56171,100.61052 L98.55128,100.58533 L98.54128,100.55995 L98.53173,100.53441 L98.52263,100.5087 L98.51398,100.48284 L98.505775,100.45683 L98.49803,100.43068 L98.49074,100.4044 L98.48392,100.378006 L98.47755,100.35149 L98.47165,100.32486 L98.46621,100.29814 L98.46124,100.271324 L98.45674,100.24443 L98.452705,100.21746 L98.44914,100.19042 L98.44606,100.16333 L98.44344,100.136185 L98.44131,100.10899 L98.439644,100.08177 L98.43845,100.054535 L98.43774,100.02727 L98.4375,100 L98.43774,99.97273 L98.43845,99.945465 L98.439644,99.91823 L98.44131,99.89101 L98.44344,99.863815 L98.44606,99.83667 L98.44914,99.80958 L98.452705,99.78255 L98.45674,99.75557 L98.46124,99.728676 L98.46621,99.70186 L98.47165,99.67514 L98.47755,99.64851 L98.48392,99.621994 L98.49074,99.5956 L98.49803,99.56932 L98.505775,99.54317 L98.51398,99.51716 L98.52263,99.4913 L98.53173,99.46559 L98.54128,99.44005 L98.55128,99.41467 L98.56171,99.38948 L98.572586,99.36447 L98.58389,99.33966 L98.595634,99.31505 L98.6078,99.29064 L98.62039,99.26645 L98.63341,99.242485 L98.646835,99.21875 L98.660675,99.19525 L98.67493,99.172 L98.689575,99.149 L98.70463,99.12626 L98.72008,99.10379 L98.73591,99.08159 L98.75214,99.05966 L98.76874,99.038025 L98.785706,99.016685 L98.803055,98.99564 L98.82077,98.97491 L98.83884,98.95448 L98.85726,98.93438 L98.87603,98.9146 L98.89514,98.89514 L98.9146,98.87603 L98.93438,98.85726 L98.95448,98.83884 L98.97491,98.82077 L98.99564,98.803055 L99.016685,98.785706 L99.038025,98.76874 L99.05966,98.75214 L99.08159,98.735916 L99.10379,98.72008 L99.12626,98.70463 L99.149,98.689575 L99.172,98.67493 L99.19525,98.660675 L99.21875,98.646835 L99.242485,98.63341 L99.26645,98.62039 L99.29064,98.6078 L99.31505,98.595634 L99.33966,98.58389 L99.36447,98.572586 L99.38948,98.56171 L99.41467,98.55128 L99.44005,98.54128 L99.46559,98.53173 L99.4913,98.52263 L99.51716,98.51398 L99.54317,98.505775 L99.56932,98.49803 L99.5956,98.49074 L99.621994,98.48392 L99.64851,98.47755 L99.67514,98.47165 L99.70186,98.46621 L99.728676,98.46124 L99.75557,98.45674 L99.78254,98.452705 L99.80958,98.44914 L99.83667,98.44606 L99.863815,98.44344 L99.89101,98.44131 L99.91823,98.439644 L99.945465,98.43845 L99.97273,98.43774 L100,98.4375 L100.02727,98.43774 L100.054535,98.43845 L100.08177,98.439644 L100.10899,98.44131 L100.136185,98.44344 L100.16333,98.44606 L100.19042,98.44914 L100.21746,98.452705 L100.24443,98.45674 L100.271324,98.46124 L100.29814,98.46621 L100.32486,98.47165 L100.35149,98.47755 L100.378006,98.48392 L100.4044,98.49074 L100.43068,98.49803 L100.45683,98.505775 L100.48284,98.51398 L100.5087,98.52263 L100.53441,98.53173 L100.55995,98.54128 L100.58533,98.55128 L100.61052,98.56171 L100.63553,98.572586 L100.66034,98.58389 L100.68495,98.595634 L100.70936,98.6078 L100.73355,98.62039 L100.757515,98.63341 L100.78125,98.646835 L100.80475,98.660675 L100.828,98.67493 L100.851,98.689575 L100.87374,98.70463 L100.89621,98.72008 L100.91841,98.73591 L100.94034,98.75214 L100.961975,98.76874 L100.983315,98.785706 L101.00436,98.803055 L101.02509,98.82077 L101.04552,98.83884 L101.06562,98.85726 L101.0854,98.87603 L101.10486,98.89514 L101.12397,98.9146 L101.14274,98.93438 L101.16116,98.95448 L101.17923,98.97491 L101.196945,98.99564 L101.214294,99.016685 L101.23126,99.038025 L101.24786,99.05966 L101.26409,99.08159 L101.27992,99.10379 L101.29537,99.12626 L101.310425,99.149 L101.32507,99.172 L101.339325,99.19525 L101.353165,99.21875 L101.36659,99.242485 L101.37961,99.26645 L101.3922,99.29064 L101.404366,99.31505 L101.41611,99.33966 L101.427414,99.36447 L101.43829,99.38948 L101.44872,99.41467 L101.45872,99.44005 L101.46827,99.46559 L101.47737,99.4913 L101.48602,99.51716 L101.494225,99.54317 L101.50197,99.56932 L101.50926,99.5956 L101.51608,99.621994 L101.52245,99.64851 L101.52835,99.67514 L101.53379,99.70186 L101.53876,99.728676 L101.54326,99.75557 L101.547295,99.78255 L101.55086,99.80958 L101.55394,99.83667 L101.55656,99.863815 L101.55869,99.89101 L101.56036,99.91823 L101.56155,99.945465 L101.56226,99.97273 L101.5625,100 z" fill="none" stroke="black" stroke-width="1"/>
<path d="M100.78125,100 L100.78113,100.01363 L100.78078,100.02727 L100.78018,100.040886 L100.77934,100.0545 L100.778275,100.06809 L100.77697,100.081665 L100.77543,100.095215 L100.77365,100.10873 L100.77163,100.122215 L100.76938,100.135666 L100.76689,100.14907 L100.764175,100.16243 L100.76123,100.17574 L100.75804,100.189 L100.75463,100.2022 L100.750984,100.21534 L100.747116,100.22842 L100.74301,100.241425 L100.738686,100.25435 L100.73413,100.267204 L100.729355,100.279976 L100.724365,100.29266 L100.71915,100.30526 L100.71371,100.317764 L100.70805,100.33017 L100.70218,100.342476 L100.6961,100.354675 L100.689804,100.366776 L100.6833,100.37875 L100.67658,100.390625 L100.66966,100.402374 L100.66254,100.414 L100.65521,100.4255 L100.64769,100.436874 L100.63996,100.448105 L100.63205,100.459206 L100.62393,100.47017 L100.61563,100.48099 L100.60715,100.49165 L100.59847,100.50218 L100.589615,100.51254 L100.58058,100.52276 L100.571365,100.53281 L100.56198,100.5427 L100.55243,100.55243 L100.5427,100.56198 L100.53281,100.571365 L100.52276,100.58058 L100.51254,100.589615 L100.50218,100.59847 L100.49165,100.60715 L100.48099,100.61563 L100.47017,100.62393 L100.459206,100.63205 L100.448105,100.63996 L100.436874,100.64769 L100.4255,100.65521 L100.414,100.66254 L100.402374,100.66966 L100.390625,100.67658 L100.37875,100.6833 L100.366776,100.689804 L100.354675,100.6961 L100.342476,100.70218 L100.33017,100.70805 L100.317764,100.71371 L100.30526,100.71915 L100.29266,100.724365 L100.279976,100.729355 L100.267204,100.73413 L100.25435,100.738686 L100.241425,100.74301 L100.22842,100.747116 L100.21534,100.750984 L100.2022,100.75463 L100.189,100.75804 L100.17574,100.76123 L100.16243,100.764175 L100.14907,100.76689 L100.135666,100.76938 L100.122215,100.77163 L100.10873,100.77365 L100.095215,100.77543 L100.081665,100.77697 L100.06809,100.778275 L100.0545,100.77934 L100.040886,100.78018 L100.02727,100.78078 L100.01363,100.78113 L100,100.78125 L99.98637,100.78113 L99.97273,100.78078 L99.959114,100.78018 L99.9455,100.77934 L99.93191,100.778275 L99.918335,100.77697 L99.904785,100.77543 L99.89127,100.77365 L99.877785,100.77163 L99.864334,100.76938 L99.85093,100.76689 L99.83757,100.764175 L99.82426,100.76123 L99.811,100.75804 L99.7978,100.75463 L99.78466,100.750984 L99.77158,100.747116 L99.758575,100.74301 L99.74565,100.738686 L99.732796,100.73413 L99.720024,100.729355 L99.70734,100.724365 L99.69474,100.71915 L99.682236,100.71371 L99.66983,100.70805 L99.657524,100.70218 L99.645325,100.6961 L99.633224,100.689804 L99.62125,100.6833 L99.609375,100.67658 L99.597626,100.66966 L99.586,100.66254 L99.5745,100.65521 L99.563126,100.64769 L99.551895,100.63996 L99.540794,100.63205 L99.52983,100.62393 L99.51901,100.61563 L99.50835,100.60715 L99.49782,100.59847 L99.48746,100.589615 L99.47724,100.58058 L99.46719,100.571365 L99.4573,100.56198 L99.44757,100.55243 L99.43802,100.5427 L99.428635,100.53281 L99.41942,100.52276 L99.410385,100.51254 L99.40153,100.50218 L99.39285,100.49165 L99.38437,100.48099 L99.37607,100.47017 L99.36795,100.459206 L99.36004,100.448105 L99.35231,100.436874 L99.34479,100.4255 L99.33746,100.414 L99.33034,100.402374 L99.32342,100.390625 L99.3167,100.37875 L99.310196,100.366776 L99.3039,100.354675 L99.29782,100.342476 L99.29195,100.33017 L99.28629,100.317764 L99.28085,100.30526 L99.275635,100.29266 L99.270645,100.279976 L99.26587,100.267204 L99.261314,100.25435 L99.25699,100.241425 L99.252884,100.22842 L99.249016,100.21534 L99.24537,100.2022 L99.24196,100.189 L99.23877,100.17574 L99.235825,100.16243 L99.23311,100.14907 L99.23062,100.135666 L99.22837,100.122215 L99.22635,100.108734 L99.22457,100.095215 L99.22303,100.081665 L99.221725,100.06809 L99.22066,100.0545 L99.21982,100.040886 L99.21922,100.02727 L99.21887,100.01363 L99.21875,100 L99.21887,99.98637 L99.21922,99.97273 L99.21982,99.959114 L99.22066,99.9455 L99.221725,99.93191 L99.22303,99.918335 L99.22457,99.904785 L99.22635,99.89127 L99.22837,99.877785 L99.23062,99.864334 L99.23311,99.85093 L99.235825,99.83757 L99.23877,99.82426 L99.24196,99.811 L99.24537,99.7978 L99.249016,99.78466 L99.252884,99.77158 L99.25699,99.758575 L99.261314,99.74565 L99.26587,99.732796 L99.270645,99.720024 L99.275635,99.70734 L99.28085,99.69474 L99.28629,99.682236 L99.29195,99.66983 L99.29782,99.657524 L99.3039,99.645325 L99.310196,99.633224 L99.3167,99.62125 L99.32342,99.609375 L99.33034,99.597626 L99.33746,99.586 L99.34479,99.5745 L99.35231,99.563126 L99.36004,99.551895 L99.36795,99.540794 L99.37607,99.52983 L99.38437,99.51901 L99.39285,99.50835 L99.40153,99.49782 L99.410385,99.48746 L99.41942,99.47724 L99.428635,99.46719 L99.43802,99.4573 L99.44757,99.44757 L99.4573,99.43802 L99.46719,99.428635 L99.47724,99.41942 L99.48746,99.410385 L99.49782,99.40153 L99.50835,99.39285 L99.51901,99.38437 L99.52983,99.37607 L99.540794,99.36796 L99.551895,99.36004 L99.563126,99.35231 L99.5745,99.34479 L99.586,99.33746 L99.597626,99.33034 L99.609375,99.32342 L99.62125,99.3167 L99.633224,99.310196 L99.645325,99.3039 L99.657524,99.29782 L99.66983,99.29195 L99.682236,99.28629 L99.69474,99.28085 L99.70734,99.275635 L99.720024,99.270645 L99.732796,99.26587 L99.74565,99.261314 L99.758575,99.25699 L99.77158,99.252884 L99.78466,99.249016 L99.7978,99.24537 L99.811,99.24196 L99.82426,99.23877 L99.83757,99.235825 L99.85093,99.23311 L99.864334,99.23062 L99.877785,99.22837 L99.891266,99.22635 L99.904785,99.22457 L99.918335,99.22303 L99.93191,99.221725 L99.9455,99.22066 L99.959114,99.21982 L99.97273,99.21922 L99.98637,99.21887 L100,99.21875 L100.01363,99.21887 L100.02727,99.21922 L100.040886,99.21982 L100.0545,99.22066 L100.06809,99.221725 L100.081665,99.22303 L100.095215,99.22457 L100.108734,99.22635 L100.122215,99.22837 L100.135666,99.23062 L100.14907,99.23311 L100.16243,99.235825 L100.17574,99.23877 L100.189,99.24196 L100.2022,99.24537 L100.21534,99.249016 L100.22842,99.252884 L100.241425,99.25699 L100.25435,99.261314 L100.267204,99.26587 L100.279976,99.270645 L100.29266,99.275635 L100.30526,99.28085 L100.317764,99.28629 L100.33017,99.29195 L100.342476,99.29782 L100.354675,99.3039 L100.366776,99.310196 L100.37875,99.3167 L100.390625,99.32342 L100.402374,99.33034 L100.414,99.33746 L100.4255,99.34479 L100.436874,99.35231 L100.448105,99.36004 L100.459206,99.36795 L100.47017,99.37607 L100.48099,99.38437 L100.49165,99.39285 L100.50218,99.40153 L100.51254,99.410385 L100.52276,99.41942 L100.53281,99.428635 L100.5427,99.43802 L100.55243,99.44757 L100.56198,99.4573 L100.571365,99.46719 L100.58058,99.47724 L100.589615,99.48746 L100.59847,99.49782 L100.60715,99.50835 L100.61563,99.51901 L100.62393,99.52983 L100.63205,99.540794 L100.63996,99.551895 L100.64769,99.563126 L100.65521,99.5745 L100.66254,99.586 L100.66966,99.597626 L100.67658,99.609375 L100.6833,99.62125 L100.689804,99.633224 L100.6961,99.645325 L100.70218,99.657524 L100.70805,99.66983 L100.71371,99.682236 L100.71915,99.69474 L100.724365,99.70734 L100.729355,99.720024 L100.73413,99.732796 L100.738686,99.74565 L100.74301,99.758575 L100.747116,99.77158 L100.750984,99.78466 L100.75463,99.7978 L100.75804,99.811 L100.76123,99.82426 L100.764175,99.83757 L100.76689,99.85093 L100.76938,99.864334 L100.77163,99.877785 L100.77365,99.89127 L100.77543,99.904785 L100.77697,99.918335 L100.778275,99.93191 L100.77934,99.9455 L100.78018,99.959114 L100.78078,99.97273 L100.78113,99.98637 L100.78125,100 z" fill="none" stroke="black" stroke-width="1"/>
</svg>