<svg height="100%" preserveAspectRatio="xMidYMid meet" viewBox="0 0 1000 1000" width="100%" xmlns="http://www.w3.org/2000/svg">
<circle cx="500" cy="250" fill="none" r="20" stroke="#000000" stroke-width="1" transform="rotate(0 0 0)"/>
<circle cx="510" cy="750" fill="none" r="22" stroke="#000000" stroke-width="1" transform="rotate(0 0 0)"/>
<circle cx="520" cy="250" fill="none" r="24.2" stroke="#000000" stroke-width="1" transform="rotate(0 0 0)"/>
<circle cx="530" cy="750" fill="none" r="26.62" stroke="#000000" stroke-width="1" transform="rotate(0 0 0)"/>
<circle cx="540" cy="250" fill="none" r="29.282001" stroke="#000000" stroke-width="1" transform="rotate(0 0 0)"/>
<circle cx="550" cy="750" fill="none" r="32.2102" stroke="#000000" stroke-width="1" transform="rotate(0 0 0)"/>
<circle cx="560" cy="250" fill="none" r="35.43122" stroke="#000000" stroke-width="1" transform="rotate(0 0 0)"/>
<circle cx="570" cy="750" fill="none" r="38.974342" stroke="#000000" stroke-width="1" transform="rotate(0 0 0)"/>
<circle cx="580" cy="250" fill="none" r="42.871777" stroke="#000000" stroke-width="1" transform="rotate(0 0 0)"/>
<circle cx="590" cy="750" fill="none" r="47.158955" stroke="#000000" stroke-width="1" transform="rotate(0 0 0)"/>
<circle cx="600" cy="250" fill="none" r="51.87485" stroke="#000000" stroke-width="1" transform="rotate(0 0 0)"/>
<circle cx="610" cy="750" fill="none" r="57.062336" stroke="#000000" stroke-width="1" transform="rotate(0 0 0)"/>
<circle cx="620" cy="250" fill="none" r="62.76857" stroke="#000000" stroke-width="1" transform="rotate(0 0 0)"/>
<circle cx="630" cy="750" fill="none" r="69.045425" stroke="#000000" stroke-width="1" transform="rotate(0 0 0)"/>
<circle cx="640" cy="250" fill="none" r="75.94997" stroke="#000000" stroke-width="1" transform="rotate(0 0 0)"/>
<circle cx="650" cy="750" fill="none" r="83.54497" stroke="#000000" stroke-width="1" transform="rotate(0 0 0)"/>
<circle cx="660" cy="250" fill="none" r="91.89947" stroke="#000000" stroke-width="1" transform="rotate(0 0 0)"/>
<circle cx="670" cy="750" fill="none" r="101.08942" stroke="#000000" stroke-width="1" transform="rotate(0 0 0)"/>
<circle cx="680" cy="250" fill="none" r="111.198364" stroke="#000000" stroke-width="1" transform="rotate(0 0 0)"/>
<circle cx="690" cy="750" fill="none" r="122.31821" stroke="#000000" stroke-width="1" transform="rotate(0 0 0)"/>
<circle cx="700" cy="250" fill="none" r="134.55003" stroke="#000000" stroke-width="1" transform="rotate(0 0 0)"/>
<circle cx="710" cy="750" fill="none" r="148.00504" stroke="#000000" stroke-width="1" transform="rotate(0 0 0)"/>
<circle cx="720" cy="250" fill="none" r="162.80554" stroke="#000000" stroke-width="1" transform="rotate(0 0 0)"/>
<circle cx="730" cy="750" fill="none" r="179.0861" stroke="#000000" stroke-width="1" transform="rotate(0 0 0)"/>
<circle cx="740" cy="250" fill="none" r="196.99472" stroke="#000000" stroke-width="1" transform="rotate(0 0 0)"/>
<circle cx="750" cy="750" fill="none" r="216.6942" stroke="#000000" stroke-width="1" transform="rotate(0 0 0)"/>
<circle cx="760" cy="250" fill="none" r="238.36362" stroke="#000000" stroke-width="1" transform="rotate(0 0 0)"/>
<circle cx="770" cy="750" fill="none" r="262.19998" stroke="#000000" stroke-width="1" transform="rotate(0 0 0)"/>
<circle cx="780" cy="250" fill="none" r="288.41998" stroke="#000000" stroke-width="1" transform="rotate(0 0 0)"/>
<circle cx="790" cy="750" fill="none" r="317.262" stroke="#000000" stroke-width="1" transform="rotate(0 0 0)"/>
<circle cx="800" cy="250" fill="none" r="348.9882" stroke="#000000" stroke-width="1" transform="rotate(0 0 0)"/>
<circle cx="810" cy="750" fill="none" r="383.88702" stroke="#000000" stroke-width="1" transform="rotate(0 0 0)"/>
<circle cx="820" cy="250" fill="none" r="422.27573" stroke="#000000" stroke-width="1" transform="rotate(0 0 0)"/>
<circle cx="830" cy="750" fill="none" r="464.5033" stroke="#000000" stroke-width="1" transform="rotate(0 0 0)"/>
<circle cx="840" cy="250" fill="none" r="510.95364" stroke="#000000" stroke-width="1" transform="rotate(0 0 0)"/>
<circle cx="850" cy="750" fill="none" r="562.049" stroke="#000000" stroke-width="1" transform="rotate(0 0 0)"/>
<circle cx="860" cy="250" fill="none" r="618.2539" stroke="#000000" stroke-width="1" transform="rotate(0 0 0)"/>
<circle cx="870" cy="750" fill="none" r="680.0793" stroke="#000000" stroke-width="1" transform="rotate(0 0 0)"/>
<circle cx="880" cy="250" fill="none" r="748.0872" stroke="#000000" stroke-width="1" transform="rotate(0 0 0)"/>
<circle cx="890" cy="750" fill="none" r="822.89594" stroke="#000000" stroke-width="1" transform="rotate(0 0 0)"/>
<circle cx="900" cy="250" fill="none" r="905.18555" stroke="#000000" stroke-width="1" transform="rotate(0 0 0)"/>
<circle cx="910" cy="750" fill="none" r="995.7041" stroke="#000000" stroke-width="1" transform="rotate(0 0 0)"/>
<circle cx="920" cy="250" fill="none" r="1095.2745" stroke="#000000" stroke-width="1" transform="rotate(0 0 0)"/>
<circle cx="930" cy="750" fill="none" r="1204.802" stroke="#000000" stroke-width="1" transform="rotate(0 0 0)"/>
<circle cx="940" cy="250" fill="none" r="1325.2822" stroke="#000000" stroke-width="1" transform="rotate(0 0 0)"/>
<circle cx="950" cy="750" fill="none" r="1457.8104" stroke="#000000" stroke-width="1" transform="rotate(0 0 0)"/>
<circle cx="960" cy="250" fill="none" r="1603.5916" stroke="#000000" stroke-width="1" transform="rotate(0 0 0)"/>
<circle cx="970" cy="750" fill="none" r="1763.9508" stroke="#000000" stroke-width="1" transform="rotate(0 0 0)"/>
<circle cx="980" cy="250" fill="none" r="1940.346" stroke="#000000" stroke-width="1" transform="rotate(0 0 0)"/>
<circle cx="990" cy="750" fill="none" r="2134.3806" stroke="#000000" stroke-width="1" transform="rotate(0 0 0)"/>
<circle cx="1000" cy="250" fill="none" r="2347.8188" stroke="#000000" stroke-width="1" transform="rotate(0 0 0)"/>
<circle cx="1010" cy="750" fill="none" r="2582.6008" stroke="#000000" stroke-width="1" transform="rotate(0 0 0)"/>
<circle cx="1020" cy="250" fill="none" r="2840.861" stroke="#000000" stroke-width="1" transform="rotate(0 0 0)"/>
<circle cx="1030" cy="750" fill="none" r="3124.9473" stroke="#000000" stroke-width="1" transform="rotate(0 0 0)"/>
<circle cx="1040" cy="250" fill="none" r="3437.4421" stroke="#000000" stroke-width="1" transform="rotate(0 0 0)"/>
<circle cx="1050" cy="750" fill="none" r="3781.1865" stroke="#000000" stroke-width="1" transform="rotate(0 0 0)"/>
<circle cx="1060" cy="250" fill="none" r="4159.305" stroke="#000000" stroke-width="1" transform="rotate(0 0 0)"/>
<circle cx="1070" cy="750" fill="none" r="4575.236" stroke="#000000" stroke-width="1" transform="rotate(0 0 0)"/>
<circle cx="1080" cy="250" fill="none" r="5032.76" stroke="#000000" stroke-width="1" transform="rotate(0 0 0)"/>
<circle cx="1090" cy="750" fill="none" r="5536.0356" stroke="#000000" stroke-width="1" transform="rotate(0 0 0)"/>
<circle cx="1100" cy="250" fill="none" r="6089.639" stroke="#000000" stroke-width="1" transform="rotate(0 0 0)"/>
<circle cx="1110" cy="750" fill="none" r="6698.603" stroke="#000000" stroke-width="1" transform="rotate(0 0 0)"/>
<circle cx="1120" cy="250" fill="none" r="7368.4634" stroke="#000000" stroke-width="1" transform="rotate(0 0 0)"/>
<circle cx="1130" cy="750" fill="none" r="8105.31" stroke="#000000" stroke-width="1" transform="rotate(0 0 0)"/>
<circle cx="1140" cy="250" fill="none" r="8915.841" stroke="#000000" stroke-width="1" transform="rotate(0 0 0)"/>
<circle cx="1150" cy="750" fill="none" r="9807.425" stroke="#000000" stroke-width="1" transform="rotate(0 0 0)"/>
<circle cx="1160" cy="250" fill="none" r="10788.168" stroke="#000000" stroke-width="1" transform="rotate(0 0 0)"/>
<circle cx="1170" cy="750" fill="none" r="11866.985" stroke="#000000" stroke-width="1" transform="rotate(0 0 0)"/>
<circle cx="1180" cy="250" fill="none" r="13053.685" stroke="#000000" stroke-width="1" transform="rotate(0 0 0)"/>
<circle cx="1190" cy="750" fill="none" r="14359.054" stroke="#000000" stroke-width="1" transform="rotate(0 0 0)"/>
<circle cx="1200" cy="250" fill="none" r="15794.959" stroke="#000000" stroke-width="1" transform="rotate(0 0 0)"/>
<circle cx="1210" cy="750" fill="none" r="17374.455" stroke="#000000" stroke-width="1" transform="rotate(0 0 0)"/>
<circle cx="1220" cy="250" fill="none" r="19111.9" stroke="#000000" stroke-width="1" transform="rotate(0 0 0)"/>
<circle cx="1230" cy="750" fill="none" r="21023.092" stroke="#000000" stroke-width="1" transform="rotate(0 0 0)"/>
<circle cx="1240" cy="250" fill="none" r="23125.402" stroke="#000000" stroke-width="1" transform="rotate(0 0 0)"/>
<circle cx="1250" cy="750" fill="none" r="25437.943" stroke="#000000" stroke-width="1" transform="rotate(0 0 0)"/>
<circle cx="1260" cy="250" fill="none" r="27981.738" stroke="#000000" stroke-width="1" transform="rotate(0 0 0)"/>
<circle cx="1270" cy="750" fill="none" r="30779.912" stroke="#000000" stroke-width="1" transform="rotate(0 0 0)"/>
<circle cx="1280" cy="250" fill="none" r="33857.902" stroke="#000000" stroke-width="1" transform="rotate(0 0 0)"/>
<circle cx="1290" cy="750" fill="none" r="37243.695" stroke="#000000" stroke-width="1" transform="rotate(0 0 0)"/>
<circle cx="1300" cy="250" fill="none" r="40968.066" stroke="#000000" stroke-width="1" transform="rotate(0 0 0)"/>
<circle cx="1310" cy="750" fill="none" r="45064.875" stroke="#000000" stroke-width="1" transform="rotate(0 0 0)"/>
<circle cx="1320" cy="250" fill="none" r="49571.363" stroke="#000000" stroke-width="1" transform="rotate(0 0 0)"/>
<circle cx="1330" cy="750" fill="none" r="54528.5" stroke="#000000" stroke-width="1" transform="rotate(0 0 0)"/>
<circle cx="1340" cy="250" fill="none" r="59981.35" stroke="#000000" stroke-width="1" transform="rotate(0 0 0)"/>
<circle cx="1350" cy="750" fill="none" r="65979.484" stroke="#000000" stroke-width="1" transform="rotate(0 0 0)"/>
<circle cx="1360" cy="250" fill="none" r="72577.44" stroke="#000000" stroke-width="1" transform="rotate(0 0 0)"/>
<circle cx="1370" cy="750" fill="none" r="79835.18" stroke="#000000" stroke-width="1" transform="rotate(0 0 0)"/>
<circle cx="1380" cy="250" fill="none" r="87818.7" stroke="#000000" stroke-width="1" transform="rotate(0 0 0)"/>
<circle cx="1390" cy="750" fill="none" r="96600.58" stroke="#000000" stroke-width="1" transform="rotate(0 0 0)"/>
<circle cx="1400" cy="250" fill="none" r="106260.64" stroke="#000000" stroke-width="1" transform="rotate(0 0 0)"/>
<circle cx="1410" cy="750" fill="none" r="116886.71" stroke="#000000" stroke-width="1" transform="rotate(0 0 0)"/>
<circle cx="1420" cy="250" fill="none" r="128575.38" stroke="#000000" stroke-width="1" transform="rotate(0 0 0)"/>
<circle cx="1430" cy="750" fill="none" r="141432.92" stroke="#000000" stroke-width="1" transform="rotate(0 0 0)"/>
<circle cx="1440" cy="250" fill="none" r="155576.22" stroke="#000000" stroke-width="1" transform="rotate(0 0 0)"/>
<circle cx="1450" cy="750" fill="none" r="171133.84" stroke="#000000" stroke-width="1" transform="rotate(0 0 0)"/>
<circle cx="1460" cy="250" fill="none" r="188247.23" stroke="#000000" stroke-width="1" transform="rotate(0 0 0)"/>
<circle cx="1470" cy="750" fill="none" r="207071.97" stroke="#000000" stroke-width="1" transform="rotate(0 0 0)"/>
<circle cx="1480" cy="250" fill="none" r="227779.17" stroke="#000000" stroke-width="1" transform="rotate(0 0 0)"/>
<circle cx="1490" cy="750" fill="none" r="250557.1" stroke="#000000" stroke-width="1" transform="rotate(0 0 0)"/>
</svg>