<svg height="100%" preserveAspectRatio="xMidYMid meet" viewBox="0 0 1000 1000" width="100%" xmlns="http://www.w3.org/2000/svg">
<circle cx="100" cy="100" fill="none" r="100" stroke="#000000" stroke-width="1"/>
<circle cx="100" cy="100" fill="none" r="110" stroke="#000000" stroke-width="1"/>
<circle cx="100" cy="100" fill="none" r="121" stroke="#000000" stroke-width="1"/>
<circle cx="100" cy="100" fill="none" r="133.1" stroke="#000000" stroke-width="1"/>
<circle cx="100" cy="100" fill="none" r="146.41" stroke="#000000" stroke-width="1"/>
<circle cx="100" cy="100" fill="none" r="161.05101" stroke="#000000" stroke-width="1"/>
<circle cx="100" cy="100" fill="none" r="177.15611" stroke="#000000" stroke-width="1"/>
<circle cx="100" cy="100" fill="none" r="194.87173" stroke="#000000" stroke-width="1"/>
<circle cx="100" cy="100" fill="none" r="214.35892" stroke="#000000" stroke-width="1"/>
<circle cx="100" cy="100" fill="none" r="235.79482" stroke="#000000" stroke-width="1"/>
<circle cx="100" cy="100" fill="none" r="259.3743" stroke="#000000" stroke-width="1"/>
<circle cx="100" cy="100" fill="none" r="285.31174" stroke="#000000" stroke-width="1"/>
<circle cx="100" cy="100" fill="none" r="313.84293" stroke="#000000" stroke-width="1"/>
<circle cx="100" cy="100" fill="none" r="345.22723" stroke="#000000" stroke-width="1"/>
<circle cx="100" cy="100" fill="none" r="379.74997" stroke="#000000" stroke-width="1"/>
<circle cx="100" cy="100" fill="none" r="417.72498" stroke="#000000" stroke-width="1"/>
<circle cx="100" cy="100" fill="none" r="459.4975" stroke="#000000" stroke-width="1"/>
<circle cx="100" cy="100" fill="none" r="505.44727" stroke="#000000" stroke-width="1"/>
<circle cx="100" cy="100" fill="none" r="555.992" stroke="#000000" stroke-width="1"/>
<circle cx="100" cy="100" fill="none" r="611.59125" stroke="#000000" stroke-width="1"/>
<circle cx="100" cy="100" fill="none" r="672.75037" stroke="#000000" stroke-width="1"/>
<circle cx="100" cy="100" fill="none" r="740.0254" stroke="#000000" stroke-width="1"/>
<circle cx="100" cy="100" fill="none" r="814.02795" stroke="#000000" stroke-width="1"/>
<circle cx="100" cy="100" fill="none" r="895.4308" stroke="#000000" stroke-width="1"/>
<circle cx="100" cy="100" fill="none" r="984.9739" stroke="#000000" stroke-width="1"/>
<circle cx="100" cy="100" fill="none" r="1083.4713" stroke="#000000" stroke-width="1"/>
<circle cx="100" cy="100" fill="none" r="1191.8185" stroke="#000000" stroke-width="1"/>
<circle cx="100" cy="100" fill="none" r="1311.0004" stroke="#000000" stroke-width="1"/>
<circle cx="100" cy="100" fill="none" r="1442.1005" stroke="#000000" stroke-width="1"/>
<circle cx="100" cy="100" fill="none" r="1586.3105" stroke="#000000" stroke-width="1"/>
<circle cx="100" cy="100" fill="none" r="1744.9417" stroke="#000000" stroke-width="1"/>
<circle cx="100" cy="100" fill="none" r="1919.4359" stroke="#000000" stroke-width="1"/>
<circle cx="100" cy="100" fill="none" r="2111.3796" stroke="#000000" stroke-width="1"/>
<circle cx="100" cy="100" fill="none" r="2322.5176" stroke="#000000" stroke-width="1"/>
<circle cx="100" cy="100" fill="none" r="2554.7693" stroke="#000000" stroke-width="1"/>
<circle cx="100" cy="100" fill="none" r="2810.2463" stroke="#000000" stroke-width="1"/>
<circle cx="100" cy="100" fill="none" r="3091.271" stroke="#000000" stroke-width="1"/>
<circle cx="100" cy="100" fill="none" r="3400.3982" stroke="#000000" stroke-width="1"/>
<circle cx="100" cy="100" fill="none" r="3740.438" stroke="#000000" stroke-width="1"/>
<circle cx="100" cy="100" fill="none" r="4114.482" stroke="#000000" stroke-width="1"/>
<circle cx="100" cy="100" fill="none" r="4525.93" stroke="#000000" stroke-width="1"/>
<circle cx="100" cy="100" fill="none" r="4978.5234" stroke="#000000" stroke-width="1"/>
<circle cx="100" cy="100" fill="none" r="5476.376" stroke="#000000" stroke-width="1"/>
<circle cx="100" cy="100" fill="none" r="6024.0137" stroke="#000000" stroke-width="1"/>
<circle cx="100" cy="100" fill="none" r="6626.415" stroke="#000000" stroke-width="1"/>
<circle cx="100" cy="100" fill="none" r="7289.0566" stroke="#000000" stroke-width="1"/>
<circle cx="100" cy="100" fill="none" r="8017.9624" stroke="#000000" stroke-width="1"/>
<circle cx="100" cy="100" fill="none" r="8819.759" stroke="#000000" stroke-width="1"/>
<circle cx="100" cy="100" fill="none" r="9701.735" stroke="#000000" stroke-width="1"/>
<circle cx="100" cy="100" fill="none" r="10671.909" stroke="#000000" stroke-width="1"/>
<circle cx="100" cy="100" fill="none" r="11739.101" stroke="#000000" stroke-width="1"/>
<circle cx="100" cy="100" fill="none" r="12913.011" stroke="#000000" stroke-width="1"/>
<circle cx="100" cy="100" fill="none" r="14204.3125" stroke="#000000" stroke-width="1"/>
<circle cx="100" cy="100" fill="none" r="15624.744" stroke="#000000" stroke-width="1"/>
<circle cx="100" cy="100" fill="none" r="17187.219" stroke="#000000" stroke-width="1"/>
<circle cx="100" cy="100" fill="none" r="18905.941" stroke="#000000" stroke-width="1"/>
<circle cx="100" cy="100" fill="none" r="20796.535" stroke="#000000" stroke-width="1"/>
<circle cx="100" cy="100" fill="none" r="22876.19" stroke="#000000" stroke-width="1"/>
<circle cx="100" cy="100" fill="none" r="25163.809" stroke="#000000" stroke-width="1"/>
<circle cx="100" cy="100" fill="none" r="27680.19" stroke="#000000" stroke-width="1"/>
<circle cx="100" cy="100" fill="none" r="30448.209" stroke="#000000" stroke-width="1"/>
<circle cx="100" cy="100" fill="none" r="33493.03" stroke="#000000" stroke-width="1"/>
<circle cx="100" cy="100" fill="none" r="36842.336" stroke="#000000" stroke-width="1"/>
<circle cx="100" cy="100" fill="none" r="40526.57" stroke="#000000" stroke-width="1"/>
<circle cx="100" cy="100" fill="none" r="44579.227" stroke="#000000" stroke-width="1"/>
<circle cx="100" cy="100" fill="none" r="49037.15" stroke="#000000" stroke-width="1"/>
<circle cx="100" cy="100" fill="none" r="53940.863" stroke="#000000" stroke-width="1"/>
<circle cx="100" cy="100" fill="none" r="59334.95" stroke="#000000" stroke-width="1"/>
<circle cx="100" cy="100" fill="none" r="65268.445" stroke="#000000" stroke-width="1"/>
<circle cx="100" cy="100" fill="none" r="71795.29" stroke="#000000" stroke-width="1"/>
<circle cx="100" cy="100" fill="none" r="78974.82" stroke="#000000" stroke-width="1"/>
<circle cx="100" cy="100" fill="none" r="86872.305" stroke="#000000" stroke-width="1"/>
<circle cx="100" cy="100" fill="none" r="95559.54" stroke="#000000" stroke-width="1"/>
<circle cx="100" cy="100" fill="none" r="105115.49" stroke="#000000" stroke-width="1"/>
<circle cx="100" cy="100" fill="none" r="115627.05" stroke="#000000" stroke-width="1"/>
<circle cx="100" cy="100" fill="none" r="127189.76" stroke="#000000" stroke-width="1"/>
<circle cx="100" cy="100" fill="none" r="139908.73" stroke="#000000" stroke-width="1"/>
<circle cx="100" cy="100" fill="none" r="153899.61" stroke="#000000" stroke-width="1"/>
<circle cx="100" cy="100" fill="none" r="169289.58" stroke="#000000" stroke-width="1"/>
<circle cx="100" cy="100" fill="none" r="186218.55" stroke="#000000" stroke-width="1"/>
<circle cx="100" cy="100" fill="none" r="204840.4" stroke="#000000" stroke-width="1"/>
<circle cx="100" cy="100" fill="none" r="225324.45" stroke="#000000" stroke-width="1"/>
<circle cx="100" cy="100" fill="none" r="247856.9" stroke="#000000" stroke-width="1"/>
<circle cx="100" cy="100" fill="none" r="272642.6" stroke="#000000" stroke-width="1"/>
<circle cx="100" cy="100" fill="none" r="299906.88" stroke="#000000" stroke-width="1"/>
<circle cx="100" cy="100" fill="none" r="329897.56" stroke="#000000" stroke-width="1"/>
<circle cx="100" cy="100" fill="none" r="362887.3" stroke="#000000" stroke-width="1"/>
<circle cx="100" cy="100" fill="none" r="399176.06" stroke="#000000" stroke-width="1"/>
<circle cx="100" cy="100" fill="none" r="439093.7" stroke="#000000" stroke-width="1"/>
<circle cx="100" cy="100" fill="none" r="483003.06" stroke="#000000" stroke-width="1"/>
<circle cx="100" cy="100" fill="none" r="531303.4" stroke="#000000" stroke-width="1"/>
<circle cx="100" cy="100" fill="none" r="584433.75" stroke="#000000" stroke-width="1"/>
<circle cx="100" cy="100" fill="none" r="642877.1" stroke="#000000" stroke-width="1"/>
<circle cx="100" cy="100" fill="none" r="707164.9" stroke="#000000" stroke-width="1"/>
<circle cx="100" cy="100" fill="none" r="777881.4" stroke="#000000" stroke-width="1"/>
<circle cx="100" cy="100" fill="none" r="855669.5" stroke="#000000" stroke-width="1"/>
<circle cx="100" cy="100" fill="none" r="941236.5" stroke="#000000" stroke-width="1"/>
<circle cx="100" cy="100" fill="none" r="1035360.2" stroke="#000000" stroke-width="1"/>
<circle cx="100" cy="100" fill="none" r="1138896.3" stroke="#000000" stroke-width="1"/>
<circle cx="100" cy="100" fill="none" r="1252785.9" stroke="#000000" stroke-width="1"/>
</svg>